<svg width="32" height="33" viewBox="0 0 32 33" fill="none" xmlns="http://www.w3.org/2000/svg">
<g clip-path="url(#clip0_6093_892)">
<path d="M28 0.5C29.0609 0.5 30.0783 0.921427 30.8284 1.67157C31.5786 2.42172 32 3.43913 32 4.5C32 5.56087 31.5786 6.57828 30.8284 7.32843C30.0783 8.07857 29.0609 8.5 28 8.5C26.9391 8.5 25.9217 8.07857 25.1716 7.32843C24.4214 6.57828 24 5.56087 24 4.5C24 3.43913 24.4214 2.42172 25.1716 1.67157C25.9217 0.921427 26.9391 0.5 28 0.5ZM4 24.5C5.48125 24.5 6.775 25.3062 7.4625 26.5H10V25.6187C10 25 10.5 24.5 11.1187 24.5C11.3687 24.5 11.6062 24.5812 11.8062 24.7375L15.6062 27.6938C15.8562 27.8875 16 28.1875 16 28.5C16 28.8125 15.8562 29.1125 15.6062 29.3062L11.8062 32.2625C11.6125 32.4125 11.3687 32.5 11.1187 32.5C10.5 32.5 10 32 10 31.3813V30.5H7.4625C6.76875 31.6938 5.48125 32.5 4 32.5C1.79375 32.5 0 30.7062 0 28.5C0 26.2938 1.79375 24.5 4 24.5Z" fill="#E6F0FF"/>
<path d="M16 7.38125V6.5H8C5.79375 6.5 4 8.29375 4 10.5C4 12.7063 5.79375 14.5 8 14.5H24C28.4188 14.5 32 18.0812 32 22.5C32 26.3875 29.225 29.6313 25.55 30.35C24.8812 31.625 23.5438 32.5 22 32.5C19.7938 32.5 18 30.7062 18 28.5C18 26.2938 19.7938 24.5 22 24.5C23.3875 24.5 24.6063 25.2062 25.325 26.275C26.8813 25.7312 28 24.2437 28 22.5C28 20.2938 26.2062 18.5 24 18.5H8C3.58125 18.5 0 14.9187 0 10.5C0 6.08125 3.58125 2.5 8 2.5H16V1.61875C16 1 16.5 0.5 17.1187 0.5C17.3687 0.5 17.6062 0.58125 17.8062 0.7375L21.6063 3.69375C21.8563 3.8875 22 4.1875 22 4.5C22 4.8125 21.8563 5.1125 21.6063 5.30625L17.8062 8.2625C17.6125 8.4125 17.3687 8.5 17.1187 8.5C16.5 8.5 16 8 16 7.38125Z" fill="#003E9C"/>
</g>
<defs>
<clipPath id="clip0_6093_892">
<rect width="32" height="32" fill="white" transform="translate(0 0.5)"/>
</clipPath>
</defs>
</svg>
