<svg width="21" height="25" viewBox="0 0 21 25" fill="none" xmlns="http://www.w3.org/2000/svg">
<g clip-path="url(#clip0_6020_4741)">
<path opacity="0.4" d="M13.5 23H19.5C20.3296 23 21 22.3297 21 21.5V15.5C21 14.6704 20.3296 14 19.5 14C18.6703 14 18 14.6704 18 15.5V17.8766L12.6234 12.5L10.5 14.6235L15.8765 20H13.5C12.6703 20 12 20.6704 12 21.5C12 22.3297 12.6703 23 13.5 23ZM8.37652 12.5L10.5 10.3766L2.55933 2.44067C1.9734 1.85474 1.02183 1.85474 0.435896 2.44067C-0.150042 3.02661 -0.145354 3.97349 0.440583 4.55942L8.37652 12.5Z" fill="#0065FF"/>
<path d="M12.0001 3.5C12.0001 2.67031 12.6704 2 13.5001 2H19.5001C20.3298 2 21.0001 2.67031 21.0001 3.5V9.5C21.0001 10.3297 20.3298 11 19.5001 11C18.6704 11 18.0001 10.3297 18.0001 9.5V7.12344L2.55947 22.5594C1.97354 23.1453 1.02197 23.1453 0.436035 22.5594C-0.149902 21.9734 -0.149902 21.0219 0.436035 20.4359L15.8767 5H13.5001C12.6704 5 12.0001 4.32969 12.0001 3.5Z" fill="black"/>
</g>
<defs>
<clipPath id="clip0_6020_4741">
<rect width="21" height="24" fill="white" transform="translate(0 0.5)"/>
</clipPath>
</defs>
</svg>
