<svg width="30" height="25" viewBox="0 0 30 25" fill="none" xmlns="http://www.w3.org/2000/svg">
<g clip-path="url(#clip0_8104_4280)">
<path d="M12.9562 5.22034C12.4172 5.99377 11.5172 6.50002 10.5 6.50002C10.4109 6.50002 10.3266 6.49534 10.2375 6.49065L11.6062 9.42034C10.3969 10.3625 9.51561 11.7031 9.16874 13.25H5.59686C5.84999 13.6906 5.99999 14.2016 5.99999 14.75C5.99999 15.2985 5.85468 15.8094 5.59686 16.25H9.16405C9.84842 19.2547 12.5344 21.5 15.7453 21.5C17.6578 21.5 19.3875 20.7031 20.6156 19.4235L24 21.4485C24.0187 20.3422 24.6375 19.3813 25.5422 18.875L22.1672 16.85C22.3828 16.1891 22.5 15.4813 22.5 14.75C22.5 13.7985 22.3031 12.8891 21.9469 12.0688L25.7906 9.2469C24.8297 8.82502 24.1359 7.91096 24.0187 6.82815L20.1703 9.65002C18.9844 8.62346 17.4422 8.00002 15.75 8.00002C15.2625 8.00002 14.7844 8.05159 14.325 8.15002L12.9562 5.22034ZM15.75 12.5C16.3467 12.5 16.919 12.7371 17.341 13.159C17.7629 13.581 18 14.1533 18 14.75C18 15.3468 17.7629 15.9191 17.341 16.341C16.919 16.763 16.3467 17 15.75 17C15.1533 17 14.581 16.763 14.159 16.341C13.737 15.9191 13.5 15.3468 13.5 14.75C13.5 14.1533 13.737 13.581 14.159 13.159C14.581 12.7371 15.1533 12.5 15.75 12.5Z" fill="#96C0FF"/>
<path d="M10.5 6.5C11.2956 6.5 12.0587 6.18393 12.6213 5.62132C13.1839 5.05871 13.5 4.29565 13.5 3.5C13.5 2.70435 13.1839 1.94129 12.6213 1.37868C12.0587 0.816071 11.2956 0.5 10.5 0.5C9.70435 0.5 8.94129 0.816071 8.37868 1.37868C7.81607 1.94129 7.5 2.70435 7.5 3.5C7.5 4.29565 7.81607 5.05871 8.37868 5.62132C8.94129 6.18393 9.70435 6.5 10.5 6.5ZM27 9.5C27.7956 9.5 28.5587 9.18393 29.1213 8.62132C29.6839 8.05871 30 7.29565 30 6.5C30 5.70435 29.6839 4.94129 29.1213 4.37868C28.5587 3.81607 27.7956 3.5 27 3.5C26.2044 3.5 25.4413 3.81607 24.8787 4.37868C24.3161 4.94129 24 5.70435 24 6.5C24 7.29565 24.3161 8.05871 24.8787 8.62132C25.4413 9.18393 26.2044 9.5 27 9.5ZM30 21.5C30 20.7044 29.6839 19.9413 29.1213 19.3787C28.5587 18.8161 27.7956 18.5 27 18.5C26.2044 18.5 25.4413 18.8161 24.8787 19.3787C24.3161 19.9413 24 20.7044 24 21.5C24 22.2956 24.3161 23.0587 24.8787 23.6213C25.4413 24.1839 26.2044 24.5 27 24.5C27.7956 24.5 28.5587 24.1839 29.1213 23.6213C29.6839 23.0587 30 22.2956 30 21.5ZM3 17.75C3.79565 17.75 4.55871 17.4339 5.12132 16.8713C5.68393 16.3087 6 15.5456 6 14.75C6 13.9544 5.68393 13.1913 5.12132 12.6287C4.55871 12.0661 3.79565 11.75 3 11.75C2.20435 11.75 1.44129 12.0661 0.87868 12.6287C0.316071 13.1913 0 13.9544 0 14.75C0 15.5456 0.316071 16.3087 0.87868 16.8713C1.44129 17.4339 2.20435 17.75 3 17.75Z" fill="#2B7FFF"/>
</g>
<defs>
<clipPath id="clip0_8104_4280">
<rect width="30" height="24" fill="white" transform="translate(0 0.5)"/>
</clipPath>
</defs>
</svg>
