    <svg
      width="32"
      height="33"
      viewBox="0 0 32 33"
      fill="none"
      xmlns="http://www.w3.org/2000/svg"
    >
      <g clip-path="url(#clip0_6093_886)">
        <path
          opacity="0.4"
          d="M15 4C15 2.06875 13.4312 0.5 11.5 0.5C9.69375 0.5 8.20625 1.86875 8.01875 3.61875C6.2875 4.05625 5 5.63125 5 7.5C5 7.875 5.05 8.24375 5.15 8.5875C3.35 8.98125 2 10.5813 2 12.5C2 13.4375 2.31875 14.3 2.8625 14.9812C1.16875 15.7812 0 17.5063 0 19.5C0 21.6375 1.3375 23.4625 3.225 24.175C3.08125 24.5875 3 25.0375 3 25.5C3 27.7062 4.79375 29.5 7 29.5C7.35 29.5 7.69375 29.4562 8.01875 29.3687C8.2 31.1313 9.69375 32.5 11.5 32.5C13.4312 32.5 15 30.9312 15 29V17.5H12C11.45 17.5 11 17.95 11 18.5V20.6688C12.1625 21.0813 13 22.1938 13 23.5C13 25.1562 11.6562 26.5 10 26.5C8.34375 26.5 7 25.1562 7 23.5C7 22.1938 7.8375 21.0813 9 20.6688V18.5C9 16.8438 10.3438 15.5 12 15.5H15V10.5H12.8313C12.4187 11.6625 11.3062 12.5 10 12.5C8.34375 12.5 7 11.1562 7 9.5C7 7.84375 8.34375 6.5 10 6.5C11.3062 6.5 12.4187 7.3375 12.8313 8.5H15V4ZM17 10.5V22.5H19.1688C19.5813 21.3375 20.6938 20.5 22 20.5C23.6562 20.5 25 21.8438 25 23.5C25 25.1562 23.6562 26.5 22 26.5C20.6938 26.5 19.5813 25.6625 19.1688 24.5H17V29C17 30.9312 18.5688 32.5 20.5 32.5C22.3062 32.5 23.7938 31.1313 23.9813 29.3687C24.3063 29.4562 24.65 29.5 25 29.5C27.2062 29.5 29 27.7062 29 25.5C29 25.0375 28.9187 24.5875 28.775 24.175C30.6625 23.4625 32 21.6375 32 19.5C32 17.5063 30.8313 15.7812 29.1375 14.9812C29.6813 14.3 30 13.4375 30 12.5C30 10.5813 28.65 8.98125 26.85 8.5875C26.95 8.24375 27 7.875 27 7.5C27 5.63125 25.7125 4.05625 23.9813 3.61875C23.7875 1.86875 22.3062 0.5 20.5 0.5C18.5688 0.5 17 2.06875 17 4V8.5H20C21.6562 8.5 23 9.84375 23 11.5V11.6687C24.1625 12.0813 25 13.1938 25 14.5C25 16.1562 23.6562 17.5 22 17.5C20.3438 17.5 19 16.1562 19 14.5C19 13.1938 19.8375 12.0813 21 11.6687V11.5C21 10.95 20.55 10.5 20 10.5H17Z"
          fill="#6BA6FF"
        />
        <path
          d="M15 17.5V29H17V24.5H19.1688C19.5813 25.6625 20.6938 26.5 22 26.5C23.6562 26.5 25 25.1562 25 23.5C25 21.8438 23.6562 20.5 22 20.5C20.6938 20.5 19.5813 21.3375 19.1688 22.5H17V10.5H20C20.55 10.5 21 10.95 21 11.5V11.6687C19.8375 12.0813 19 13.1938 19 14.5C19 16.1562 20.3438 17.5 22 17.5C23.6562 17.5 25 16.1562 25 14.5C25 13.1938 24.1625 12.0813 23 11.6687V11.5C23 9.84375 21.6562 8.5 20 8.5H17V4H15V8.5H12.8313C12.4188 7.3375 11.3063 6.5 10 6.5C8.34375 6.5 7 7.84375 7 9.5C7 11.1562 8.34375 12.5 10 12.5C11.3063 12.5 12.4188 11.6625 12.8313 10.5H15V15.5H12C10.3438 15.5 9 16.8438 9 18.5V20.6688C7.8375 21.0813 7 22.1938 7 23.5C7 25.1562 8.34375 26.5 10 26.5C11.6562 26.5 13 25.1562 13 23.5C13 22.1938 12.1625 21.0813 11 20.6688V18.5C11 17.95 11.45 17.5 12 17.5H15ZM11 9.5C11 9.76522 10.8946 10.0196 10.7071 10.2071C10.5196 10.3946 10.2652 10.5 10 10.5C9.73478 10.5 9.48043 10.3946 9.29289 10.2071C9.10536 10.0196 9 9.76522 9 9.5C9 9.23478 9.10536 8.98043 9.29289 8.79289C9.48043 8.60536 9.73478 8.5 10 8.5C10.2652 8.5 10.5196 8.60536 10.7071 8.79289C10.8946 8.98043 11 9.23478 11 9.5ZM22 15.5C21.7348 15.5 21.4804 15.3946 21.2929 15.2071C21.1054 15.0196 21 14.7652 21 14.5C21 14.2348 21.1054 13.9804 21.2929 13.7929C21.4804 13.6054 21.7348 13.5 22 13.5C22.2652 13.5 22.5196 13.6054 22.7071 13.7929C22.8946 13.9804 23 14.2348 23 14.5C23 14.7652 22.8946 15.0196 22.7071 15.2071C22.5196 15.3946 22.2652 15.5 22 15.5ZM11 23.5C11 23.7652 10.8946 24.0196 10.7071 24.2071C10.5196 24.3946 10.2652 24.5 10 24.5C9.73478 24.5 9.48043 24.3946 9.29289 24.2071C9.10536 24.0196 9 23.7652 9 23.5C9 23.2348 9.10536 22.9804 9.29289 22.7929C9.48043 22.6054 9.73478 22.5 10 22.5C10.2652 22.5 10.5196 22.6054 10.7071 22.7929C10.8946 22.9804 11 23.2348 11 23.5ZM23 23.5C23 23.7652 22.8946 24.0196 22.7071 24.2071C22.5196 24.3946 22.2652 24.5 22 24.5C21.7348 24.5 21.4804 24.3946 21.2929 24.2071C21.1054 24.0196 21 23.7652 21 23.5C21 23.2348 21.1054 22.9804 21.2929 22.7929C21.4804 22.6054 21.7348 22.5 22 22.5C22.2652 22.5 22.5196 22.6054 22.7071 22.7929C22.8946 22.9804 23 23.2348 23 23.5Z"
          fill="#003E9C"
        />
      </g>
      <defs>
        <clipPath id="clip0_6093_886">
          <rect
            width="32"
            height="32"
            fill="white"
            transform="translate(0 0.5)"
          />
        </clipPath>
      </defs>
    </svg>