<svg width="32" height="32" viewBox="0 0 32 32" fill="none" xmlns="http://www.w3.org/2000/svg">
<g clip-path="url(#clip0_6003_2929)">
<path opacity="0.4" d="M0 16C0 11.7565 1.68571 7.68687 4.68629 4.68629C7.68687 1.68571 11.7565 0 16 0C20.2435 0 24.3131 1.68571 27.3137 4.68629C30.3143 7.68687 32 11.7565 32 16C32 20.2435 30.3143 24.3131 27.3137 27.3137C24.3131 30.3143 20.2435 32 16 32C11.7565 32 7.68687 30.3143 4.68629 27.3137C1.68571 24.3131 0 20.2435 0 16ZM11.7688 9.19375C11.2937 9.45625 11 9.9625 11 10.5V21.5C11 22.0438 11.2937 22.5437 11.7688 22.8062C12.2438 23.0688 12.8188 23.0625 13.2875 22.775L22.2875 17.275C22.7313 17 23.0063 16.5187 23.0063 15.9937C23.0063 15.4688 22.7313 14.9875 22.2875 14.7125L13.2875 9.2125C12.825 8.93125 12.2438 8.91875 11.7688 9.18125V9.19375Z" fill="#0065FF"/>
<path d="M13.2813 9.21876C12.8188 8.93751 12.2375 8.92501 11.7625 9.18751C11.2875 9.45001 10.9938 9.95626 10.9938 10.4938V21.5C10.9938 22.0438 11.2875 22.5438 11.7625 22.8063C12.2375 23.0688 12.8125 23.0625 13.2813 22.775L22.2813 17.275C22.725 17 23 16.5188 23 15.9938C23 15.4688 22.725 14.9875 22.2813 14.7125L13.2813 9.21251V9.21876Z" fill="#003E9C"/>
</g>
<defs>
<clipPath id="clip0_6003_2929">
<rect width="32" height="32" fill="white"/>
</clipPath>
</defs>
</svg>
