<svg width="28" height="32" viewBox="0 0 28 32" fill="none" xmlns="http://www.w3.org/2000/svg">
<g clip-path="url(#clip0_6003_2932)">
<path opacity="0.4" d="M7 9.5813C6.3875 9.85005 5.7125 10 5 10C4.2875 10 3.6125 9.85005 3 9.5813V22V22.4188C3.6125 22.15 4.2875 22 5 22C5.7125 22 6.3875 22.15 7 22.4188V22C7 19.7938 8.79375 18 11 18H17C21.4188 18 25 14.4188 25 10V9.5813C24.3875 9.85005 23.7125 10 23 10C22.2875 10 21.6125 9.85005 21 9.5813V10C21 12.2063 19.2062 14 17 14H11C9.54375 14 8.175 14.3875 7 15.0688V9.5813Z" fill="#0065FF"/>
<path d="M5 3.5C5.39782 3.5 5.77936 3.65804 6.06066 3.93934C6.34196 4.22064 6.5 4.60218 6.5 5C6.5 5.39782 6.34196 5.77936 6.06066 6.06066C5.77936 6.34196 5.39782 6.5 5 6.5C4.60218 6.5 4.22064 6.34196 3.93934 6.06066C3.65804 5.77936 3.5 5.39782 3.5 5C3.5 4.60218 3.65804 4.22064 3.93934 3.93934C4.22064 3.65804 4.60218 3.5 5 3.5ZM5 10C6.32608 10 7.59785 9.47322 8.53553 8.53553C9.47322 7.59785 10 6.32608 10 5C10 3.67392 9.47322 2.40215 8.53553 1.46447C7.59785 0.526784 6.32608 0 5 0C3.67392 0 2.40215 0.526784 1.46447 1.46447C0.526784 2.40215 0 3.67392 0 5C0 6.32608 0.526784 7.59785 1.46447 8.53553C2.40215 9.47322 3.67392 10 5 10ZM23 3.5C23.3978 3.5 23.7794 3.65804 24.0607 3.93934C24.342 4.22064 24.5 4.60218 24.5 5C24.5 5.39782 24.342 5.77936 24.0607 6.06066C23.7794 6.34196 23.3978 6.5 23 6.5C22.6022 6.5 22.2206 6.34196 21.9393 6.06066C21.658 5.77936 21.5 5.39782 21.5 5C21.5 4.60218 21.658 4.22064 21.9393 3.93934C22.2206 3.65804 22.6022 3.5 23 3.5ZM23 10C24.3261 10 25.5979 9.47322 26.5355 8.53553C27.4732 7.59785 28 6.32608 28 5C28 3.67392 27.4732 2.40215 26.5355 1.46447C25.5979 0.526784 24.3261 0 23 0C21.6739 0 20.4021 0.526784 19.4645 1.46447C18.5268 2.40215 18 3.67392 18 5C18 6.32608 18.5268 7.59785 19.4645 8.53553C20.4021 9.47322 21.6739 10 23 10ZM3.5 27C3.5 26.6022 3.65804 26.2206 3.93934 25.9393C4.22064 25.658 4.60218 25.5 5 25.5C5.39782 25.5 5.77936 25.658 6.06066 25.9393C6.34196 26.2206 6.5 26.6022 6.5 27C6.5 27.3978 6.34196 27.7794 6.06066 28.0607C5.77936 28.342 5.39782 28.5 5 28.5C4.60218 28.5 4.22064 28.342 3.93934 28.0607C3.65804 27.7794 3.5 27.3978 3.5 27ZM10 27C10 25.6739 9.47322 24.4021 8.53553 23.4645C7.59785 22.5268 6.32608 22 5 22C3.67392 22 2.40215 22.5268 1.46447 23.4645C0.526784 24.4021 0 25.6739 0 27C0 28.3261 0.526784 29.5979 1.46447 30.5355C2.40215 31.4732 3.67392 32 5 32C6.32608 32 7.59785 31.4732 8.53553 30.5355C9.47322 29.5979 10 28.3261 10 27Z" fill="#003E9C"/>
</g>
<defs>
<clipPath id="clip0_6003_2932">
<rect width="28" height="32" fill="white"/>
</clipPath>
</defs>
</svg>
