<svg width="30" height="25" viewBox="0 0 30 25" fill="none" xmlns="http://www.w3.org/2000/svg">
<g clip-path="url(#clip0_6020_4751)">
<path opacity="0.4" d="M9.75002 17C15.136 17 19.5 13.3062 19.5 8.75C19.5 4.19375 15.136 0.5 9.75002 0.5C4.36409 0.5 2.47408e-05 4.19375 2.47408e-05 8.75C2.47408e-05 10.5594 0.689087 12.2328 1.85627 13.5969C1.69221 14.0375 1.44846 14.4266 1.19065 14.7547C0.96565 15.0453 0.735962 15.2703 0.567212 15.425C0.482837 15.5 0.412525 15.5609 0.36565 15.5984C0.342212 15.6172 0.323462 15.6312 0.314087 15.6359L0.304712 15.6453C0.0468997 15.8375 -0.0656003 16.175 0.0375247 16.4797C0.14065 16.7844 0.426587 17 0.750025 17C1.7719 17 2.80315 16.7375 3.66096 16.4141C4.09221 16.25 4.49534 16.0672 4.84221 15.8797C6.28596 16.5922 7.9594 17 9.75002 17ZM6.3844 5.58125C6.69377 4.70938 7.51877 4.12344 8.4469 4.12344H10.7203C12.0844 4.12344 13.186 5.22969 13.186 6.58906C13.186 7.47031 12.7125 8.29062 11.9485 8.72656L10.6875 9.45312C10.6781 9.96406 10.261 10.3719 9.75002 10.3719C9.2344 10.3719 8.81252 9.95 8.81252 9.43438V8.91406C8.81252 8.57656 8.99065 8.26719 9.28127 8.10312L11.0156 7.10469C11.1985 6.99687 11.311 6.80469 11.311 6.59375C11.311 6.26562 11.0438 6.00312 10.7203 6.00312H8.4469C8.31565 6.00312 8.19846 6.0875 8.15159 6.20938L8.13284 6.25625C7.9594 6.74375 7.42502 7.00156 6.93752 6.82812C6.45002 6.65469 6.19221 6.12031 6.36565 5.63281L6.3844 5.58594V5.58125ZM8.49846 12.875C8.48801 12.7045 8.51257 12.5337 8.57063 12.3731C8.62868 12.2124 8.719 12.0654 8.83603 11.9409C8.95305 11.8165 9.09431 11.7174 9.25109 11.6496C9.40788 11.5818 9.57687 11.5469 9.74768 11.5469C9.91849 11.5469 10.0875 11.5818 10.2443 11.6496C10.4011 11.7174 10.5423 11.8165 10.6593 11.9409C10.7764 12.0654 10.8667 12.2124 10.9247 12.3731C10.9828 12.5337 11.0073 12.7045 10.9969 12.875C11.0073 13.0455 10.9828 13.2163 10.9247 13.3769C10.8667 13.5376 10.7764 13.6846 10.6593 13.8091C10.5423 13.9335 10.4011 14.0326 10.2443 14.1004C10.0875 14.1682 9.91849 14.2031 9.74768 14.2031C9.57687 14.2031 9.40788 14.1682 9.25109 14.1004C9.09431 14.0326 8.95305 13.9335 8.83603 13.8091C8.719 13.6846 8.62868 13.5376 8.57063 13.3769C8.51257 13.2163 8.48801 13.0455 8.49846 12.875Z" fill="#0065FF"/>
<path d="M6.38435 5.5813L6.3656 5.62817C6.19217 6.11567 6.44998 6.65005 6.93748 6.82349C7.42498 6.99692 7.95935 6.73911 8.13279 6.25161L8.15154 6.20474C8.19373 6.07817 8.3156 5.99849 8.44685 5.99849H10.7203C11.0484 5.99849 11.3109 6.26567 11.3109 6.58911C11.3109 6.80005 11.1984 6.99692 11.0156 7.10005L9.28123 8.09849C8.9906 8.26724 8.81248 8.57661 8.81248 8.90942V9.43442C8.81248 9.95005 9.23435 10.3719 9.74998 10.3719C10.2609 10.3719 10.6781 9.95942 10.6875 9.45317L11.9484 8.7313C12.7125 8.29067 13.1859 7.47505 13.1859 6.5938C13.1859 5.22974 12.0797 4.12817 10.7203 4.12817H8.44685C7.51873 4.12817 6.69373 4.70942 6.38435 5.58599V5.5813ZM11.0015 12.875C11.012 12.7046 10.9874 12.5337 10.9294 12.3731C10.8713 12.2125 10.781 12.0654 10.664 11.941C10.547 11.8166 10.4057 11.7174 10.2489 11.6497C10.0921 11.5819 9.92313 11.5469 9.75232 11.5469C9.58152 11.5469 9.41252 11.5819 9.25573 11.6497C9.09895 11.7174 8.95769 11.8166 8.84067 11.941C8.72364 12.0654 8.63332 12.2125 8.57527 12.3731C8.51721 12.5337 8.49266 12.7046 8.5031 12.875C8.49266 13.0455 8.51721 13.2164 8.57527 13.377C8.63332 13.5376 8.72364 13.6847 8.84067 13.8091C8.95769 13.9335 9.09895 14.0327 9.25573 14.1004C9.41252 14.1682 9.58152 14.2032 9.75232 14.2032C9.92313 14.2032 10.0921 14.1682 10.2489 14.1004C10.4057 14.0327 10.547 13.9335 10.664 13.8091C10.781 13.6847 10.8713 13.5376 10.9294 13.377C10.9874 13.2164 11.012 13.0455 11.0015 12.875ZM21 8.75005C21 14.0141 16.3547 17.9797 10.8515 18.4532C11.9906 21.9407 15.7687 24.5 20.25 24.5C22.0406 24.5 23.714 24.0922 25.1578 23.3797C25.5094 23.5625 25.9078 23.75 26.3437 23.9141C27.2015 24.2375 28.2328 24.5 29.2547 24.5C29.5781 24.5 29.8687 24.2891 29.9672 23.9797C30.0656 23.6704 29.9578 23.3329 29.6953 23.1407L29.6859 23.1313C29.6765 23.1219 29.6578 23.1125 29.6344 23.0938C29.5875 23.0563 29.5172 23 29.4328 22.9204C29.264 22.7657 29.0343 22.5407 28.8093 22.25C28.5515 21.9219 28.3078 21.5282 28.1437 21.0922C29.3109 19.7329 30 18.0594 30 16.2454C30 11.8954 26.0203 8.32817 20.9719 8.0188C20.9906 8.25786 21 8.50161 21 8.74536V8.75005Z" fill="#001833"/>
</g>
<defs>
<clipPath id="clip0_6020_4751">
<rect width="30" height="24" fill="white" transform="translate(0 0.5)"/>
</clipPath>
</defs>
</svg>
