  <svg
      width="20"
      height="20"
      viewBox="0 0 20 20"
      fill="none"
      xmlns="http://www.w3.org/2000/svg"
    >
      <path
        opacity="0.4"
        d="M18.75 2.8125C18.75 1.94922 18.0508 1.25 17.1875 1.25H12.8125C11.9492 1.25 11.25 1.94922 11.25 2.8125V7.1875C11.25 8.05078 11.9492 8.75 12.8125 8.75H17.1875C18.0508 8.75 18.75 8.05078 18.75 7.1875V2.8125ZM8.75 12.8125C8.75 11.9492 8.05078 11.25 7.1875 11.25H2.8125C1.94922 11.25 1.25 11.9492 1.25 12.8125V17.1875C1.25 18.0508 1.94922 18.75 2.8125 18.75H7.1875C8.05078 18.75 8.75 18.0508 8.75 17.1875V12.8125Z"
        fill="#2C2E30"
      />
      <path
        d="M8.75 3.125C8.75 2.08984 7.91016 1.25 6.875 1.25H3.125C2.08984 1.25 1.25 2.08984 1.25 3.125V6.875C1.25 7.91016 2.08984 8.75 3.125 8.75H6.875C7.91016 8.75 8.75 7.91016 8.75 6.875V3.125ZM18.75 13.125C18.75 12.0898 17.9102 11.25 16.875 11.25H13.125C12.0898 11.25 11.25 12.0898 11.25 13.125V16.875C11.25 17.9102 12.0898 18.75 13.125 18.75H16.875C17.9102 18.75 18.75 17.9102 18.75 16.875V13.125Z"
        fill="#2C2E30"
      />
    </svg>