<svg width="18" height="25" viewBox="0 0 18 25" fill="none" xmlns="http://www.w3.org/2000/svg">
<g clip-path="url(#clip0_6020_4721)">
<path opacity="0.4" d="M0 3.5C0 1.84531 1.34531 0.5 3 0.5H10.5V6.5C10.5 7.32969 11.1703 8 12 8H18V21.5C18 23.1547 16.6547 24.5 15 24.5H3C1.34531 24.5 0 23.1547 0 21.5V3.5ZM5.625 14.75C5.00156 14.75 4.5 15.2516 4.5 15.875C4.5 16.4984 5.00156 17 5.625 17H12.375C12.9984 17 13.5 16.4984 13.5 15.875C13.5 15.2516 12.9984 14.75 12.375 14.75H5.625Z" fill="#0065FF"/>
<path d="M18 8L10.5 0.5V6.5C10.5 7.32969 11.1703 8 12 8H18ZM5.625 14.75C5.00156 14.75 4.5 15.2516 4.5 15.875C4.5 16.4984 5.00156 17 5.625 17H12.375C12.9984 17 13.5 16.4984 13.5 15.875C13.5 15.2516 12.9984 14.75 12.375 14.75H5.625Z" fill="black"/>
</g>
<defs>
<clipPath id="clip0_6020_4721">
<rect width="18" height="24" fill="white" transform="translate(0 0.5)"/>
</clipPath>
</defs>
</svg>
