<svg width="18" height="25" viewBox="0 0 18 25" fill="none" xmlns="http://www.w3.org/2000/svg">
<g clip-path="url(#clip0_6002_5895)">
<path opacity="0.4" d="M15 3.5H3H1.5V4.01562C1.5 6.00313 2.29219 7.91094 3.69844 9.31719L6.87656 12.5L3.69844 15.6828C2.29219 17.0891 1.5 18.9969 1.5 20.9844V21.5H3H4.5H13.5H15H16.5V20.9844C16.5 18.9969 15.7078 17.0891 14.3016 15.6828L11.1234 12.5L14.3063 9.31719C15.7125 7.91094 16.5047 6.00313 16.5047 4.01562V3.5H15.0047H15Z" fill="#6BA6FF"/>
<path d="M1.5 0.5C0.670312 0.5 0 1.17031 0 2C0 2.82969 0.670312 3.5 1.5 3.5H16.5C17.3297 3.5 18 2.82969 18 2C18 1.17031 17.3297 0.5 16.5 0.5H1.5ZM1.5 21.5C0.670312 21.5 0 22.1703 0 23C0 23.8297 0.670312 24.5 1.5 24.5H16.5C17.3297 24.5 18 23.8297 18 23C18 22.1703 17.3297 21.5 16.5 21.5H1.5Z" fill="#0065FF"/>
</g>
<defs>
<clipPath id="clip0_6002_5895">
<rect width="18" height="24" fill="white" transform="translate(0 0.5)"/>
</clipPath>
</defs>
</svg>
