<svg width="30" height="25" viewBox="0 0 30 25" fill="none" xmlns="http://www.w3.org/2000/svg">
<path opacity="0.4" d="M27.1782 3.46254C29.8266 6.11098 29.8266 10.4 27.1782 13.0485L21.9141 18.3125C19.2657 20.961 14.9766 20.961 12.3282 18.3125C9.98442 15.9688 9.67973 12.275 11.6063 9.57973L11.6579 9.50473C12.1407 8.82973 13.0782 8.67504 13.7485 9.15786C14.4188 9.64067 14.5782 10.5782 14.0954 11.2485L14.0438 11.3235C12.9704 12.8282 13.1391 14.886 14.4469 16.1891C15.9235 17.6657 18.3141 17.6657 19.7907 16.1891L25.0547 10.9297C26.5313 9.45317 26.5313 7.06254 25.0547 5.58598C23.7516 4.27817 21.6891 4.10942 20.1891 5.18286L20.1141 5.23442C19.4391 5.71723 18.5016 5.55786 18.0235 4.88754C17.5454 4.21723 17.7 3.27504 18.3704 2.79692L18.4454 2.74536C21.1407 0.814106 24.8344 1.12348 27.1782 3.46254Z" fill="#0065FF"/>
<path d="M2.82178 21.5375C0.17334 18.8891 0.17334 14.6 2.82178 11.9516L8.08584 6.6875C10.7343 4.03906 15.0233 4.03906 17.6718 6.6875C20.0155 9.03125 20.3202 12.725 18.3937 15.4203L18.3421 15.4953C17.8593 16.1703 16.9218 16.325 16.2515 15.8422C15.5812 15.3594 15.4218 14.4219 15.9046 13.7516L15.9562 13.6766C17.0296 12.1719 16.8608 10.1141 15.553 8.80625C14.0765 7.32969 11.6858 7.32969 10.2093 8.80625L4.94522 14.0703C3.46865 15.5469 3.46865 17.9375 4.94522 19.4141C6.25303 20.7219 8.31084 20.8906 9.81084 19.8172L9.88584 19.7656C10.5608 19.2828 11.4983 19.4422 11.9765 20.1125C12.4546 20.7828 12.2999 21.725 11.6296 22.2031L11.5546 22.2547C8.85928 24.1859 5.16553 23.8766 2.82178 21.5375Z" fill="black"/>
</svg>
