<svg width="32" height="33" viewBox="0 0 32 33" fill="none" xmlns="http://www.w3.org/2000/svg">
<g clip-path="url(#clip0_6093_889)">
<path d="M13 4.5C14.1819 4.5 15.3522 4.73279 16.4442 5.18508C17.5361 5.63738 18.5282 6.30031 19.364 7.13604C20.1997 7.97177 20.8626 8.96392 21.3149 10.0558C21.7672 11.1478 22 12.3181 22 13.5C22 14.6819 21.7672 15.8522 21.3149 16.9442C20.8626 18.0361 20.1997 19.0282 19.364 19.864C18.5282 20.6997 17.5361 21.3626 16.4442 21.8149C15.3522 22.2672 14.1819 22.5 13 22.5C11.8181 22.5 10.6478 22.2672 9.55585 21.8149C8.46392 21.3626 7.47177 20.6997 6.63604 19.864C5.80031 19.0282 5.13738 18.0361 4.68508 16.9442C4.23279 15.8522 4 14.6819 4 13.5C4 12.3181 4.23279 11.1478 4.68508 10.0558C5.13738 8.96392 5.80031 7.97177 6.63604 7.13604C7.47177 6.30031 8.46392 5.63738 9.55585 5.18508C10.6478 4.73279 11.8181 4.5 13 4.5ZM13 26.5C16.4478 26.5 19.7544 25.1304 22.1924 22.6924C24.6304 20.2544 26 16.9478 26 13.5C26 10.0522 24.6304 6.74558 22.1924 4.30761C19.7544 1.86964 16.4478 0.5 13 0.5C9.55219 0.5 6.24558 1.86964 3.80761 4.30761C1.36964 6.74558 0 10.0522 0 13.5C0 16.9478 1.36964 20.2544 3.80761 22.6924C6.24558 25.1304 9.55219 26.5 13 26.5Z" fill="#E6F0FF"/>
<path d="M20.6688 24L28.5875 31.9125C29.3688 32.6937 30.6375 32.6937 31.4188 31.9125C32.2 31.1312 32.2 29.8624 31.4188 29.0812L23.5 21.1687C22.7063 22.25 21.75 23.2062 20.6688 24Z" fill="#003E9C"/>
</g>
<defs>
<clipPath id="clip0_6093_889">
<rect width="32" height="32" fill="white" transform="translate(0 0.5)"/>
</clipPath>
</defs>
</svg>
