<svg width="25" height="24" viewBox="0 0 25 24" fill="none" xmlns="http://www.w3.org/2000/svg">
<g clip-path="url(#clip0_12001_1648)">
<path d="M15.8516 3.99375L18.5 3L19.4938 0.351562C19.5734 0.140625 19.775 0 20 0C20.225 0 20.4266 0.140625 20.5062 0.351562L21.5 3L24.1484 3.99375C24.3594 4.07344 24.5 4.275 24.5 4.5C24.5 4.725 24.3594 4.92656 24.1484 5.00625L21.5 6L20.5062 8.64844C20.4266 8.85938 20.225 9 20 9C19.775 9 19.5734 8.85938 19.4938 8.64844L18.5 6L15.8516 5.00625C15.6406 4.92656 15.5 4.725 15.5 4.5C15.5 4.275 15.6406 4.07344 15.8516 3.99375ZM15.8516 18.9938L18.5 18L19.4938 15.3516C19.5734 15.1406 19.775 15 20 15C20.225 15 20.4266 15.1406 20.5062 15.3516L21.5 18L24.1484 18.9938C24.3594 19.0734 24.5 19.275 24.5 19.5C24.5 19.725 24.3594 19.9266 24.1484 20.0062L21.5 21L20.5062 23.6484C20.4266 23.8594 20.225 24 20 24C19.775 24 19.5734 23.8594 19.4938 23.6484L18.5 21L15.8516 20.0062C15.6406 19.9266 15.5 19.725 15.5 19.5C15.5 19.275 15.6406 19.0734 15.8516 18.9938Z" fill="#96C0FF"/>
<path d="M10.1141 3.43594C9.99219 3.16875 9.725 3 9.43438 3C9.14375 3 8.87656 3.16875 8.75469 3.43594L6.28438 8.78437L0.935938 11.25C0.66875 11.3719 0.5 11.6391 0.5 11.9344C0.5 12.2297 0.66875 12.4922 0.935938 12.6141L6.28438 15.0844L8.75 20.4281C8.87187 20.6953 9.13906 20.8641 9.42969 20.8641C9.72031 20.8641 9.9875 20.6953 10.1094 20.4281L12.5797 15.0797L17.9281 12.6094C18.1953 12.4875 18.3641 12.2203 18.3641 11.9297C18.3641 11.6391 18.1953 11.3719 17.9281 11.25L12.5844 8.78437L10.1141 3.43594Z" fill="#2B7FFF"/>
</g>
<defs>
<clipPath id="clip0_12001_1648">
<rect width="24" height="24" fill="white" transform="translate(0.5)"/>
</clipPath>
</defs>
</svg>
