<svg width="25" height="24" viewBox="0 0 25 24" fill="none" xmlns="http://www.w3.org/2000/svg">
<g clip-path="url(#clip0_12001_1663)">
<path d="M8.25781 13.5C8.65625 13.5 9.03594 13.6594 9.31719 13.9406L13.5594 18.1828C14.4031 19.0266 15.5469 19.5 16.7422 19.5H18.5V21C18.5 21.6047 18.8656 22.1531 19.4281 22.3875C19.9906 22.6219 20.6328 22.4906 21.0641 22.0641L24.0641 19.0641C24.3453 18.7828 24.5047 18.4031 24.5047 18.0047C24.5047 17.6063 24.3453 17.2266 24.0641 16.9453L21.0641 13.9453C20.6328 13.5141 19.9906 13.3875 19.4281 13.6219C18.8656 13.8563 18.5 14.4 18.5 15.0094V16.5094H16.7422C16.3438 16.5094 15.9641 16.35 15.6828 16.0687L11.6234 12L11.4406 12.1828C10.5969 13.0266 9.45312 13.5 8.25781 13.5Z" fill="#96C0FF"/>
<path d="M21.0594 1.94056C20.6281 1.50931 19.9859 1.38275 19.4234 1.61712C18.8609 1.8515 18.4953 2.39525 18.4953 3.00462V4.49993H16.7422C15.5469 4.49993 14.4031 4.97337 13.5594 5.81712L9.31719 10.0593C9.03594 10.3406 8.65625 10.4999 8.25781 10.4999H2C1.17031 10.4999 0.5 11.1702 0.5 11.9999C0.5 12.8296 1.17031 13.4999 2 13.4999H8.25781C9.45312 13.4999 10.5969 13.0265 11.4406 12.1827L15.6828 7.94056C15.9641 7.65931 16.3438 7.49993 16.7422 7.49993H18.5V8.99994C18.5 9.60462 18.8656 10.1531 19.4281 10.3874C19.9906 10.6218 20.6328 10.4906 21.0641 10.064L24.0641 7.064C24.3453 6.78275 24.5047 6.40306 24.5047 6.00462C24.5047 5.60618 24.3453 5.2265 24.0641 4.94525L21.0641 1.94525L21.0594 1.94056Z" fill="#2B7FFF"/>
</g>
<defs>
<clipPath id="clip0_12001_1663">
<rect width="24" height="24" fill="white" transform="translate(0.5)"/>
</clipPath>
</defs>
</svg>
