<svg width="28" height="33" viewBox="0 0 28 33" fill="none" xmlns="http://www.w3.org/2000/svg">
<g clip-path="url(#clip0_10113_6)">
<path d="M6 8.5C6 6.37827 6.84285 4.34344 8.34315 2.84315C9.84344 1.34285 11.8783 0.5 14 0.5C16.1217 0.5 18.1566 1.34285 19.6569 2.84315C21.1571 4.34344 22 6.37827 22 8.5C22 10.6217 21.1571 12.6566 19.6569 14.1569C18.1566 15.6571 16.1217 16.5 14 16.5C11.8783 16.5 9.84344 15.6571 8.34315 14.1569C6.84285 12.6566 6 10.6217 6 8.5Z" fill="#0065FF"/>
<path d="M0 30.6437C0 24.4875 4.9875 19.5 11.1438 19.5H16.8563C23.0125 19.5 28 24.4875 28 30.6437C28 31.6687 27.1687 32.5 26.1437 32.5H1.85625C0.83125 32.5 0 31.6687 0 30.6437Z" fill="#E6F0FF"/>
</g>
<defs>
<clipPath id="clip0_10113_6">
<rect width="28" height="32" fill="white" transform="translate(0 0.5)"/>
</clipPath>
</defs>
</svg>
