<svg width="277" height="160" viewBox="0 0 277 160" fill="none" xmlns="http://www.w3.org/2000/svg">
<rect width="275" height="160" fill="#DEFFDF"/>
<path d="M90.3499 71.6945L101.928 83.7445L102.167 83.5155L90.5889 71.4658L90.3499 71.6945Z" fill="#3366BC"/>
<path d="M136.375 56.8369H136.042V73.7101H136.375V56.8369Z" fill="#3366BC"/>
<path d="M164.601 94.7592L164.861 94.9642L177.459 78.5624L177.194 78.3644L164.601 94.7592Z" fill="#3366BC"/>
<path d="M212.264 106.221H191.589V106.556H212.264V106.221Z" fill="#3366BC"/>
<path d="M94.3823 95.7654H64.4363V96.0984H94.3823V95.7654Z" fill="#3366BC"/>
<path d="M194.439 118.75C197.96 97.3469 182.977 89.0904 168.056 90.947C168.056 90.947 162.929 67.7679 130.03 70.0327C89.6735 72.8047 92.2425 100.688 92.2425 100.688C76.2369 99.492 69.3486 110.8 70.141 121.841C43.8655 118.386 45.6554 140.142 55.1689 140.142H205.137C221.448 140.142 220.481 115.255 194.439 118.75Z" fill="#6AC4FC"/>
<path d="M104.958 90.2741H110.618V97.5963H110.946V89.9409H104.958V90.2741Z" fill="#3366BC"/>
<path d="M110.946 83.0973H110.619V90.1103H110.946V83.0973Z" fill="#3366BC"/>
<path d="M123.43 80.8374H123.095V85.9238L127.014 88.1834V96.0488H127.346V87.9956L123.43 85.7308V80.8374Z" fill="#3366BC"/>
<path d="M144.105 85.4063L139.019 88.3492V96.4074H139.347V88.5422L144.438 85.6009V81.0767H144.105V85.4063Z" fill="#3366BC"/>
<path d="M139.347 79.5342H139.019V88.4481H139.347V79.5342Z" fill="#3366BC"/>
<path d="M151.253 96.5269H151.586V87.7804H158.435V87.4473H151.253V96.5269Z" fill="#3366BC"/>
<path d="M171.674 107.532H162.118V107.865H171.809L175.67 103.998H183.151V103.668H175.537L171.674 107.532Z" fill="#3366BC"/>
<path d="M174.83 117.392H161.879V117.725H174.83V117.392Z" fill="#3366BC"/>
<path d="M172.43 126.306H161.52V126.639H172.243L174.666 130.835H183.032V130.506H174.859L172.43 126.306Z" fill="#3366BC"/>
<path d="M188.453 126.306H172.336V126.639H188.453V126.306Z" fill="#3366BC"/>
<path d="M85.6667 130.466H75.0104V130.799H85.8576L88.5361 126.161H99.6089V125.827H88.3448L85.6667 130.466Z" fill="#3366BC"/>
<path d="M87.9671 112.488H77.0344V112.821H87.7742L90.126 116.893H100.085V116.56H90.3208L87.9671 112.488Z" fill="#3366BC"/>
<path d="M90.888 120.775H82.8398V121.108H91.0774L93.5607 116.809L93.2722 116.644L90.888 120.775Z" fill="#3366BC"/>
<path d="M98.6626 106.934H89.2704V107.267H98.6626V106.934Z" fill="#3366BC"/>
<path d="M184.491 102.5C183.674 102.5 183.008 103.161 183.008 103.982C183.008 104.804 183.674 105.47 184.491 105.47C185.312 105.47 185.978 104.804 185.978 103.982C185.978 103.161 185.312 102.5 184.491 102.5Z" fill="#3366BC"/>
<path d="M176.115 116.047C175.293 116.047 174.63 116.709 174.63 117.53C174.63 118.352 175.293 119.014 176.115 119.014C176.936 119.014 177.602 118.352 177.602 117.53C177.602 116.708 176.936 116.047 176.115 116.047Z" fill="#3366BC"/>
<path d="M189.572 124.956C188.752 124.956 188.084 125.624 188.084 126.444C188.084 127.26 188.752 127.928 189.572 127.928C190.393 127.928 191.061 127.26 191.061 126.444C191.061 125.624 190.393 124.956 189.572 124.956Z" fill="#3366BC"/>
<path d="M184.376 129.117C183.554 129.117 182.888 129.785 182.888 130.601C182.888 131.421 183.554 132.089 184.376 132.089C185.192 132.089 185.86 131.421 185.86 130.601C185.86 129.785 185.192 129.117 184.376 129.117Z" fill="#3366BC"/>
<path d="M73.7944 129.117C73.3998 129.117 73.0223 129.273 72.744 129.551C72.4655 129.829 72.3085 130.207 72.3085 130.601C72.3085 130.994 72.4655 131.371 72.744 131.652C73.0223 131.93 73.3998 132.089 73.7944 132.089C74.6143 132.089 75.2787 131.421 75.2787 130.601C75.2787 129.785 74.6143 129.117 73.7944 129.117Z" fill="#3366BC"/>
<path d="M81.6084 119.452C80.7887 119.452 80.1224 120.117 80.1224 120.939C80.1224 121.755 80.7885 122.423 81.6084 122.423C82.003 122.423 82.3822 122.268 82.6607 121.989C82.939 121.711 83.0945 121.334 83.0945 120.939C83.0945 120.546 82.939 120.169 82.6607 119.889C82.382 119.611 82.003 119.452 81.6084 119.452Z" fill="#3366BC"/>
<path d="M77.9107 111.05C77.0908 111.05 76.4264 111.713 76.4264 112.533C76.4264 112.932 76.5834 113.31 76.86 113.588C77.1387 113.861 77.5194 114.022 77.9105 114.022C78.3051 114.022 78.6841 113.861 78.9626 113.588C79.2411 113.31 79.3983 112.932 79.3983 112.533C79.3983 111.713 78.7306 111.05 77.9107 111.05Z" fill="#3366BC"/>
<path d="M88.1311 105.585C87.3095 105.585 86.6453 106.247 86.6453 107.069C86.6453 107.89 87.3095 108.556 88.1311 108.556C88.9526 108.556 89.6137 107.89 89.6137 107.069C89.6137 106.247 88.9528 105.585 88.1311 105.585Z" fill="#3366BC"/>
<path d="M103.58 88.5234C102.759 88.5234 102.093 89.1846 102.093 90.006C102.093 90.8277 102.759 91.4937 103.58 91.4937C104.402 91.4937 105.064 90.8277 105.064 90.006C105.064 89.1846 104.402 88.5234 103.58 88.5234Z" fill="#3366BC"/>
<path d="M110.847 80.3695C110.026 80.3695 109.363 81.0374 109.363 81.8589C109.363 82.6751 110.026 83.3413 110.847 83.3413C111.669 83.3413 112.335 82.6751 112.335 81.8589C112.335 81.0374 111.669 80.3695 110.847 80.3695Z" fill="#3366BC"/>
<path d="M123.201 78.0211C122.38 78.0211 121.712 78.682 121.712 79.5037C121.712 80.3253 122.38 80.9878 123.201 80.9878C124.021 80.9878 124.684 80.3251 124.684 79.5037C124.684 78.6822 124.021 78.0211 123.201 78.0211Z" fill="#3366BC"/>
<path d="M139.084 76.9263C138.684 76.9263 138.307 77.0851 138.033 77.3584C137.75 77.6419 137.595 78.0158 137.595 78.4087C137.595 78.8067 137.75 79.1859 138.033 79.459C138.307 79.7425 138.684 79.8963 139.084 79.8963C139.904 79.8963 140.566 79.2301 140.566 78.4087C140.566 77.5924 139.904 76.9263 139.084 76.9263Z" fill="#3366BC"/>
<path d="M144.29 78.4395C143.897 78.4395 143.518 78.593 143.239 78.8715C142.961 79.1499 142.806 79.529 142.806 79.9219C142.806 80.3147 142.961 80.6939 143.239 80.9724C143.518 81.2507 143.897 81.4097 144.29 81.4097C145.111 81.4097 145.777 80.7435 145.777 79.9219C145.777 79.1056 145.111 78.4395 144.29 78.4395Z" fill="#3366BC"/>
<path d="M159.585 86.0845C158.764 86.0845 158.097 86.7506 158.097 87.5721C158.097 88.3884 158.764 89.0545 159.585 89.0545C160.407 89.0545 161.068 88.3884 161.068 87.5721C161.068 86.7506 160.407 86.0845 159.585 86.0845Z" fill="#3366BC"/>
<path d="M151.516 86.0845C150.695 86.0845 150.034 86.7506 150.034 87.5721C150.034 88.3884 150.695 89.0545 151.516 89.0545C152.338 89.0545 153.004 88.3884 153.004 87.5721C153.004 86.7506 152.338 86.0845 151.516 86.0845Z" fill="#3366BC"/>
<path d="M114.808 95.7499H106.825V101.13H114.808V95.7499Z" fill="#3366BC"/>
<path d="M130.945 95.7499H122.962V101.13H130.945V95.7499Z" fill="#3366BC"/>
<path d="M143.463 95.7499H135.485V101.13H143.463V95.7499Z" fill="#3366BC"/>
<path d="M155.732 95.7499H147.748V101.13H155.732V95.7499Z" fill="#3366BC"/>
<path d="M106.237 104.575H98.2595V109.95H106.237V104.575Z" fill="#3366BC"/>
<path d="M106.237 114.15H98.2595V119.532H106.237V114.15Z" fill="#3366BC"/>
<path d="M106.237 123.23H98.2595V128.605H106.237V123.23Z" fill="#3366BC"/>
<path d="M162.287 123.648H154.304V129.028H162.287V123.648Z" fill="#3366BC"/>
<path d="M162.287 105.077H154.304V110.452H162.287V105.077Z" fill="#3366BC"/>
<path d="M162.287 114.823H154.304V120.203H162.287V114.823Z" fill="#3366BC"/>
<path d="M159.933 98.5219H100.36V131.044H159.933V98.5219Z" fill="#4386F7"/>
<path d="M158.42 109.1H101.63V109.433H158.42V109.1Z" fill="#3366BC"/>
<path d="M158.42 119.855H101.63V120.188H158.42V119.855Z" fill="#3366BC"/>
<path d="M132.791 103.395C132.139 103.395 131.616 103.923 131.616 104.575C131.616 105.222 132.139 105.749 132.791 105.749C133.444 105.749 133.967 105.222 133.967 104.575C133.967 103.923 133.444 103.395 132.791 103.395Z" fill="#6AC4FC"/>
<path d="M139.849 103.395C139.203 103.395 138.676 103.923 138.676 104.575C138.676 105.222 139.203 105.749 139.849 105.749C140.502 105.749 141.029 105.222 141.029 104.575C141.029 103.923 140.501 103.395 139.849 103.395Z" fill="#6AC4FC"/>
<path d="M146.913 103.395C146.261 103.395 145.733 103.923 145.733 104.575C145.733 105.222 146.261 105.749 146.913 105.749C147.559 105.749 148.087 105.222 148.087 104.575C148.086 103.923 147.559 103.395 146.913 103.395Z" fill="#6AC4FC"/>
<path d="M109.772 114.051H104.899V116.251H109.772V114.051Z" fill="#6AC4FC"/>
<path d="M141.203 124.215H138.645V127.539H141.203V124.215Z" fill="#6AC4FC"/>
<path d="M145.987 124.215H143.429V127.539H145.987V124.215Z" fill="#6AC4FC"/>
<path d="M150.77 124.215H148.211V127.539H150.77V124.215Z" fill="#6AC4FC"/>
<path d="M63.6403 94.5798C62.8187 94.5798 62.1545 95.2425 62.1545 96.064C62.1545 96.8839 62.8187 97.5516 63.6403 97.5516C64.4618 97.5516 65.1264 96.8837 65.1264 96.064C65.1264 95.2425 64.4618 94.5798 63.6403 94.5798Z" fill="#3366BC"/>
<path d="M89.8323 69.5051C89.0143 69.5051 88.3497 70.1713 88.3497 70.9927C88.3497 71.8142 89.0141 72.4769 89.8323 72.4769C90.654 72.4769 91.3219 71.8142 91.3219 70.9927C91.3219 70.1711 90.654 69.5051 89.8323 69.5051Z" fill="#3366BC"/>
<path d="M136.25 54.1639C135.43 54.1639 134.768 54.8318 134.768 55.6532C134.768 56.4749 135.43 57.1358 136.25 57.1358C137.072 57.1358 137.734 56.4749 137.734 55.6532C137.734 54.8318 137.072 54.1639 136.25 54.1639Z" fill="#3366BC"/>
<path d="M177.831 76.3386C177.009 76.3386 176.343 77.0048 176.343 77.8262C176.343 78.6427 177.01 79.3104 177.831 79.3104C178.652 79.3104 179.314 78.6425 179.314 77.8262C179.314 77.0048 178.653 76.3386 177.831 76.3386Z" fill="#3366BC"/>
<path d="M213.598 104.859C212.776 104.859 212.115 105.525 212.115 106.341C212.115 107.163 212.776 107.83 213.598 107.83C214.419 107.83 215.08 107.163 215.08 106.341C215.08 105.525 214.419 104.859 213.598 104.859Z" fill="#3366BC"/>
<path d="M41.7902 79.3652C37.4005 79.3652 33.1887 81.1072 30.0853 84.2124C26.9803 87.3175 25.2381 91.5293 25.2381 95.9188C25.2381 100.308 26.9803 104.52 30.0853 107.625C33.1887 110.731 37.4005 112.473 41.7902 112.473C46.1832 112.473 50.39 110.731 53.4967 107.625C56.6001 104.52 58.3441 100.308 58.3441 95.9188C58.3441 91.5293 56.6003 87.3175 53.4967 84.2124C50.3898 81.1072 46.1832 79.3652 41.7902 79.3652Z" fill="#FFAE12"/>
<g clip-path="url(#clip0_2074_93)">
<path d="M48.9813 101.036L45.5302 98.1163L46.9444 96.7021C47.0381 96.7959 47.1653 96.8485 47.2979 96.8485C47.4305 96.8485 47.5577 96.7959 47.6515 96.7021L48.3586 95.995C48.4523 95.9012 48.505 95.7741 48.505 95.6415C48.505 95.5088 48.4523 95.3817 48.3586 95.2879L44.823 91.7522C44.7293 91.6584 44.6021 91.6057 44.4695 91.6057C44.3369 91.6057 44.2097 91.6584 44.1159 91.7522L43.4088 92.4593C43.3624 92.5057 43.3256 92.5608 43.3004 92.6215C43.2753 92.6821 43.2624 92.7472 43.2624 92.8128C43.2624 92.8785 43.2753 92.9435 43.3004 93.0042C43.3256 93.0649 43.3624 93.12 43.4088 93.1664L39.1662 97.409C39.1198 97.3626 39.0647 97.3257 39.004 97.3006C38.9433 97.2755 38.8783 97.2625 38.8126 97.2625C38.747 97.2625 38.682 97.2755 38.6213 97.3006C38.5606 97.3257 38.5055 97.3626 38.4591 97.409L37.752 98.1161C37.6582 98.2099 37.6055 98.337 37.6055 98.4697C37.6055 98.6023 37.6582 98.7294 37.752 98.8232L41.2875 102.359C41.3813 102.453 41.5085 102.505 41.6411 102.505C41.7737 102.505 41.9009 102.453 41.9946 102.359L42.7017 101.652C42.7955 101.558 42.8482 101.431 42.8482 101.298C42.8482 101.166 42.7955 101.038 42.7017 100.945L44.1159 99.5304L47.0359 102.981C47.1593 103.127 47.3115 103.245 47.4829 103.329C47.6543 103.413 47.8413 103.46 48.0319 103.468C48.2225 103.476 48.4127 103.444 48.5904 103.375C48.7682 103.305 48.9296 103.2 49.0645 103.065C49.1994 102.93 49.3049 102.769 49.3743 102.591C49.4436 102.413 49.4754 102.223 49.4675 102.032C49.4597 101.842 49.4124 101.655 49.3286 101.483C49.2449 101.312 49.1268 101.16 48.9813 101.036Z" fill="white"/>
<path d="M43.4998 88H35.4998C35.1023 88.0012 34.7215 88.1596 34.4404 88.4406C34.1594 88.7217 34.001 89.1025 33.9998 89.5V100.5C34.001 100.897 34.1594 101.278 34.4404 101.559C34.7215 101.84 35.1023 101.999 35.4998 102H39.5148L37.0448 99.53C36.9053 99.391 36.7947 99.2257 36.7192 99.0438C36.6437 98.862 36.6048 98.6669 36.6048 98.47C36.6048 98.2731 36.6437 98.078 36.7192 97.8962C36.7947 97.7143 36.9053 97.549 37.0448 97.41L37.4519 97H36.4998C36.3672 97 36.24 96.9473 36.1463 96.8536C36.0525 96.7598 35.9998 96.6326 35.9998 96.5C35.9998 96.3674 36.0525 96.2402 36.1463 96.1464C36.24 96.0527 36.3672 96 36.4998 96H37.4998C37.6324 96 37.7596 96.0527 37.8534 96.1464C37.9471 96.2402 37.9998 96.3674 37.9998 96.5L37.9995 96.5017C38.2664 96.3324 38.5791 96.2497 38.8948 96.265L40.2086 94.9512C40.1434 94.9826 40.0722 94.9993 39.9998 95H36.4998C36.3672 95 36.24 94.9473 36.1463 94.8536C36.0525 94.7598 35.9998 94.6326 35.9998 94.5C35.9998 94.3674 36.0525 94.2402 36.1463 94.1464C36.24 94.0527 36.3672 94 36.4998 94H39.9998C40.1324 94 40.2596 94.0527 40.3534 94.1464C40.4471 94.2402 40.4998 94.3674 40.4998 94.5C40.4991 94.5724 40.4824 94.6437 40.451 94.7088L42.2648 92.895C42.2542 92.6844 42.2874 92.474 42.3623 92.2769C42.4372 92.0798 42.5521 91.9004 42.6998 91.75L43.4098 91.045C43.6137 90.8409 43.8721 90.6998 44.1541 90.6387C44.436 90.5775 44.7296 90.5988 44.9998 90.7V89.5C44.9987 89.1025 44.8402 88.7217 44.5592 88.4406C44.2781 88.1596 43.8973 88.0012 43.4998 88ZM41.4998 93H36.4998C36.3672 93 36.24 92.9473 36.1463 92.8536C36.0525 92.7598 35.9998 92.6326 35.9998 92.5C35.9998 92.3674 36.0525 92.2402 36.1463 92.1464C36.24 92.0527 36.3672 92 36.4998 92H41.4998C41.6324 92 41.7596 92.0527 41.8534 92.1464C41.9471 92.2402 41.9998 92.3674 41.9998 92.5C41.9998 92.6326 41.9471 92.7598 41.8534 92.8536C41.7596 92.9473 41.6324 93 41.4998 93ZM42.4998 91H36.4998C36.3672 91 36.24 90.9473 36.1463 90.8536C36.0525 90.7598 35.9998 90.6326 35.9998 90.5C35.9998 90.3674 36.0525 90.2402 36.1463 90.1464C36.24 90.0527 36.3672 90 36.4998 90H42.4998C42.6324 90 42.7596 90.0527 42.8534 90.1464C42.9471 90.2402 42.9998 90.3674 42.9998 90.5C42.9998 90.6326 42.9471 90.7598 42.8534 90.8536C42.7596 90.9473 42.6324 91 42.4998 91Z" fill="white"/>
</g>
<path d="M41.7903 96.5219C40.9089 96.5219 40.1951 97.2377 40.1951 98.119C40.1951 98.5424 40.3606 98.9506 40.6595 99.2495C40.9621 99.5467 41.3666 99.7176 41.7905 99.7176C42.2154 99.7176 42.6206 99.5467 42.9193 99.2495C43.2217 98.9506 43.3874 98.5424 43.3874 98.119C43.3872 97.2375 42.6733 96.5219 41.7903 96.5219Z" fill="#FFDD19"/>
<path d="M75.4735 39.441C71.0838 39.441 66.8737 41.1882 63.7703 44.2951C60.6634 47.395 58.9196 51.6069 58.9196 55.9964C58.9196 60.3859 60.6636 64.5962 63.7703 67.7028C66.8737 70.808 71.0838 72.5502 75.4735 72.5502C79.863 72.5502 84.0715 70.808 87.1782 67.7028C90.2816 64.596 92.0288 60.3859 92.0288 55.9964C92.0288 51.6069 90.2816 47.3948 87.1782 44.2951C84.0715 41.1882 79.8628 39.441 75.4735 39.441Z" fill="#41C6CB"/>
<g clip-path="url(#clip1_2074_93)">
<path d="M75.8795 61.5668C75.4423 60.8246 75.2078 59.9784 75.2013 59.1197L75.192 57.8991C75.188 57.3693 75.5176 56.8994 76.0121 56.7298C76.2565 56.646 76.4683 56.4932 76.6243 56.288C76.8519 55.9888 77.2171 55.8084 77.6012 55.8056L79.2274 55.7936C79.2274 55.7933 79.2274 55.793 79.2274 55.7926V49.6836C79.2274 49.3067 78.9208 49 78.5438 49H69.0936C68.7166 49 68.41 49.3067 68.41 49.6836V62.3164C68.41 62.6933 68.7166 62.9999 69.0936 62.9999L77.1558 63C76.6419 62.6098 76.2069 62.1226 75.8795 61.5668ZM73.9132 58.6648H70.7474C70.5209 58.6648 70.3372 58.4811 70.3372 58.2546C70.3372 58.0281 70.5209 57.8444 70.7474 57.8444H73.9132C74.1397 57.8444 74.3234 58.0281 74.3234 58.2546C74.3234 58.4811 74.1397 58.6648 73.9132 58.6648ZM74.3234 59.8953C74.3234 60.1219 74.1397 60.3055 73.9132 60.3055H70.7474C70.5209 60.3055 70.3372 60.1219 70.3372 59.8953C70.3372 59.6688 70.5209 59.4852 70.7474 59.4852H73.9132C74.1397 59.4852 74.3234 59.6688 74.3234 59.8953ZM73.9132 57.2975H70.7474C70.5209 57.2975 70.3372 57.1138 70.3372 56.8873C70.3372 56.6608 70.5209 56.4772 70.7474 56.4772H73.9132C74.1397 56.4772 74.3234 56.6608 74.3234 56.8873C74.3234 57.1138 74.1397 57.2975 73.9132 57.2975ZM73.9132 55.6679H70.7474C70.5209 55.6679 70.3372 55.4842 70.3372 55.2577C70.3372 55.0312 70.5209 54.8476 70.7474 54.8476H73.9132C74.1397 54.8476 74.3234 55.0312 74.3234 55.2577C74.3234 55.4842 74.1397 55.6679 73.9132 55.6679ZM73.9132 54.0271H70.7474C70.5209 54.0271 70.3372 53.8435 70.3372 53.617C70.3372 53.3905 70.5209 53.2068 70.7474 53.2068H73.9132C74.1397 53.2068 74.3234 53.3905 74.3234 53.617C74.3234 53.8435 74.1397 54.0271 73.9132 54.0271ZM76.8641 52.3864H70.7474C70.5209 52.3864 70.3372 52.2028 70.3372 51.9763C70.3372 51.7498 70.5209 51.5661 70.7474 51.5661H76.8641C77.0907 51.5661 77.2743 51.7498 77.2743 51.9763C77.2743 52.2028 77.0907 52.3864 76.8641 52.3864Z" fill="white"/>
<path d="M79.5617 62.6347C80.8235 61.8878 81.6006 60.5228 81.5895 59.0726L81.5803 57.8518C81.5789 57.6753 81.4698 57.5214 81.3087 57.4688C80.9079 57.338 80.5586 57.0938 80.2987 56.7625C80.2229 56.6659 80.1 56.6085 79.9694 56.6085C79.9683 56.6085 79.9672 56.6085 79.9661 56.6085L77.6072 56.6259C77.4755 56.6269 77.3521 56.6863 77.2772 56.7847C77.0224 57.1197 76.677 57.3691 76.2783 57.5058C76.1179 57.5608 76.011 57.7164 76.0123 57.893L76.0216 59.1136C76.0326 60.5639 76.8303 61.9172 78.1034 62.6455L78.6286 62.9459C78.7564 63.019 78.9145 63.0179 79.0412 62.9428L79.5617 62.6347ZM77.5608 59.3427C77.7364 59.1997 77.9948 59.2262 78.1378 59.4018L78.5455 59.9027L79.7085 58.6662C79.8637 58.5012 80.1232 58.4932 80.2882 58.6484C80.4532 58.8036 80.4612 59.0632 80.306 59.2282L78.822 60.806C78.7444 60.8886 78.6362 60.9352 78.5233 60.9352C78.5184 60.9352 78.5135 60.9351 78.5086 60.9349C78.3905 60.9307 78.2798 60.8757 78.2052 60.784L77.5016 59.9198C77.3586 59.7441 77.3851 59.4857 77.5608 59.3427Z" fill="white"/>
</g>
<path d="M136.26 19C127.123 19 119.712 26.4109 119.712 35.5504C119.712 44.6933 127.123 52.1042 136.26 52.1042C140.652 52.1042 144.867 50.362 147.967 47.2568C151.074 44.15 152.816 39.9451 152.816 35.5504C152.816 31.1592 151.074 26.949 147.967 23.8491C144.867 20.742 140.652 19 136.26 19Z" fill="#FF4073"/>
<g clip-path="url(#clip2_2074_93)">
<path fill-rule="evenodd" clip-rule="evenodd" d="M140.5 33.3333C140.5 32.3207 139.679 31.5 138.666 31.5H133.333C132.32 31.5 131.5 32.3207 131.5 33.3333V38.6667C131.5 39.6793 132.32 40.5 133.333 40.5H138.666C139.679 40.5 140.5 39.6793 140.5 38.6667V33.3333ZM137.333 34.6667V37.3333C137.333 37.6093 137.557 37.8333 137.833 37.8333C138.109 37.8333 138.333 37.6093 138.333 37.3333V34.6667C138.333 34.3907 138.109 34.1667 137.833 34.1667C137.557 34.1667 137.333 34.3907 137.333 34.6667ZM136.666 37.3333V35.3333C136.666 34.6893 136.144 34.1667 135.5 34.1667H134.833C134.188 34.1667 133.666 34.6893 133.666 35.3333V37.3333C133.666 37.6093 133.89 37.8333 134.166 37.8333C134.442 37.8333 134.666 37.6093 134.666 37.3333V36.8333H135.666V37.3333C135.666 37.6093 135.89 37.8333 136.166 37.8333C136.442 37.8333 136.666 37.6093 136.666 37.3333ZM134.666 35.8333H135.666V35.3333C135.666 35.2413 135.592 35.1667 135.5 35.1667H134.833C134.741 35.1667 134.666 35.2413 134.666 35.3333V35.8333Z" fill="white"/>
<path fill-rule="evenodd" clip-rule="evenodd" d="M140 36.5H142.666C142.942 36.5 143.166 36.276 143.166 36C143.166 35.724 142.942 35.5 142.666 35.5H140C139.724 35.5 139.5 35.724 139.5 36C139.5 36.276 139.724 36.5 140 36.5Z" fill="white"/>
<path fill-rule="evenodd" clip-rule="evenodd" d="M136.5 32V29.3333C136.5 29.0573 136.276 28.8333 136 28.8333C135.724 28.8333 135.5 29.0573 135.5 29.3333V32C135.5 32.276 135.724 32.5 136 32.5C136.276 32.5 136.5 32.276 136.5 32Z" fill="white"/>
<path fill-rule="evenodd" clip-rule="evenodd" d="M135.5 40V42.6667C135.5 42.9427 135.724 43.1667 136 43.1667C136.276 43.1667 136.5 42.9427 136.5 42.6667V40C136.5 39.724 136.276 39.5 136 39.5C135.724 39.5 135.5 39.724 135.5 40Z" fill="white"/>
<path fill-rule="evenodd" clip-rule="evenodd" d="M132 35.5H129.333C129.057 35.5 128.833 35.724 128.833 36C128.833 36.276 129.057 36.5 129.333 36.5H132C132.276 36.5 132.5 36.276 132.5 36C132.5 35.724 132.276 35.5 132 35.5Z" fill="white"/>
<path fill-rule="evenodd" clip-rule="evenodd" d="M140 34.5H141.666C141.942 34.5 142.166 34.276 142.166 34C142.166 33.724 141.942 33.5 141.666 33.5H140C139.724 33.5 139.5 33.724 139.5 34C139.5 34.276 139.724 34.5 140 34.5Z" fill="white"/>
<path fill-rule="evenodd" clip-rule="evenodd" d="M134.5 32V30.3333C134.5 30.0573 134.276 29.8333 134 29.8333C133.724 29.8333 133.5 30.0573 133.5 30.3333V32C133.5 32.276 133.724 32.5 134 32.5C134.276 32.5 134.5 32.276 134.5 32Z" fill="white"/>
<path fill-rule="evenodd" clip-rule="evenodd" d="M133.5 40V41.6667C133.5 41.9427 133.724 42.1667 134 42.1667C134.276 42.1667 134.5 41.9427 134.5 41.6667V40C134.5 39.724 134.276 39.5 134 39.5C133.724 39.5 133.5 39.724 133.5 40Z" fill="white"/>
<path fill-rule="evenodd" clip-rule="evenodd" d="M132 33.5H130.333C130.057 33.5 129.833 33.724 129.833 34C129.833 34.276 130.057 34.5 130.333 34.5H132C132.276 34.5 132.5 34.276 132.5 34C132.5 33.724 132.276 33.5 132 33.5Z" fill="white"/>
<path fill-rule="evenodd" clip-rule="evenodd" d="M140 38.5H141.666C141.942 38.5 142.166 38.276 142.166 38C142.166 37.724 141.942 37.5 141.666 37.5H140C139.724 37.5 139.5 37.724 139.5 38C139.5 38.276 139.724 38.5 140 38.5Z" fill="white"/>
<path fill-rule="evenodd" clip-rule="evenodd" d="M138.5 32V30.3333C138.5 30.0573 138.276 29.8333 138 29.8333C137.724 29.8333 137.5 30.0573 137.5 30.3333V32C137.5 32.276 137.724 32.5 138 32.5C138.276 32.5 138.5 32.276 138.5 32Z" fill="white"/>
<path fill-rule="evenodd" clip-rule="evenodd" d="M137.5 40V41.6667C137.5 41.9427 137.724 42.1667 138 42.1667C138.276 42.1667 138.5 41.9427 138.5 41.6667V40C138.5 39.724 138.276 39.5 138 39.5C137.724 39.5 137.5 39.724 137.5 40Z" fill="white"/>
<path fill-rule="evenodd" clip-rule="evenodd" d="M132 37.5H130.333C130.057 37.5 129.833 37.724 129.833 38C129.833 38.276 130.057 38.5 130.333 38.5H132C132.276 38.5 132.5 38.276 132.5 38C132.5 37.724 132.276 37.5 132 37.5Z" fill="white"/>
</g>
<path d="M190.882 43.0314C181.739 43.0314 174.328 50.4423 174.328 59.5852C174.328 68.728 181.739 76.1389 190.882 76.1389C195.271 76.1389 199.482 74.3916 202.588 71.2865C205.688 68.1866 207.436 63.9745 207.436 59.5852C207.436 55.1955 205.688 50.9839 202.588 47.8788C199.482 44.7734 195.271 43.0314 190.882 43.0314Z" fill="#5C77FC"/>
<path d="M234.239 89C229.849 89 225.637 90.7421 222.532 93.8489C219.431 96.9541 217.683 101.164 217.683 105.555C217.683 114.698 225.096 122.109 234.239 122.109C243.382 122.109 250.793 114.698 250.793 105.555C250.793 101.164 249.051 96.9541 245.945 93.8489C242.838 90.7421 238.628 89 234.239 89Z" fill="#FF6E34"/>
<g clip-path="url(#clip3_2074_93)">
<path d="M227 111.833H235.166V113H227V111.833Z" fill="white"/>
<path d="M234 110.657C234 110.502 233.938 110.354 233.829 110.245C233.719 110.135 233.571 110.074 233.416 110.074H228.75C228.595 110.074 228.447 110.135 228.337 110.245C228.228 110.354 228.166 110.502 228.166 110.657V111.25H234V110.657Z" fill="white"/>
<path d="M234.937 105.888C234.665 106.178 234.437 106.505 234.26 106.861L239.062 111.663C239.171 111.772 239.32 111.833 239.474 111.833C239.629 111.833 239.777 111.772 239.887 111.663L240.712 110.838C240.766 110.783 240.809 110.719 240.838 110.648C240.867 110.578 240.882 110.502 240.882 110.425C240.882 110.349 240.867 110.273 240.838 110.202C240.809 110.131 240.766 110.067 240.712 110.013L235.91 105.213C235.554 105.388 235.226 105.615 234.937 105.888Z" fill="white"/>
<path d="M232.05 103.001C231.608 103.41 231.098 103.737 230.542 103.967L233.557 106.982C233.789 106.427 234.116 105.917 234.525 105.475C234.966 105.066 235.477 104.738 236.033 104.508L233.018 101.494C232.785 102.049 232.458 102.559 232.05 103.001Z" fill="white"/>
<path d="M234.111 99.2891L233.286 100.114C233.058 100.342 233.058 100.711 233.286 100.939L236.585 104.238C236.813 104.466 237.182 104.466 237.41 104.238L238.235 103.413C238.463 103.185 238.463 102.816 238.235 102.588L234.936 99.2891C234.708 99.0613 234.339 99.0613 234.111 99.2891Z" fill="white"/>
<path d="M229.161 104.238L228.336 105.063C228.109 105.29 228.109 105.66 228.336 105.888L231.636 109.187C231.863 109.415 232.233 109.415 232.461 109.187L233.285 108.362C233.513 108.134 233.513 107.765 233.285 107.537L229.986 104.238C229.758 104.01 229.389 104.01 229.161 104.238Z" fill="white"/>
</g>
<path d="M197.343 57.5864V57.2209C197.81 57.1119 198.162 56.6946 198.162 56.1955C198.162 55.6173 197.687 55.1428 197.106 55.1428C196.528 55.1428 196.053 55.6173 196.053 56.1955C196.053 56.6755 196.375 57.0764 196.814 57.2019V57.5864C196.814 57.8482 196.599 58.0637 196.337 58.0637H193.392V58.5928H196.337C196.891 58.5928 197.343 58.14 197.343 57.5864Z" fill="white"/>
<path d="M195.333 55.1182V54.7528C195.8 54.6437 196.152 54.2264 196.152 53.7273C196.152 53.1491 195.677 52.6773 195.096 52.6773C194.518 52.6773 194.043 53.1491 194.043 53.7273C194.043 54.2073 194.365 54.6082 194.804 54.7337V55.1182C194.804 55.38 194.589 55.5955 194.327 55.5955H193.392V56.1246H194.327C194.881 56.1246 195.333 55.6719 195.333 55.1182Z" fill="white"/>
<path d="M197.343 64.2136V63.8482C197.343 63.2945 196.891 62.8445 196.34 62.8445H193.394V63.3736H196.34C196.602 63.3736 196.817 63.5891 196.817 63.8509V64.2355C196.378 64.3636 196.056 64.7645 196.056 65.2418C196.056 65.82 196.531 66.2945 197.109 66.2945C197.69 66.2945 198.164 65.82 198.164 65.2418C198.159 64.74 197.807 64.3227 197.343 64.2136Z" fill="white"/>
<path d="M194.889 65.9755V65.61C194.889 65.0537 194.439 64.6064 193.885 64.6064H193.394V65.1355H193.885C194.147 65.1355 194.363 65.3482 194.363 65.6127V65.9946C193.926 66.1255 193.604 66.5237 193.604 67.0037C193.604 67.5818 194.076 68.0537 194.654 68.0537C195.235 68.0537 195.71 67.5818 195.71 67.0037C195.704 66.5018 195.355 66.0846 194.889 65.9755Z" fill="white"/>
<path d="M197.076 61.77C197.657 61.77 198.132 61.2955 198.132 60.7146C198.132 60.1364 197.657 59.6646 197.076 59.6646C196.591 59.6646 196.179 60 196.064 60.4527H193.394V60.9818H196.064C196.182 61.4346 196.588 61.77 197.076 61.77Z" fill="white"/>
<path d="M190.558 51.9491C189.298 51.9491 188.275 52.9718 188.275 54.2536C188.275 54.3846 188.297 54.5155 188.319 54.6436C188.079 54.5564 187.82 54.5127 187.536 54.5127C186.276 54.5127 185.253 55.5355 185.253 56.8173C185.253 56.9536 185.267 57.0846 185.292 57.2155C185.294 57.2182 185.3 57.2209 185.303 57.2236C185.69 57.6327 186.216 57.8564 186.783 57.8564C186.931 57.8564 187.048 57.9736 187.048 58.1209C187.048 58.2682 186.931 58.3855 186.783 58.3855C186.194 58.3855 185.641 58.1891 185.188 57.8318C184.392 58.1864 183.841 58.9827 183.841 59.9073C183.841 60.9736 184.58 61.8846 185.581 62.1246C185.363 62.4736 185.253 62.8636 185.253 63.2973C185.253 64.5355 186.276 65.58 187.536 65.58C187.651 65.58 187.765 65.5691 187.88 65.5527C188.144 64.7509 188.785 64.1346 189.601 63.9082C189.276 63.5973 189.036 63.1991 188.913 62.7518C188.676 62.9482 188.387 63.09 188.06 63.1527C188.043 63.1555 188.027 63.1582 188.011 63.1582C187.885 63.1582 187.776 63.0709 187.752 62.9427C187.724 62.7982 187.817 62.6618 187.962 62.6318C188.335 62.5609 188.641 62.3427 188.837 62.0509C188.848 62.01 188.867 61.9746 188.897 61.9446C189.042 61.6827 189.104 61.3718 189.05 61.0473C189.025 60.9027 189.123 60.7664 189.268 60.7418C189.413 60.7173 189.549 60.8155 189.573 60.96C189.65 61.4127 189.565 61.8491 189.361 62.2173C189.434 63.2727 190.307 64.0855 191.387 64.0855C191.534 64.0855 191.652 64.2027 191.652 64.35C191.652 64.4973 191.534 64.6146 191.387 64.6146C190.967 64.6146 190.572 64.5164 190.223 64.3418C189.263 64.3746 188.491 65.0646 188.316 65.9809C188.507 67.05 189.437 67.8627 190.561 67.8627C191.821 67.8627 192.865 66.84 192.865 65.58V59.7546C192.8 59.76 192.734 59.7682 192.672 59.7682C192.323 59.7682 191.979 59.6755 191.668 59.4982C191.303 59.2855 191.019 58.9691 190.847 58.5873C190.542 58.7646 190.198 58.8573 189.838 58.8573C189.803 58.8573 189.767 58.8573 189.732 58.8546C189.584 58.8464 189.473 58.7236 189.481 58.5764C189.489 58.4291 189.614 58.32 189.759 58.3255C190.154 58.3446 190.536 58.2109 190.831 57.9491C191.128 57.6846 191.303 57.3164 191.322 56.9155C191.33 56.7682 191.458 56.6564 191.6 56.6646C191.744 56.6727 191.859 56.7955 191.851 56.9427C191.826 57.4391 191.624 57.8946 191.286 58.2436C191.403 58.5791 191.627 58.86 191.935 59.0373C192.219 59.2009 192.543 59.2609 192.868 59.2173V54.2536C192.863 52.9691 191.818 51.9491 190.558 51.9491Z" fill="white"/>
<defs>
<clipPath id="clip0_2074_93">
<rect width="16" height="16" fill="white" transform="translate(33.9998 88)"/>
</clipPath>
<clipPath id="clip1_2074_93">
<rect width="14" height="14" fill="white" transform="translate(67.9998 49)"/>
</clipPath>
<clipPath id="clip2_2074_93">
<rect width="16" height="16" fill="white" transform="translate(128 28)"/>
</clipPath>
<clipPath id="clip3_2074_93">
<rect width="14" height="14" fill="white" transform="translate(227 99)"/>
</clipPath>
</defs>
</svg>
