<svg width="277" height="160" viewBox="0 0 277 160" fill="none" xmlns="http://www.w3.org/2000/svg">
<rect width="275" height="160" fill="#FFF2C0"/>
<path d="M153.361 43.3047L165.5 38.75L170.055 26.6113C170.42 25.6445 171.344 25 172.375 25C173.406 25 174.33 25.6445 174.695 26.6113L179.25 38.75L191.389 43.3047C192.355 43.6699 193 44.5938 193 45.625C193 46.6562 192.355 47.5801 191.389 47.9453L179.25 52.5L174.695 64.6387C174.33 65.6055 173.406 66.25 172.375 66.25C171.344 66.25 170.42 65.6055 170.055 64.6387L165.5 52.5L153.361 47.9453C152.395 47.5801 151.75 46.6562 151.75 45.625C151.75 44.5938 152.395 43.6699 153.361 43.3047ZM153.361 112.055L165.5 107.5L170.055 95.3613C170.42 94.3945 171.344 93.75 172.375 93.75C173.406 93.75 174.33 94.3945 174.695 95.3613L179.25 107.5L191.389 112.055C192.355 112.42 193 113.344 193 114.375C193 115.406 192.355 116.33 191.389 116.695L179.25 121.25L174.695 133.389C174.33 134.355 173.406 135 172.375 135C171.344 135 170.42 134.355 170.055 133.389L165.5 121.25L153.361 116.695C152.395 116.33 151.75 115.406 151.75 114.375C151.75 113.344 152.395 112.42 153.361 112.055Z" fill="url(#paint0_linear_2074_219)"/>
<path d="M127.064 40.748C126.506 39.5234 125.281 38.75 123.949 38.75C122.617 38.75 121.393 39.5234 120.834 40.748L109.512 65.2617L84.998 76.5625C83.7734 77.1211 83 78.3457 83 79.6992C83 81.0527 83.7734 82.2559 84.998 82.8145L109.512 94.1367L120.812 118.629C121.371 119.854 122.596 120.627 123.928 120.627C125.26 120.627 126.484 119.854 127.043 118.629L138.365 94.1152L162.879 82.793C164.104 82.2344 164.877 81.0098 164.877 79.6777C164.877 78.3457 164.104 77.1211 162.879 76.5625L138.387 65.2617L127.064 40.748Z" fill="url(#paint1_linear_2074_219)"/>
<defs>
<linearGradient id="paint0_linear_2074_219" x1="193" y1="80" x2="151.75" y2="80" gradientUnits="userSpaceOnUse">
<stop stop-color="#FEE701"/>
<stop offset="0.74873" stop-color="#48D3FC"/>
</linearGradient>
<linearGradient id="paint1_linear_2074_219" x1="164.877" y1="79.6885" x2="83" y2="79.6885" gradientUnits="userSpaceOnUse">
<stop stop-color="#FEE701"/>
<stop offset="0.74873" stop-color="#48D3FC"/>
</linearGradient>
</defs>
</svg>
