<svg width="275" height="160" viewBox="0 0 275 160" fill="none" xmlns="http://www.w3.org/2000/svg">
<g clip-path="url(#clip0_2074_35)">
<rect width="275" height="160" fill="#E3F5FF"/>
<path d="M198.376 71.3125V63.9625V60.8387C198.376 54.4075 192.974 50.7325 186.312 50.7325H50.8057C44.1429 50.7325 38.7413 45.3229 38.7413 38.6494V23.5375" stroke="#92BDD6" stroke-width="2" stroke-dasharray="6 2"/>
<path d="M41.2878 31.99H72.4035C82.6541 31.99 90.9636 40.3813 90.9636 50.7325V86.7475C90.9636 97.0989 82.6541 105.49 72.4035 105.49H41.2878" stroke="#7AE510" stroke-width="4"/>
<path d="M229.073 31.99H159.563C149.313 31.99 141.003 40.3813 141.003 50.7325V118.536" stroke="#11C399" stroke-width="4"/>
<path d="M230.165 91.8925H193.045C182.794 91.8925 174.485 100.284 174.485 110.635L174.484 126.805" stroke="#4C52B0" stroke-width="4"/>
<path d="M140.821 126.07H109.706C99.455 126.07 91.1456 117.679 91.1456 107.327V72.0475" stroke="#11C399" stroke-width="4"/>
<path d="M230.892 75.7225V107.144C230.892 117.495 222.583 125.886 212.332 125.886H146.462" stroke="#11C399" stroke-width="4"/>
<path d="M44.5633 71.3125H226.525" stroke="#7AE510" stroke-width="4"/>
<path d="M90.8668 63.1179L82.6669 71.3984L90.8668 79.679L99.0668 71.3984L90.8668 63.1179Z" fill="#EEA886"/>
<path d="M90.8668 63.1179L82.6669 71.3984L90.8668 79.679L99.0668 71.3984L90.8668 63.1179Z" stroke="white" stroke-width="6"/>
<path d="M141.088 116.968L131.99 126.156L141.088 135.344L150.187 126.156L141.088 116.968Z" fill="#EEA886"/>
<path d="M141.088 116.968L131.99 126.156L141.088 135.344L150.187 126.156L141.088 116.968Z" stroke="white" stroke-width="6"/>
<path d="M174.484 116.968L165.386 126.156L174.484 135.344L183.582 126.156L174.484 116.968Z" fill="#EEA886"/>
<path d="M174.484 116.968L165.386 126.156L174.484 135.344L183.582 126.156L174.484 116.968Z" stroke="white" stroke-width="6"/>
<path d="M236.661 64.9243C233.321 61.5516 227.906 61.5516 224.566 64.9243C221.226 68.2969 221.226 73.7651 224.566 77.1378C227.906 80.5104 233.321 80.5104 236.661 77.1378C240.001 73.7651 240.001 68.2969 236.661 64.9243Z" fill="#1576D8"/>
<path d="M236.661 64.9243C233.321 61.5516 227.906 61.5516 224.566 64.9243C221.226 68.2969 221.226 73.7651 224.566 77.1378C227.906 80.5104 233.321 80.5104 236.661 77.1378C240.001 73.7651 240.001 68.2969 236.661 64.9243Z" stroke="white" stroke-width="6"/>
<path d="M38.9225 41.1775C44.4497 41.1775 48.9304 36.6528 48.9304 31.0713C48.9304 25.4897 44.4497 20.965 38.9225 20.965C33.3952 20.965 28.9146 25.4897 28.9146 31.0713C28.9146 36.6528 33.3952 41.1775 38.9225 41.1775Z" fill="white"/>
<path d="M39.25 31.3071C40.5203 31.3071 41.55 30.2707 41.55 28.9921C41.55 27.7136 40.5203 26.6772 39.25 26.6772C37.9798 26.6772 36.95 27.7136 36.95 28.9921C36.95 30.2707 37.9798 31.3071 39.25 31.3071Z" fill="#1576D8"/>
<path d="M40.5898 31.3071H37.9102C36.7448 31.3071 35.8 31.9938 35.8 32.841V33.2456C35.8 34.0927 36.7448 34.7795 37.9102 34.7795H40.5898C41.7552 34.7795 42.7 34.0927 42.7 33.2456V32.841C42.7 31.9938 41.7552 31.3071 40.5898 31.3071Z" fill="#1576D8"/>
<path d="M225.434 101.048C225.434 98.6655 227.346 96.7339 229.706 96.7339H232.079C234.438 96.7339 236.351 98.6655 236.351 101.048V107.088C236.351 107.22 236.245 107.328 236.114 107.328H225.671C225.54 107.328 225.434 107.22 225.434 107.088V101.048Z" fill="white"/>
<path d="M234.69 92.0605C234.69 93.9796 233.043 95.5355 231.011 95.5355C228.979 95.5355 227.332 93.9796 227.332 92.0605C227.332 90.141 228.979 88.585 231.011 88.585C233.043 88.585 234.69 90.141 234.69 92.0605Z" fill="white"/>
<path fill-rule="evenodd" clip-rule="evenodd" d="M40.9909 59.7785L41.0237 61.2195C41.4782 61.3363 41.9157 61.4877 42.3348 61.6682L43.1148 60.5179C43.6467 60.7766 44.1494 61.0809 44.6182 61.4271L44.1105 62.6928C44.4802 62.9677 44.8247 63.2701 45.1429 63.5961L46.2024 62.8971C46.588 63.3444 46.932 63.8273 47.2307 64.3373L46.3789 65.201C46.6104 65.589 46.8111 65.9955 46.9776 66.4163L48.0755 66.1962C48.2621 66.7555 48.3998 67.3361 48.4843 67.9315L47.4862 68.3574C47.5461 68.7988 47.5705 69.2486 47.5574 69.7036L48.5665 69.8899C48.5457 70.264 48.5039 70.6407 48.4395 71.0203C48.4026 71.2372 48.3583 71.4514 48.3081 71.6627L47.2604 71.6855C47.1388 72.1258 46.9835 72.5499 46.7971 72.956L47.6754 73.5149C47.4258 74.0647 47.1295 74.5854 46.7929 75.0731L45.7386 74.6766C45.4548 75.0349 45.1427 75.369 44.8071 75.6773L45.4712 76.624C45.0412 77.0359 44.5756 77.4089 44.0818 77.7386L43.1505 76.8753C42.7499 77.0999 42.3297 77.2943 41.8954 77.4556L42.1692 78.7342C41.6221 78.9477 41.0546 79.113 40.473 79.2266L39.892 77.9495C39.4371 78.0076 38.9731 78.0308 38.5033 78.0179L38.2317 79.3975C37.8487 79.3824 37.4625 79.3449 37.0748 79.2832C36.8771 79.2516 36.6828 79.2137 36.4909 79.1715L36.4573 77.7305C36.003 77.6129 35.5653 77.4622 35.1462 77.2818L34.367 78.4321C33.8343 78.1733 33.3324 77.8683 32.8636 77.5229L33.3707 76.2565C33.0017 75.9816 32.6564 75.6799 32.3389 75.3543L31.2788 76.0521C30.8931 75.6049 30.5498 75.1231 30.2503 74.6126L31.1021 73.749C30.8706 73.3609 30.6708 72.9541 30.5036 72.533L29.4063 72.7542C29.219 72.1938 29.0821 71.6131 28.9976 71.0181L29.9949 70.5918C29.9349 70.1512 29.9105 69.7014 29.9236 69.2464L28.9146 69.0601C28.936 68.686 28.9772 68.3085 29.0415 67.9297C29.0784 67.7128 29.1227 67.4986 29.173 67.2865L30.2215 67.2637C30.3423 66.8235 30.4984 66.3994 30.6848 65.9933L29.8057 65.4343C30.0552 64.8853 30.3515 64.3645 30.689 63.8765L31.7426 64.2727C32.0262 63.9151 32.3384 63.5803 32.6747 63.2727L32.0098 62.326C32.4408 61.9133 32.9054 61.541 33.4 61.2114L34.3315 62.0739C34.7321 61.8497 35.1513 61.6557 35.5857 61.4936L35.3127 60.2151C35.8589 60.0023 36.4264 59.8369 37.008 59.7234L37.589 61.0004C38.0447 60.9424 38.5088 60.9189 38.9778 60.9313L39.2493 59.5525C39.6331 59.5676 40.0194 59.6043 40.4071 59.6664C40.604 59.6977 40.7983 59.7355 40.9909 59.7785Z" fill="white"/>
<path d="M37.4061 72.415L34.0095 68.5562L35.3484 67.3619L37.4908 69.8425L42.2218 65.4325L43.4715 66.9025L37.4061 72.415Z" fill="#05B317"/>
<path fill-rule="evenodd" clip-rule="evenodd" d="M210.579 115.638L210.612 117.079C211.067 117.196 211.504 117.348 211.923 117.528L212.703 116.378C213.235 116.637 213.738 116.941 214.207 117.287L213.699 118.553C214.069 118.828 214.413 119.13 214.731 119.456L215.791 118.757C216.177 119.204 216.52 119.687 216.819 120.197L215.967 121.061C216.199 121.449 216.4 121.855 216.566 122.276L217.664 122.056C217.851 122.615 217.988 123.196 218.073 123.791L217.075 124.217C217.134 124.659 217.159 125.109 217.146 125.564L218.155 125.75C218.134 126.124 218.092 126.501 218.028 126.88C217.991 127.097 217.947 127.311 217.896 127.523L216.849 127.545C216.727 127.986 216.572 128.41 216.385 128.816L217.264 129.375C217.014 129.925 216.718 130.445 216.381 130.933L215.327 130.537C215.043 130.895 214.731 131.229 214.395 131.537L215.06 132.484C214.629 132.896 214.164 133.269 213.67 133.599L212.739 132.735C212.338 132.96 211.918 133.154 211.484 133.316L211.757 134.594C211.21 134.808 210.643 134.973 210.062 135.087L209.48 133.81C209.025 133.868 208.561 133.891 208.092 133.878L207.82 135.257C207.437 135.242 207.051 135.205 206.663 135.143C206.466 135.112 206.271 135.074 206.079 135.031L206.046 133.59C205.591 133.473 205.154 133.322 204.734 133.142L203.955 134.292C203.423 134.033 202.921 133.728 202.452 133.383L202.959 132.116C202.59 131.842 202.245 131.54 201.927 131.214L200.867 131.912C200.482 131.465 200.138 130.983 199.839 130.473L200.69 129.609C200.459 129.221 200.259 128.814 200.092 128.393L198.995 128.614C198.808 128.054 198.67 127.473 198.586 126.878L199.583 126.452C199.523 126.011 199.499 125.561 199.512 125.106L198.503 124.92C198.524 124.546 198.566 124.169 198.63 123.79C198.667 123.573 198.711 123.359 198.761 123.147L199.81 123.124C199.931 122.683 200.087 122.259 200.273 121.853L199.394 121.294C199.643 120.745 199.94 120.225 200.277 119.736L201.331 120.133C201.614 119.775 201.927 119.44 202.263 119.133L201.598 118.186C202.029 117.773 202.494 117.401 202.988 117.071L203.92 117.934C204.32 117.71 204.739 117.516 205.174 117.354L204.901 116.075C205.447 115.862 206.015 115.697 206.596 115.583L207.177 116.86C207.633 116.802 208.097 116.779 208.566 116.791L208.838 115.412C209.222 115.428 209.608 115.464 209.996 115.526C210.193 115.558 210.387 115.595 210.579 115.638Z" fill="white"/>
<path d="M206.995 128.275L203.598 124.416L204.937 123.222L207.079 125.702L211.81 121.292L213.06 122.762L206.995 128.275Z" fill="#05B317"/>
<path d="M43.4715 99.9775H30.0063V108.063H43.4715V99.9775Z" fill="#EE3F3F"/>
<path d="M42.9984 102.366L36.7389 106.271L30.4794 102.366V100.804L36.7389 104.709L42.9984 100.804V102.366ZM42.9984 99.2425H30.4794C29.6109 99.2425 28.9146 99.9374 28.9146 100.804V110.176C28.9146 110.59 29.0794 110.987 29.3729 111.28C29.6663 111.573 30.0644 111.737 30.4794 111.737H42.9984C43.4134 111.737 43.8115 111.573 44.105 111.28C44.3984 110.987 44.5633 110.59 44.5633 110.176V100.804C44.5633 99.9374 43.8591 99.2425 42.9984 99.2425Z" fill="white"/>
<path d="M149.109 63.8585H134.034V78.6914H149.109V63.8585Z" fill="#F44848"/>
<path d="M146.174 71.275C146.174 71.4995 146.155 71.7241 146.127 71.9387L147.533 73.0706C147.656 73.1779 147.694 73.3536 147.609 73.5098L146.279 75.8713C146.193 76.0176 146.022 76.0764 145.87 76.0176L144.216 75.3348C143.874 75.6078 143.494 75.8324 143.086 76.008L142.848 77.8132C142.82 77.9793 142.677 78.1061 142.516 78.1061H139.855C139.693 78.1061 139.551 77.9793 139.522 77.8132L139.285 76.008C138.867 75.8324 138.496 75.6078 138.154 75.3348L136.5 76.0176C136.348 76.0764 136.177 76.0176 136.092 75.8713L134.762 73.5098C134.676 73.3536 134.714 73.1779 134.838 73.0706L136.244 71.9387C136.215 71.7241 136.196 71.4995 136.196 71.275C136.196 71.0508 136.215 70.8263 136.244 70.6117L134.838 69.4794C134.714 69.3721 134.676 69.1869 134.762 69.0406L136.092 66.6791C136.177 66.5229 136.348 66.4641 136.5 66.5229L138.154 67.2156C138.496 66.9422 138.867 66.7081 139.285 66.5423L139.522 64.7273C139.551 64.5711 139.693 64.4443 139.855 64.4443H142.516C142.677 64.4443 142.82 64.5711 142.848 64.7273L143.086 66.5423C143.494 66.7081 143.874 66.9422 144.216 67.2156L145.87 66.5229C146.022 66.4641 146.193 66.5229 146.279 66.6791L147.609 69.0406C147.694 69.1869 147.656 69.3721 147.533 69.4794L146.127 70.6117C146.155 70.8263 146.174 71.0508 146.174 71.275ZM147.837 62.4925H134.533C133.479 62.4925 132.633 63.3609 132.633 64.4443V78.1061C132.633 78.6235 132.833 79.12 133.19 79.4861C133.546 79.8521 134.029 80.0579 134.533 80.0579H147.837C148.341 80.0579 148.824 79.8521 149.181 79.4861C149.537 79.12 149.737 78.6235 149.737 78.1061V64.4443C149.737 63.3609 148.882 62.4925 147.837 62.4925ZM141.185 69.3236C140.13 69.3236 139.285 70.192 139.285 71.275C139.285 71.7928 139.485 72.2893 139.841 72.6553C140.198 73.0214 140.681 73.2268 141.185 73.2268C141.689 73.2268 142.172 73.0214 142.529 72.6553C142.885 72.2893 143.086 71.7928 143.086 71.275C143.086 70.192 142.23 69.3236 141.185 69.3236Z" fill="white"/>
<path d="M149.01 31.6225H142.095V39.34H149.01V31.6225Z" fill="#76D674"/>
<path d="M146.614 28.315C142.527 28.315 139.184 31.7603 139.184 35.9712C139.184 40.1822 142.527 43.6275 146.614 43.6275C150.7 43.6275 154.044 40.1822 154.044 35.9712C154.044 31.7603 150.7 28.315 146.614 28.315ZM146.985 36.7369H142.898V35.5885H145.871V32.1431H146.985V36.7369Z" fill="white"/>
<path d="M203.962 66.1675H192.68V75.7225H203.962V66.1675Z" fill="#92BDD6"/>
<path d="M197.047 74.9875L193.408 71.3125L194.434 70.2688L197.047 72.9075L202.572 67.3288L203.598 68.3725L197.047 74.9875ZM203.598 63.9625H193.408C192.6 63.9625 191.953 64.6167 191.953 65.4325V74.9361C191.953 75.4432 192.207 75.8916 192.593 76.1562L198.503 80.1325L204.406 76.1562C204.792 75.8916 205.054 75.4432 205.054 74.9361V65.4325C205.054 64.6167 204.399 63.9625 203.598 63.9625Z" fill="white"/>
<path d="M231.438 33.2762L230.892 26.6612L232.53 26.11L237.625 30.8875L237.079 32.725L231.438 33.2762Z" fill="#FFC328" stroke="black"/>
<path d="M232.227 31.3775V26.6612L236.897 31.3775H232.227ZM224.584 25.375C223.642 25.375 222.886 26.1382 222.886 27.09V39.095C222.886 39.5498 223.065 39.9861 223.384 40.3077C223.702 40.6293 224.134 40.81 224.584 40.81H236.472C236.923 40.81 237.355 40.6293 237.673 40.3077C237.992 39.9861 238.171 39.5498 238.171 39.095V30.52L233.076 25.375H224.584Z" fill="white"/>
</g>
<defs>
<clipPath id="clip0_2074_35">
<rect width="275" height="160" rx="10" fill="white"/>
</clipPath>
</defs>
</svg>
