<svg width="645" height="560" viewBox="0 0 645 560" fill="none" xmlns="http://www.w3.org/2000/svg">
<rect width="645" height="560" rx="30" fill="url(#paint0_linear_2134_2)"/>
<path d="M221.831 155.506H71.5802V135.277H221.831V155.506Z" fill="white"/>
<path d="M72.046 155.04H221.365V135.743H72.046V155.04ZM221.831 155.972H71.58C71.3224 155.972 71.114 155.763 71.114 155.506V135.277C71.114 135.021 71.3224 134.811 71.58 134.811H221.831C222.087 134.811 222.297 135.021 222.297 135.277V155.506C222.297 155.763 222.087 155.972 221.831 155.972Z" fill="black"/>
<path d="M221.831 182.094H71.5802V161.865H221.831V182.094Z" fill="white"/>
<path d="M72.046 181.628H221.365V162.331H72.046V181.628ZM221.831 182.56H71.58C71.3224 182.56 71.114 182.351 71.114 182.094V161.865C71.114 161.607 71.3224 161.399 71.58 161.399H221.831C222.087 161.399 222.297 161.607 222.297 161.865V182.094C222.297 182.351 222.087 182.56 221.831 182.56Z" fill="black"/>
<path d="M221.831 208.683H71.5802V188.453H221.831V208.683Z" fill="white"/>
<path d="M72.046 208.217H221.365V188.92H72.046V208.217ZM221.831 209.147H71.58C71.3224 209.147 71.114 208.939 71.114 208.681V188.454C71.114 188.195 71.3224 187.988 71.58 187.988H221.831C222.087 187.988 222.297 188.195 222.297 188.454V208.681C222.297 208.939 222.087 209.147 221.831 209.147Z" fill="black"/>
<path d="M414.653 381.922H207.147C204.221 381.922 201.851 379.551 201.851 376.626V109.572C201.851 106.647 204.221 104.276 207.147 104.276H414.653C417.578 104.276 419.948 106.647 419.948 109.572V376.626C419.948 379.551 417.578 381.922 414.653 381.922Z" fill="white"/>
<path d="M414.147 382.388H247.108C246.852 382.388 246.642 382.18 246.642 381.922C246.642 381.663 246.852 381.456 247.108 381.456H414.147C417.089 381.456 419.483 379.062 419.483 376.12V110.078C419.483 107.136 417.089 104.742 414.147 104.742H207.654C204.711 104.742 202.318 107.136 202.318 110.078V247.783C202.318 248.042 202.11 248.249 201.852 248.249C201.595 248.249 201.386 248.042 201.386 247.783V110.078C201.386 106.621 204.199 103.81 207.654 103.81H414.147C417.604 103.81 420.415 106.621 420.415 110.078V376.12C420.415 379.577 417.604 382.388 414.147 382.388Z" fill="black"/>
<path d="M213.191 370.583V115.613H408.61V370.583H213.191Z" fill="white"/>
<path d="M408.61 371.049H247.108C246.851 371.049 246.642 370.841 246.642 370.583C246.642 370.326 246.851 370.116 247.108 370.116H408.144V116.079H213.656V247.783C213.656 248.042 213.447 248.249 213.19 248.249C212.932 248.249 212.724 248.042 212.724 247.783V115.613C212.724 115.357 212.932 115.147 213.19 115.147H408.61C408.868 115.147 409.076 115.357 409.076 115.613V370.583C409.076 370.841 408.868 371.049 408.61 371.049Z" fill="black"/>
<path d="M369.998 126.473H251.802V86.4658H369.998V126.473Z" fill="white"/>
<path d="M252.268 126.007H369.532V86.932H252.268V126.007ZM369.998 126.939H251.802C251.544 126.939 251.336 126.73 251.336 126.473V86.466C251.336 86.2076 251.544 86 251.802 86H369.998C370.257 86 370.464 86.2076 370.464 86.466V126.473C370.464 126.73 370.257 126.939 369.998 126.939Z" fill="black"/>
<path d="M389.289 247.036H233.458V209.86H389.289V247.036Z" fill="#E2EAFF"/>
<path d="M389.289 297.211H233.458V260.033H389.289V297.211Z" fill="#E2EAFF"/>
<path d="M446.965 177.845H281.051V143.22H446.965V177.845Z" fill="#5479F7"/>
<path d="M268.083 177.845H233.458V143.22H268.083V177.845Z" fill="#5479F7"/>
<path d="M198.189 426.382H176.178C168.369 426.382 162.015 420.027 162.015 412.219V360.375C162.015 360.117 162.224 359.909 162.481 359.909C162.739 359.909 162.947 360.117 162.947 360.375V412.219C162.947 419.514 168.882 425.45 176.178 425.45H198.189C218.315 425.45 234.689 409.076 234.689 388.95C234.689 383.371 230.895 378.596 225.464 377.342C225.262 377.296 225.116 377.126 225.101 376.921C225.089 376.717 225.209 376.527 225.4 376.452C237.711 371.725 245.983 359.687 245.983 346.498C245.983 330.503 234.049 316.836 218.221 314.708C218.007 314.678 217.84 314.506 217.819 314.29C217.798 314.076 217.929 313.875 218.132 313.805C226.631 310.927 232.34 302.964 232.34 293.993C232.34 272.084 215.194 254.376 193.307 253.679C193.054 253.672 192.855 253.465 192.855 253.215V245.92C192.855 234.312 183.41 224.866 171.802 224.866C160.193 224.866 150.748 234.312 150.748 245.92V425.916C150.748 426.172 150.54 426.382 150.282 426.382C150.025 426.382 149.817 426.172 149.817 425.916V245.92C149.817 233.797 159.679 223.934 171.802 223.934C183.925 223.934 193.787 233.797 193.787 245.92V252.766C204.357 253.215 214.226 257.64 221.619 265.257C229.132 272.997 233.272 283.203 233.272 293.993C233.272 302.778 228.029 310.636 220.062 314.062C235.489 316.976 246.915 330.622 246.915 346.498C246.915 359.617 238.961 371.629 226.989 376.81C232.134 378.581 235.621 383.396 235.621 388.95C235.621 409.59 218.829 426.382 198.189 426.382Z" fill="#5479F7"/>
<path d="M225.567 377.355H205.302C205.044 377.355 204.836 377.145 204.836 376.889C204.836 376.63 205.044 376.423 205.302 376.423H225.567C225.826 376.423 226.033 376.63 226.033 376.889C226.033 377.145 225.826 377.355 225.567 377.355Z" fill="#5479F7"/>
<path d="M179.625 401.706C179.368 401.706 179.159 401.499 179.159 401.24V352.904C179.159 352.781 179.207 352.662 179.296 352.573L217.954 313.917C218.136 313.735 218.431 313.735 218.613 313.917C218.795 314.1 218.795 314.394 218.613 314.576L180.091 353.097V401.24C180.091 401.499 179.883 401.706 179.625 401.706Z" fill="#5479F7"/>
<path d="M169.98 330.306C169.86 330.306 169.741 330.262 169.65 330.171C169.468 329.989 169.468 329.694 169.65 329.512L192.855 306.307V253.215C192.855 252.956 193.063 252.749 193.321 252.749C193.578 252.749 193.787 252.956 193.787 253.215V306.499C193.787 306.624 193.739 306.743 193.65 306.83L170.309 330.171C170.218 330.262 170.099 330.306 169.98 330.306Z" fill="#5479F7"/>
<path d="M171.473 291.849C171.215 291.849 171.007 291.64 171.007 291.383V253.215C171.007 252.956 171.215 252.749 171.473 252.749H193.321C193.577 252.749 193.787 252.956 193.787 253.215C193.787 253.471 193.577 253.678 193.321 253.678H171.939V291.383C171.939 291.64 171.73 291.849 171.473 291.849Z" fill="#5479F7"/>
<path d="M165.772 294.599C165.772 297.747 168.324 300.299 171.473 300.299C174.622 300.299 177.174 297.747 177.174 294.599C177.174 291.449 174.622 288.896 171.473 288.896C168.324 288.896 165.772 291.449 165.772 294.599Z" fill="#5479F7"/>
<path d="M156.78 356.543C156.78 359.691 159.333 362.243 162.481 362.243C165.63 362.243 168.182 359.691 168.182 356.543C168.182 353.393 165.63 350.841 162.481 350.841C159.333 350.841 156.78 353.393 156.78 356.543Z" fill="#E2EAFF"/>
<path d="M195.289 376.889C195.289 380.037 197.841 382.589 200.989 382.589C204.139 382.589 206.691 380.037 206.691 376.889C206.691 373.739 204.139 371.186 200.989 371.186C197.841 371.186 195.289 373.739 195.289 376.889Z" fill="#5479F7"/>
<path d="M173.924 406.199C173.924 409.349 176.477 411.901 179.625 411.901C182.775 411.901 185.327 409.349 185.327 406.199C185.327 403.051 182.775 400.499 179.625 400.499C176.477 400.499 173.924 403.051 173.924 406.199Z" fill="#5479F7"/>
<path d="M187.807 326.485C187.689 326.485 187.568 326.441 187.477 326.349C187.295 326.167 187.295 325.873 187.477 325.691L209.869 303.299V279.104L198.221 267.458C198.041 267.276 198.041 266.981 198.221 266.799C198.403 266.617 198.699 266.617 198.882 266.799L210.665 278.583C210.752 278.67 210.801 278.788 210.801 278.911V303.491C210.801 303.614 210.752 303.733 210.665 303.822L188.136 326.349C188.045 326.441 187.926 326.485 187.807 326.485Z" fill="#5479F7"/>
<path d="M206.713 316.345C206.594 316.345 206.474 316.298 206.385 316.207C206.202 316.025 206.202 315.731 206.385 315.549L217.918 304.013V286.73C217.918 286.473 218.128 286.264 218.384 286.264C218.643 286.264 218.85 286.473 218.85 286.73V304.207C218.85 304.33 218.802 304.449 218.715 304.536L207.043 316.207C206.952 316.298 206.832 316.345 206.713 316.345Z" fill="#5479F7"/>
<path d="M223.407 372.275H209.202C208.943 372.275 208.736 372.068 208.736 371.809C208.736 371.553 208.943 371.343 209.202 371.343H223.214L238.209 356.35V337.875L228.41 328.074H220.619C209.005 339.279 191.679 356.244 190.754 357.824C190.728 357.969 190.635 358.1 190.489 358.168C190.256 358.276 189.978 358.172 189.873 357.939C189.669 357.498 189.523 357.181 204.91 342.067C212.4 334.708 220.03 327.347 220.106 327.273C220.193 327.19 220.31 327.142 220.43 327.142H228.603C228.725 327.142 228.844 327.192 228.931 327.279L239.003 337.352C239.092 337.438 239.141 337.557 239.141 337.682V356.543C239.141 356.666 239.092 356.784 239.003 356.871L223.737 372.14C223.648 372.226 223.532 372.275 223.407 372.275Z" fill="#5479F7"/>
<path d="M190.292 368.886C190.174 368.886 190.055 368.839 189.964 368.748C189.782 368.566 189.782 368.272 189.964 368.089L220.372 337.682C220.46 337.593 220.579 337.544 220.702 337.544H228.603C228.859 337.544 229.069 337.752 229.069 338.01C229.069 338.269 228.859 338.476 228.603 338.476H220.895L190.623 368.748C190.532 368.839 190.413 368.886 190.292 368.886Z" fill="#5479F7"/>
<path d="M159.652 289.363C159.394 289.363 159.186 289.155 159.186 288.897V249.175C159.186 249.052 159.235 248.934 159.323 248.845L170.292 237.877C170.379 237.79 170.497 237.741 170.621 237.741H184.622C184.878 237.741 185.088 237.949 185.088 238.205C185.088 238.463 184.878 238.671 184.622 238.671H170.814L160.118 249.368V288.897C160.118 289.155 159.91 289.363 159.652 289.363Z" fill="#5479F7"/>
<path d="M168.282 317.103C168.163 317.103 168.043 317.059 167.952 316.968C167.77 316.785 167.77 316.491 167.952 316.309L184.156 300.106V259.957C184.156 259.701 184.363 259.493 184.622 259.493C184.878 259.493 185.088 259.701 185.088 259.957V300.299C185.088 300.422 185.037 300.541 184.95 300.63L168.611 316.968C168.52 317.059 168.401 317.103 168.282 317.103Z" fill="#5479F7"/>
<path d="M206.691 366.628C206.571 366.628 206.452 366.584 206.361 366.492C206.179 366.31 206.179 366.016 206.361 365.834L224.781 347.411C224.963 347.229 225.26 347.229 225.44 347.411C225.622 347.593 225.622 347.888 225.44 348.07L207.02 366.492C206.929 366.584 206.81 366.628 206.691 366.628Z" fill="#5479F7"/>
<path d="M131.633 426.382C131.376 426.382 131.167 426.172 131.167 425.916V245.92C131.167 234.312 121.722 224.866 110.114 224.866C98.5049 224.866 89.0601 234.312 89.0601 245.92V253.215C89.0601 253.465 88.8605 253.672 88.6093 253.679C66.7219 254.376 49.5767 272.084 49.5767 293.993C49.5767 302.964 55.2856 310.927 63.7826 313.805C63.9874 313.875 64.1175 314.076 64.0965 314.29C64.0755 314.506 63.9097 314.678 63.6947 314.708C47.8673 316.836 35.932 330.503 35.932 346.498C35.932 359.687 44.2038 371.725 56.5149 376.452C56.7061 376.527 56.8271 376.717 56.8131 376.921C56.7985 377.126 56.6523 377.296 56.4526 377.342C51.021 378.598 47.2272 383.371 47.2272 388.95C47.2272 409.076 63.6006 425.45 83.7259 425.45H105.737C113.033 425.45 118.968 419.514 118.968 412.219V360.375C118.968 360.117 119.177 359.909 119.434 359.909C119.692 359.909 119.9 360.117 119.9 360.375V412.219C119.9 420.027 113.547 426.382 105.737 426.382H83.7259C63.0865 426.382 46.2954 409.59 46.2954 388.95C46.2954 383.396 49.7824 378.581 54.927 376.81C42.9542 371.629 35 359.617 35 346.498C35 330.622 46.4263 316.976 61.8531 314.062C53.8855 310.636 48.6449 302.778 48.6449 293.993C48.6449 283.203 52.7831 272.997 60.2968 265.257C67.6886 257.64 77.5576 253.215 88.1285 252.766V245.92C88.1285 233.797 97.9908 223.934 110.114 223.934C122.237 223.934 132.099 233.797 132.099 245.92V425.916C132.099 426.172 131.89 426.382 131.633 426.382Z" fill="#5479F7"/>
<path d="M76.6138 377.355H56.3474C56.0898 377.355 55.8816 377.145 55.8816 376.889C55.8816 376.63 56.0898 376.423 56.3474 376.423H76.6138C76.8713 376.423 77.0796 376.63 77.0796 376.889C77.0796 377.145 76.8713 377.355 76.6138 377.355Z" fill="#5479F7"/>
<path d="M102.29 401.706C102.033 401.706 101.824 401.499 101.824 401.24V353.097L63.3031 314.576C63.1211 314.394 63.1211 314.1 63.3031 313.917C63.4853 313.735 63.7799 313.735 63.9621 313.917L102.62 352.573C102.707 352.662 102.756 352.781 102.756 352.904V401.24C102.756 401.499 102.548 401.706 102.29 401.706Z" fill="#5479F7"/>
<path d="M111.936 330.306C111.817 330.306 111.698 330.262 111.607 330.171L88.2649 306.83C88.1774 306.743 88.1283 306.624 88.1283 306.499V253.215C88.1283 252.956 88.3367 252.749 88.5943 252.749C88.8519 252.749 89.0601 252.956 89.0601 253.215V306.307L112.265 329.512C112.447 329.694 112.447 329.989 112.265 330.171C112.174 330.262 112.055 330.306 111.936 330.306Z" fill="#5479F7"/>
<path d="M110.443 291.849C110.185 291.849 109.977 291.64 109.977 291.383V253.678H88.5941C88.3365 253.678 88.1283 253.471 88.1283 253.215C88.1283 252.956 88.3365 252.749 88.5941 252.749H110.443C110.7 252.749 110.909 252.956 110.909 253.215V291.383C110.909 291.64 110.7 291.849 110.443 291.849Z" fill="#5479F7"/>
<path d="M116.144 294.599C116.144 297.747 113.591 300.299 110.443 300.299C107.294 300.299 104.742 297.747 104.742 294.599C104.742 291.449 107.294 288.896 110.443 288.896C113.591 288.896 116.144 291.449 116.144 294.599Z" fill="#5479F7"/>
<path d="M125.135 356.543C125.135 359.691 122.582 362.243 119.434 362.243C116.285 362.243 113.733 359.691 113.733 356.543C113.733 353.393 116.285 350.841 119.434 350.841C122.582 350.841 125.135 353.393 125.135 356.543Z" fill="#E2EAFF"/>
<path d="M86.6265 376.889C86.6265 380.037 84.0742 382.589 80.9254 382.589C77.7769 382.589 75.2244 380.037 75.2244 376.889C75.2244 373.739 77.7769 371.186 80.9254 371.186C84.0742 371.186 86.6265 373.739 86.6265 376.889Z" fill="#5479F7"/>
<path d="M107.991 406.199C107.991 409.349 105.438 411.901 102.29 411.901C99.141 411.901 96.5883 409.349 96.5883 406.199C96.5883 403.051 99.141 400.499 102.29 400.499C105.438 400.499 107.991 403.051 107.991 406.199Z" fill="#5479F7"/>
<path d="M94.1085 326.485C93.9892 326.485 93.8702 326.441 93.7791 326.349L71.2506 303.822C71.1632 303.733 71.114 303.614 71.114 303.491V278.911C71.114 278.788 71.1632 278.67 71.2506 278.583L83.0345 266.799C83.2164 266.617 83.5113 266.617 83.6932 266.799C83.8752 266.981 83.8752 267.276 83.6932 267.458L72.046 279.104V303.299L94.4381 325.691C94.6198 325.873 94.6198 326.167 94.4381 326.349C94.347 326.441 94.2277 326.485 94.1085 326.485Z" fill="#5479F7"/>
<path d="M75.2025 316.345C75.0832 316.345 74.964 316.298 74.8731 316.207L63.2007 304.536C63.1134 304.449 63.0641 304.33 63.0641 304.207V286.73C63.0641 286.473 63.2725 286.264 63.5301 286.264C63.7877 286.264 63.9961 286.473 63.9961 286.73V304.013L75.5319 315.549C75.7141 315.731 75.7141 316.025 75.5319 316.207C75.4408 316.298 75.3215 316.345 75.2025 316.345Z" fill="#5479F7"/>
<path d="M72.7135 372.275H58.5079C58.3842 372.275 58.2658 372.226 58.1785 372.14L42.9106 356.871C42.8233 356.784 42.7742 356.666 42.7742 356.543V337.682C42.7742 337.557 42.8233 337.438 42.9106 337.352L52.9837 327.279C53.071 327.192 53.1894 327.142 53.3133 327.142H61.4845C61.605 327.142 61.7211 327.19 61.8079 327.273C61.8837 327.347 69.5145 334.708 77.0055 342.067C92.3916 357.181 92.2455 357.498 92.0425 357.939C91.9354 358.172 91.6591 358.274 91.4246 358.168C91.2806 358.1 91.1863 357.969 91.1605 357.824C90.2344 356.244 72.9092 339.279 61.2966 328.074H53.5061L43.706 337.875V356.35L58.7009 371.343H72.7135C72.9711 371.343 73.1795 371.553 73.1795 371.809C73.1795 372.068 72.9711 372.275 72.7135 372.275Z" fill="#5479F7"/>
<path d="M91.6227 368.886C91.5034 368.886 91.3841 368.839 91.2933 368.748L61.0211 338.476H53.3137C53.0561 338.476 52.8477 338.269 52.8477 338.01C52.8477 337.752 53.0561 337.544 53.3137 337.544H61.2141C61.3378 337.544 61.456 337.593 61.5435 337.682L91.952 368.089C92.134 368.272 92.134 368.566 91.952 368.748C91.8612 368.839 91.7419 368.886 91.6227 368.886Z" fill="#5479F7"/>
<path d="M122.263 289.363C122.005 289.363 121.797 289.155 121.797 288.897V249.368L111.101 238.671H97.2941C97.0367 238.671 96.8282 238.463 96.8282 238.205C96.8282 237.949 97.0367 237.741 97.2941 237.741H111.294C111.417 237.741 111.536 237.79 111.623 237.877L122.592 248.845C122.68 248.934 122.729 249.052 122.729 249.175V288.897C122.729 289.155 122.52 289.363 122.263 289.363Z" fill="#5479F7"/>
<path d="M113.633 317.103C113.514 317.103 113.395 317.059 113.304 316.968L96.9647 300.63C96.8774 300.541 96.8282 300.422 96.8282 300.299V259.957C96.8282 259.701 97.0367 259.493 97.2941 259.493C97.5516 259.493 97.7601 259.701 97.7601 259.957V300.106L113.963 316.309C114.145 316.491 114.145 316.785 113.963 316.968C113.872 317.059 113.753 317.103 113.633 317.103Z" fill="#5479F7"/>
<path d="M75.2241 366.628C75.1048 366.628 74.9858 366.584 74.8947 366.492L56.4737 348.07C56.2918 347.888 56.2918 347.593 56.4737 347.411C56.6557 347.229 56.9506 347.229 57.1325 347.411L75.5535 365.834C75.7354 366.016 75.7354 366.31 75.5535 366.492C75.4626 366.584 75.3433 366.628 75.2241 366.628Z" fill="#5479F7"/>
<path d="M102.29 417.83H72.6307C72.507 417.83 72.3888 417.782 72.3013 417.693L58.9195 404.312C58.8322 404.225 58.7831 404.106 58.7831 403.981V397.192C58.7831 397.069 58.8322 396.951 58.9195 396.864L70.9952 384.788C71.0825 384.701 71.2007 384.652 71.3246 384.652H91.6227C91.8801 384.652 92.0885 384.86 92.0885 385.118C92.0885 385.375 91.8801 385.584 91.6227 385.584H71.5176L59.7149 397.387V403.789L72.8237 416.898H102.29C102.548 416.898 102.756 417.106 102.756 417.364C102.756 417.621 102.548 417.83 102.29 417.83Z" fill="#5479F7"/>
<path d="M69.489 404.005C69.3698 404.005 69.2505 403.96 69.1597 403.869C68.9777 403.687 68.9777 403.392 69.1597 403.21L77.9379 394.43C78.0252 394.343 78.1434 394.294 78.2673 394.294H96.7081C96.9657 394.294 97.1739 394.502 97.1739 394.76C97.1739 395.017 96.9657 395.226 96.7081 395.226H78.46L69.8184 403.869C69.7273 403.96 69.6083 404.005 69.489 404.005Z" fill="#5479F7"/>
<path d="M91.6219 406.794H76.6135C76.3559 406.794 76.1475 406.585 76.1475 406.328C76.1475 406.07 76.3559 405.862 76.6135 405.862H91.6219C91.8793 405.862 92.0877 406.07 92.0877 406.328C92.0877 406.585 91.8793 406.794 91.6219 406.794Z" fill="#5479F7"/>
<path d="M211.976 417.83H182.317C182.06 417.83 181.851 417.621 181.851 417.364C181.851 417.106 182.06 416.898 182.317 416.898H211.784L224.893 403.789V397.387L213.091 385.584H192.984C192.728 385.584 192.518 385.375 192.518 385.118C192.518 384.86 192.728 384.652 192.984 384.652H213.283C213.406 384.652 213.525 384.701 213.612 384.788L225.688 396.864C225.775 396.951 225.825 397.069 225.825 397.192V403.981C225.825 404.106 225.775 404.225 225.688 404.312L212.307 417.693C212.22 417.782 212.101 417.83 211.976 417.83Z" fill="#5479F7"/>
<path d="M215.118 404.005C215 404.005 214.881 403.96 214.79 403.869L206.147 395.226H187.899C187.642 395.226 187.433 395.017 187.433 394.76C187.433 394.502 187.642 394.294 187.899 394.294H206.34C206.465 394.294 206.582 394.343 206.671 394.43L215.449 403.21C215.631 403.392 215.631 403.687 215.449 403.869C215.358 403.96 215.237 404.005 215.118 404.005Z" fill="#5479F7"/>
<path d="M207.994 406.794H192.984C192.728 406.794 192.518 406.585 192.518 406.328C192.518 406.07 192.728 405.862 192.984 405.862H207.994C208.25 405.862 208.46 406.07 208.46 406.328C208.46 406.585 208.25 406.794 207.994 406.794Z" fill="#5479F7"/>
<path d="M162.643 297.294H118.686L96.7084 335.361L118.686 373.428H162.643L184.622 335.361L162.643 297.294Z" fill="#5479F7"/>
<path d="M127.449 339.021H141.628L134.538 319.768L127.449 339.021ZM142.575 341.546H126.526L122.884 351.476H119.752L133.13 316.125H135.971L149.349 351.476H146.241L142.575 341.546Z" fill="white"/>
<path d="M158.186 351.476H155.2V316.125H158.186V351.476Z" fill="white"/>
<path d="M303.625 435.458H131.633C131.376 435.458 131.167 435.249 131.167 434.992V406.328C131.167 406.07 131.376 405.862 131.633 405.862C131.891 405.862 132.099 406.07 132.099 406.328V434.526H303.625C303.882 434.526 304.091 434.734 304.091 434.992C304.091 435.249 303.882 435.458 303.625 435.458Z" fill="#5479F7"/>
<path d="M303.625 429.424H228.603C228.344 429.424 228.137 429.214 228.137 428.958C228.137 428.699 228.344 428.491 228.603 428.491H303.625C303.881 428.491 304.091 428.699 304.091 428.958C304.091 429.214 303.881 429.424 303.625 429.424Z" fill="#5479F7"/>
<path d="M361.763 250.285C367.099 284.326 381.323 327.548 404.884 331.355C428.445 335.161 460.268 305.62 460.268 305.62L444.902 358.769H485.447L499.104 202.625L483.916 202.866C476.968 203.874 470.586 207.272 465.849 212.494C450.145 229.808 419.837 265.763 419.837 265.763C419.837 265.763 388.124 220.06 385.917 208.808C383.712 197.553 377.645 199.915 377.095 204.639C376.542 209.363 379.713 219.643 369.649 224.123C359.583 228.605 344.003 226.171 335.691 224.561C327.379 222.949 325.528 226.311 325.528 226.311C322.908 224.644 320.012 223.394 316.025 226.311C312.039 229.228 317.309 235.504 317.309 235.504C314.536 236.908 317.309 240.878 317.309 240.878C327.981 253.42 361.763 250.285 361.763 250.285Z" fill="white"/>
<path d="M445.522 358.303H485.021L498.595 203.099L483.953 203.33C477.141 204.326 470.835 207.692 466.194 212.807C450.676 229.918 420.495 265.704 420.192 266.064C420.099 266.174 419.953 266.238 419.813 266.229C419.669 266.223 419.535 266.149 419.453 266.03C418.156 264.16 387.66 220.115 385.459 208.897C384.031 201.616 381.301 201.138 380.481 201.18C379.041 201.235 377.783 202.745 377.556 204.694C377.444 205.658 377.492 206.868 377.547 208.266C377.763 213.593 378.058 220.89 369.837 224.549C362.459 227.834 350.94 227.993 335.602 225.017C327.8 223.506 325.949 226.51 325.932 226.54C325.868 226.65 325.763 226.73 325.638 226.76C325.515 226.79 325.383 226.773 325.277 226.703C322.841 225.154 320.143 223.875 316.3 226.686C315.55 227.234 315.135 227.931 315.027 228.813C314.688 231.615 317.637 235.169 317.667 235.203C317.758 235.313 317.794 235.458 317.766 235.597C317.736 235.737 317.645 235.856 317.518 235.919C317.023 236.171 316.722 236.525 316.603 237C316.228 238.487 317.677 240.59 317.692 240.611C328.059 252.791 361.385 249.853 361.72 249.821C361.959 249.794 362.186 249.97 362.224 250.213C367.695 285.13 382.169 327.214 404.958 330.895C428.027 334.626 459.634 305.574 459.952 305.279C460.104 305.137 460.335 305.114 460.513 305.224C460.691 305.334 460.773 305.548 460.716 305.75L445.522 358.303ZM485.447 359.235H444.901C444.755 359.235 444.618 359.165 444.529 359.049C444.442 358.932 444.412 358.78 444.454 358.64L459.369 307.048C456.73 309.363 450.028 315.006 441.661 320.308C432.81 325.92 420.438 332.154 409.181 332.154C407.701 332.154 406.241 332.045 404.809 331.815C393.947 330.061 384.275 320.147 376.065 302.352C367.458 283.699 363.181 262.213 361.37 250.785C357.202 251.126 327.125 253.134 316.955 241.181C316.857 241.045 315.22 238.673 315.699 236.775C315.841 236.205 316.15 235.739 316.622 235.383C315.803 234.297 313.786 231.321 314.102 228.702C314.239 227.565 314.794 226.635 315.75 225.934C319.865 222.924 322.897 224.142 325.415 225.69C326.222 224.786 328.87 222.763 335.778 224.104C350.927 227.04 362.258 226.902 369.458 223.699C377.1 220.295 376.821 213.364 376.617 208.304C376.56 206.865 376.509 205.622 376.63 204.584C376.914 202.148 378.52 200.324 380.445 200.25C381.716 200.197 384.847 200.928 386.374 208.717C388.414 219.117 416.422 259.989 419.872 264.999C423.484 260.72 450.941 228.239 465.506 212.182C470.297 206.897 476.813 203.425 483.85 202.404C483.869 202.4 483.89 202.4 483.909 202.4L499.097 202.161C499.213 202.161 499.355 202.212 499.444 202.309C499.535 202.404 499.58 202.536 499.567 202.667L485.911 358.81C485.892 359.051 485.688 359.235 485.447 359.235Z" fill="black"/>
<path d="M375.567 277.64C373.235 277.64 370.907 277.443 368.606 277.041C368.354 276.996 368.185 276.755 368.229 276.501C368.274 276.246 368.515 276.079 368.767 276.122C384.79 278.939 402.342 271.427 411.459 257.86C411.603 257.646 411.891 257.589 412.105 257.733C412.319 257.877 412.376 258.165 412.232 258.379C404.225 270.296 389.844 277.64 375.567 277.64Z" fill="black"/>
<path d="M433.251 290.127C433.088 290.127 432.929 290.04 432.844 289.888L419.702 266.352C419.577 266.125 419.658 265.844 419.882 265.716C420.107 265.591 420.391 265.672 420.516 265.897L433.657 289.432C433.782 289.659 433.702 289.941 433.477 290.068C433.405 290.108 433.327 290.127 433.251 290.127Z" fill="black"/>
<path d="M342.88 242.227C339.578 242.227 336.278 241.888 333.06 241.215C332.753 241.151 332.446 241.083 332.136 241.016C329.571 240.459 326.919 239.88 324.579 240.802C324.341 240.895 324.07 240.778 323.975 240.539C323.882 240.3 323.998 240.029 324.238 239.933C326.841 238.91 329.633 239.518 332.336 240.105C332.643 240.173 332.948 240.238 333.251 240.302C339.955 241.708 347.024 241.619 353.69 240.043C353.942 239.984 354.192 240.139 354.251 240.389C354.31 240.639 354.156 240.891 353.906 240.95C350.307 241.799 346.591 242.225 342.88 242.227Z" fill="black"/>
<path d="M348.358 231.187C341.268 231.187 334.134 230.211 327.362 228.289C327.114 228.219 326.97 227.963 327.04 227.715C327.11 227.467 327.368 227.321 327.616 227.393C336.902 230.028 346.882 230.865 356.473 229.817C356.731 229.789 356.958 229.973 356.986 230.23C357.013 230.486 356.829 230.715 356.573 230.744C353.857 231.041 351.112 231.187 348.358 231.187Z" fill="black"/>
<path d="M343.427 237.582C340.431 237.582 337.436 237.277 334.524 236.671C333.581 236.474 332.632 236.243 331.717 236.021C330.192 235.65 328.616 235.269 327.05 235.04C324.138 234.616 321.746 234.816 319.736 235.65C319.499 235.75 319.228 235.637 319.128 235.398C319.029 235.161 319.143 234.888 319.38 234.79C321.549 233.89 324.102 233.67 327.184 234.119C328.794 234.352 330.391 234.739 331.935 235.116C332.846 235.337 333.786 235.565 334.714 235.758C340.391 236.94 346.392 236.947 352.071 235.773C352.323 235.72 352.569 235.883 352.622 236.135C352.673 236.387 352.512 236.633 352.26 236.686C349.37 237.281 346.399 237.582 343.427 237.582Z" fill="black"/>
<path d="M461.492 303.347C461.458 303.347 461.424 303.343 461.388 303.335C461.138 303.277 460.981 303.027 461.038 302.778L467.239 275.497C467.296 275.245 467.546 275.088 467.796 275.145C468.046 275.202 468.204 275.452 468.147 275.702L461.947 302.983C461.896 303.199 461.706 303.347 461.492 303.347Z" fill="black"/>
<path d="M551.729 217.37L542.898 202.281C542.898 202.281 520.15 200.4 497.962 201.945C495.39 202.125 493.14 203.752 492.147 206.145L479.173 237.423C474.633 248.37 472.977 260.313 474.369 272.095L478.006 302.881L555.953 306.737L551.729 217.37Z" fill="#5479F7"/>
<path d="M585.206 358.769L580.758 310.602L593.535 302.881C593.535 302.881 593.397 253.299 578.987 228.484C563.221 201.335 535.408 200.712 535.408 200.712V358.769H585.206Z" fill="white"/>
<path d="M580.76 311.068C580.601 311.068 580.446 310.988 580.36 310.844C580.226 310.623 580.296 310.335 580.518 310.204L593.065 302.619C593.025 298.683 592.228 252.213 578.584 228.719C570.514 214.823 559.211 208.079 551.149 204.866C542.398 201.379 535.465 201.18 535.398 201.178C535.139 201.173 534.936 200.96 534.942 200.703C534.949 200.445 535.137 200.248 535.419 200.248C535.489 200.25 542.557 200.445 551.456 203.984C559.666 207.251 571.179 214.112 579.389 228.251C593.696 252.888 593.999 302.381 593.999 302.879C594.001 303.042 593.914 303.195 593.774 303.279L580.999 311.001C580.923 311.047 580.84 311.068 580.76 311.068Z" fill="black"/>
<path d="M548.533 166.299C546.311 161.562 543.627 156.932 540.64 152.526C537.579 148.008 534.114 143.68 529.949 139.869C526.183 136.421 521.762 133.421 516.914 131.165C516.098 130.543 515.27 129.933 514.412 129.354C505.369 123.249 493.642 119.676 482.21 122.167C476.906 123.324 471.886 125.728 468.37 129.407C465.11 132.818 463.144 137.147 462.898 141.572C462.663 145.824 464.258 149.844 467.253 153.191C470.007 156.271 473.633 158.66 477.12 161.077C480.446 163.382 483.943 165.773 486.209 168.953C487.364 170.569 488.122 172.367 488.328 174.265C488.654 177.246 487.813 180.192 487.472 183.141C486.947 187.691 488.014 193.109 493.458 195.079C496.345 196.126 499.614 196.196 502.694 196.399C506.252 196.634 509.813 196.84 513.378 196.986C519.377 197.234 525.467 197.545 531.453 196.958C536.444 196.471 541.612 195.293 545.576 192.497C549.778 189.53 551.979 185.098 552.11 180.446C552.248 175.572 550.632 170.777 548.533 166.299Z" fill="black"/>
<path d="M512.73 171.439L532.099 201.658L496.803 240.736L500.243 205.175L506.746 201.5L495.356 182.927L512.73 171.439Z" fill="white"/>
<path d="M503.789 203.637C503.626 203.637 503.467 203.552 503.382 203.402C503.255 203.177 503.334 202.894 503.558 202.767L506.096 201.332L494.958 183.171C494.827 182.957 494.89 182.677 495.098 182.539L512.474 171.05C512.578 170.98 512.707 170.957 512.828 170.982C512.948 171.008 513.056 171.082 513.124 171.188L532.491 201.407C532.631 201.625 532.568 201.913 532.351 202.051C532.135 202.19 531.845 202.127 531.708 201.911L512.592 172.088L495.987 183.067L507.142 201.256C507.208 201.364 507.229 201.493 507.197 201.616C507.165 201.739 507.085 201.843 506.975 201.904L504.018 203.578C503.944 203.618 503.865 203.637 503.789 203.637Z" fill="black"/>
<path d="M516.712 173.992C516.712 173.992 507.121 189.676 488.205 187.303C469.342 184.939 485.854 143.72 485.854 143.72C485.854 143.72 488.116 148.461 497.89 147.732C507.663 147.002 513.999 149.008 509.834 159.037C505.672 169.067 514.922 164.685 514.922 164.685C514.922 164.685 523.861 156.03 527.393 161.956C530.922 167.883 524.768 175.634 516.712 173.992Z" fill="white"/>
<path d="M485.971 144.716C484.206 149.406 475.871 172.836 481.645 182.633C483.071 185.054 485.299 186.471 488.265 186.842C489.557 187.005 490.809 187.079 492.014 187.079C507.966 187.081 516.228 173.893 516.317 173.749C516.418 173.581 516.615 173.494 516.806 173.535C520.593 174.306 524.396 172.884 526.505 169.915C528.236 167.477 528.418 164.589 526.993 162.194C526.353 161.12 525.51 160.527 524.417 160.383C520.612 159.87 515.3 164.969 515.247 165.019C515.209 165.055 515.166 165.083 515.122 165.106C514.688 165.312 510.832 167.068 509.076 165.392C507.926 164.299 508.034 162.162 509.405 158.859C510.93 155.189 511.07 152.45 509.82 150.723C508.244 148.544 504.351 147.715 497.924 148.196C490.326 148.76 487.114 146.108 485.971 144.716ZM492.014 188.011C490.771 188.011 489.483 187.935 488.148 187.767C484.882 187.356 482.422 185.789 480.842 183.105C474.21 171.853 484.96 144.697 485.422 143.547C485.492 143.375 485.655 143.261 485.839 143.254C486.013 143.231 486.195 143.352 486.276 143.519C486.295 143.561 488.572 147.959 497.856 147.266C504.728 146.754 508.769 147.679 510.576 150.177C512.046 152.212 511.945 155.169 510.265 159.217C509.093 162.041 508.905 163.943 509.718 164.719C510.799 165.746 513.582 164.788 514.656 164.295C515.291 163.691 520.466 158.912 524.538 159.459C525.914 159.641 527.007 160.402 527.793 161.717C529.414 164.439 529.217 167.705 527.266 170.453C525.001 173.643 520.973 175.212 516.933 174.507C515.626 176.443 507.183 188.011 492.014 188.011Z" fill="black"/>
<path d="M516.562 169.931C516.439 169.931 516.318 169.883 516.225 169.787C516.047 169.601 516.054 169.306 516.24 169.129C517.858 167.576 520.068 166.631 522.3 166.534C522.557 166.523 522.775 166.722 522.788 166.979C522.798 167.237 522.599 167.453 522.341 167.464C520.333 167.55 518.341 168.404 516.884 169.8C516.795 169.887 516.679 169.931 516.562 169.931Z" fill="black"/>
<path d="M533.792 108.661C529.479 105.647 524.024 107.833 520.944 111.544C519.328 113.49 518.222 115.884 517.417 118.273C517.062 119.328 516.801 120.476 516.75 121.62C516.697 121.913 516.657 122.205 516.623 122.489C516.485 123.639 516.57 124.829 516.983 125.916C517.75 127.937 519.633 129.178 521.694 129.545C526.926 130.475 531.75 125.797 534.34 121.745C535.709 119.608 536.795 117.138 536.814 114.556C536.831 112.194 535.721 110.01 533.792 108.661Z" fill="black"/>
<path d="M492.13 473.174H311.784V319.245H492.13V473.174Z" fill="white"/>
<path d="M312.251 472.708H491.665V319.711H312.251V472.708ZM492.597 473.64H311.319V318.779H492.597V473.64Z" fill="black"/>
<path d="M329.444 404.954C333.475 414.494 342.919 421.19 353.927 421.19C364.934 421.19 374.379 414.494 378.408 404.954H329.444Z" fill="white"/>
<path d="M330.158 405.419C334.39 414.739 343.645 420.723 353.927 420.723C364.209 420.723 373.461 414.739 377.696 405.419H330.158ZM353.927 421.655C343.033 421.655 333.255 415.169 329.016 405.133C328.955 404.991 328.97 404.826 329.056 404.695C329.143 404.565 329.287 404.487 329.444 404.487H378.407C378.564 404.487 378.71 404.565 378.797 404.695C378.882 404.826 378.899 404.991 378.837 405.133C374.599 415.169 364.819 421.655 353.927 421.655Z" fill="black"/>
<path d="M378.41 401.537C378.228 401.537 378.058 401.433 377.982 401.257L353.927 345.894L329.872 401.257C329.771 401.492 329.495 401.602 329.258 401.499C329.023 401.397 328.915 401.121 329.017 400.886L353.499 344.539C353.573 344.369 353.741 344.259 353.927 344.259C354.111 344.259 354.281 344.369 354.353 344.539L378.836 400.886C378.939 401.121 378.829 401.397 378.594 401.499C378.533 401.524 378.471 401.537 378.41 401.537Z" fill="black"/>
<path d="M425.505 404.954C429.536 414.494 438.979 421.19 449.987 421.19C460.994 421.19 470.439 414.494 474.468 404.954H425.505Z" fill="white"/>
<path d="M426.219 405.419C430.451 414.739 439.706 420.723 449.988 420.723C460.27 420.723 469.522 414.739 473.754 405.419H426.219ZM449.988 421.655C439.093 421.655 429.316 415.169 425.077 405.133C425.016 404.991 425.03 404.826 425.117 404.695C425.204 404.565 425.348 404.487 425.505 404.487H474.468C474.625 404.487 474.771 404.565 474.856 404.695C474.943 404.826 474.958 404.991 474.898 405.133C470.66 415.169 460.88 421.655 449.988 421.655Z" fill="black"/>
<path d="M474.468 401.537C474.287 401.537 474.116 401.433 474.04 401.257L449.987 345.894L425.932 401.257C425.83 401.492 425.555 401.602 425.32 401.498C425.083 401.397 424.975 401.121 425.076 400.886L449.559 344.539C449.633 344.369 449.801 344.259 449.987 344.259C450.171 344.259 450.339 344.369 450.413 344.539L474.895 400.886C474.997 401.121 474.889 401.397 474.654 401.498C474.593 401.524 474.529 401.537 474.468 401.537Z" fill="black"/>
<path d="M454.555 339.665H349.36C349.102 339.665 348.894 339.457 348.894 339.199C348.894 338.942 349.102 338.733 349.36 338.733H454.555C454.811 338.733 455.021 338.942 455.021 339.199C455.021 339.457 454.811 339.665 454.555 339.665Z" fill="black"/>
<path d="M401.956 452.205C401.7 452.205 401.49 451.997 401.49 451.739V334.257C401.49 334 401.7 333.791 401.956 333.791C402.215 333.791 402.422 334 402.422 334.257V451.739C402.422 451.997 402.215 452.205 401.956 452.205Z" fill="black"/>
<path d="M430.021 458.626H373.894C373.635 458.626 373.428 458.418 373.428 458.16C373.428 457.903 373.635 457.694 373.894 457.694H430.021C430.277 457.694 430.485 457.903 430.485 458.16C430.485 458.418 430.277 458.626 430.021 458.626Z" fill="black"/>
<path d="M577.178 377.056L515.528 390.528C512.402 391.21 509.222 389.607 507.894 386.673L468.418 299.594C466.588 295.558 468.929 290.852 473.233 289.911L533.294 276.787C536.465 276.094 539.687 277.719 541.034 280.693L581.122 369.123C582.62 372.43 580.703 376.285 577.178 377.056Z" fill="black"/>
<path d="M547.806 258.118C547.806 258.118 567.167 214.052 567.798 214.629C568.431 215.203 607.79 253.049 614.488 293.391C621.188 333.734 594.85 348.305 552.983 363.645C511.116 378.984 500.812 380.748 502.234 374.19C502.234 374.19 497.262 373.616 496.347 369.168C496.347 369.168 491.477 367.172 490.867 362.724C490.867 362.724 480.138 358.068 490.071 347.358L492.5 352.717C492.5 352.717 505.483 350.607 510.355 346.157C515.227 341.709 512.029 338.489 509.44 337.26C506.854 336.034 499.241 330.512 500.611 327.444C501.982 324.377 514.162 329.131 518.576 328.978C522.991 328.826 561.356 310.107 571.253 302.881C571.253 302.881 558.312 272.086 547.806 258.118Z" fill="white"/>
<path d="M506.035 378.247C504.334 378.247 503.2 377.931 502.51 377.329C501.79 376.7 501.521 375.794 501.694 374.565C500.385 374.279 496.837 373.175 495.945 369.498C494.956 369.039 491.137 367.022 490.444 363.04C489.527 362.584 486.28 360.739 485.538 357.202C484.897 354.149 486.307 350.731 489.731 347.041C489.836 346.928 489.991 346.873 490.146 346.899C490.3 346.924 490.432 347.024 490.495 347.165L492.777 352.196C494.872 351.821 505.77 349.716 510.042 345.814C511.815 344.196 512.606 342.643 512.389 341.205C512.087 339.178 509.903 337.996 509.242 337.682C506.607 336.432 498.629 330.738 500.186 327.254C501.207 324.97 506.23 326.114 511.546 327.326C514.345 327.966 516.992 328.569 518.56 328.512C522.69 328.368 560.292 310.126 570.679 302.72C569.226 299.31 557.193 271.375 547.436 258.4C547.281 258.195 547.322 257.902 547.527 257.748C547.735 257.593 548.025 257.636 548.179 257.839C558.599 271.692 571.552 302.392 571.684 302.699C571.766 302.898 571.703 303.129 571.529 303.256C562.039 310.185 523.451 329.275 518.594 329.444C516.899 329.501 514.201 328.887 511.339 328.235C507.064 327.26 501.745 326.049 501.038 327.635C499.89 330.203 506.943 335.562 509.642 336.841C510.409 337.203 512.94 338.582 513.311 341.067C513.576 342.832 512.686 344.66 510.669 346.502C505.753 350.993 493.111 353.09 492.575 353.177C492.366 353.211 492.162 353.101 492.075 352.908L489.94 348.197C487.078 351.449 485.905 354.41 486.449 357.011C487.201 360.587 491.014 362.281 491.054 362.298C491.203 362.362 491.306 362.5 491.33 362.66C491.895 366.795 496.479 368.717 496.526 368.736C496.67 368.795 496.774 368.922 496.805 369.075C497.638 373.131 502.099 373.705 502.29 373.728C502.419 373.743 502.537 373.813 502.614 373.919C502.69 374.027 502.718 374.16 502.69 374.29C502.37 375.768 502.783 376.332 503.122 376.626C505.942 379.085 519.414 375.448 552.823 363.207C574.336 355.327 590.866 347.949 601.625 337.559C613.225 326.36 617.167 312.348 614.029 293.468C607.382 253.429 567.879 215.332 567.485 214.972C567.295 214.798 567.282 214.504 567.455 214.315C567.629 214.125 567.924 214.11 568.112 214.283C568.205 214.368 578.223 223.885 589.246 238.819C599.049 252.107 611.468 272.347 614.949 293.315C618.139 312.526 614.112 326.799 602.273 338.229C591.396 348.733 574.768 356.16 553.145 364.082C525.955 374.044 512.233 378.247 506.035 378.247Z" fill="black"/>
<path d="M552.333 361.657C552.331 361.657 552.327 361.657 552.324 361.657C552.066 361.65 551.863 361.436 551.867 361.18C552.166 347.367 547.154 333.488 538.115 323.1C537.946 322.905 537.967 322.611 538.16 322.441C538.355 322.274 538.649 322.293 538.818 322.488C548.007 333.05 553.104 347.159 552.799 361.201C552.795 361.453 552.587 361.657 552.333 361.657Z" fill="black"/>
<path d="M572.594 302.932C572.448 302.932 572.304 302.862 572.213 302.735C572.064 302.523 572.115 302.233 572.327 302.085C575.146 300.096 577.822 297.855 580.277 295.425C580.459 295.243 580.754 295.245 580.936 295.427C581.116 295.609 581.116 295.906 580.931 296.086C578.44 298.554 575.727 300.829 572.863 302.847C572.78 302.904 572.687 302.932 572.594 302.932Z" fill="black"/>
<path d="M503.833 374.705C503.223 374.705 502.613 374.684 502.003 374.643C501.747 374.626 501.552 374.404 501.569 374.148C501.588 373.889 501.819 373.707 502.067 373.713C507.585 374.082 513.226 372.709 517.966 369.848C518.184 369.714 518.47 369.786 518.606 370.006C518.737 370.227 518.667 370.513 518.447 370.646C514.069 373.288 508.943 374.705 503.833 374.705Z" fill="black"/>
<path d="M498.388 369.642C497.634 369.642 496.88 369.615 496.128 369.555C495.871 369.536 495.681 369.312 495.7 369.056C495.721 368.799 495.935 368.604 496.202 368.628C502.052 369.085 508.062 367.691 513.127 364.707C513.347 364.578 513.633 364.65 513.764 364.872C513.896 365.094 513.821 365.38 513.599 365.51C509.021 368.206 503.696 369.642 498.388 369.642Z" fill="black"/>
<path d="M497.375 364.287C495.212 364.287 493.049 364.003 490.956 363.419C490.708 363.351 490.562 363.095 490.632 362.847C490.7 362.597 490.958 362.451 491.206 362.523C497.762 364.346 505.038 363.139 510.669 359.29C510.883 359.144 511.173 359.199 511.317 359.411C511.463 359.623 511.408 359.913 511.196 360.059C507.138 362.832 502.259 364.287 497.375 364.287Z" fill="black"/>
<path d="M80.9248 247.316H49.764V97.5129L50.2377 97.5214C93.8611 98.2606 159.673 98.9046 162.186 97.6591C162.139 97.6824 162.051 97.7692 162.023 97.9048H162.947V127.365H162.015V98.6483C159.727 99.055 150.064 99.5421 105.646 99.1588C80.1143 98.9406 54.4718 98.5233 50.6959 98.4619V246.384H80.9248V247.316Z" fill="black"/>
<defs>
<linearGradient id="paint0_linear_2134_2" x1="944.5" y1="67.2001" x2="-4.91019" y2="255.204" gradientUnits="userSpaceOnUse">
<stop stop-color="#FEE701"/>
<stop offset="0.74873" stop-color="#48D3FC"/>
</linearGradient>
</defs>
</svg>
