<svg width="130" height="53" viewBox="0 0 130 53" fill="none" xmlns="http://www.w3.org/2000/svg">
<mask id="mask0_2080_2" style="mask-type:luminance" maskUnits="userSpaceOnUse" x="57" y="35" width="7" height="7">
<path d="M57.7769 35.3407H63.9157V41.0185H57.7769V35.3407Z" fill="white"/>
</mask>
<g mask="url(#mask0_2080_2)">
<mask id="mask1_2080_2" style="mask-type:luminance" maskUnits="userSpaceOnUse" x="4" y="14" width="62" height="47">
<path d="M65.1477 39.2132L14.9688 60.3412L4.55444 35.6924L54.7338 14.5641L65.1477 39.2132Z" fill="white"/>
</mask>
<g mask="url(#mask1_2080_2)">
<mask id="mask2_2080_2" style="mask-type:luminance" maskUnits="userSpaceOnUse" x="4" y="14" width="62" height="47">
<path d="M65.1477 39.2132L14.9688 60.3412L4.55444 35.6924L54.7338 14.5641L65.1477 39.2132Z" fill="white"/>
</mask>
<g mask="url(#mask2_2080_2)">
<mask id="mask3_2080_2" style="mask-type:luminance" maskUnits="userSpaceOnUse" x="4" y="14" width="62" height="47">
<path d="M65.1477 39.2132L14.9688 60.3412L4.55444 35.6924L54.7338 14.5641L65.1477 39.2132Z" fill="white"/>
</mask>
<g mask="url(#mask3_2080_2)">
<path d="M61.2407 40.7285L63.627 37.2949C63.6624 37.2442 63.6937 37.1911 63.7211 37.1358C63.7484 37.0802 63.7712 37.0228 63.7903 36.964C63.809 36.9052 63.8231 36.8454 63.833 36.7842C63.8429 36.7232 63.8482 36.662 63.8486 36.6003C63.8492 36.5384 63.845 36.4772 63.8365 36.4159C63.8281 36.355 63.8147 36.2948 63.797 36.2356C63.7794 36.1765 63.7576 36.1188 63.7314 36.0631C63.705 36.0071 63.6747 35.9536 63.6404 35.9022C63.6059 35.8509 63.5678 35.8026 63.5261 35.7569C63.4846 35.7111 63.4397 35.6689 63.3918 35.6298C63.3439 35.591 63.2931 35.5559 63.2399 35.5245C63.1862 35.4929 63.1309 35.4657 63.0737 35.4425C63.0163 35.4192 62.9574 35.4006 62.8971 35.3861C62.8367 35.3718 62.7758 35.3619 62.714 35.3566C62.6523 35.3514 62.5903 35.3503 62.5285 35.3541C62.4665 35.358 62.4052 35.3665 62.3445 35.3795L58.2481 36.2603C58.2255 36.2652 58.2029 36.2712 58.1807 36.279C58.1585 36.2867 58.1371 36.2955 58.1162 36.3058C58.0951 36.3163 58.0749 36.3275 58.0552 36.3402C58.0355 36.3529 58.0167 36.367 57.9988 36.3817C57.9808 36.3969 57.9639 36.4127 57.9481 36.43C57.9321 36.4469 57.9173 36.4649 57.9036 36.4838C57.8898 36.5025 57.8771 36.5222 57.8659 36.5426C57.8542 36.563 57.8443 36.5838 57.8355 36.6056C57.8267 36.6271 57.819 36.6493 57.8129 36.6714C57.807 36.694 57.8021 36.7169 57.7988 36.7397C57.7953 36.763 57.7935 36.7862 57.7929 36.8095C57.7925 36.8327 57.7935 36.856 57.7957 36.8792C57.7982 36.9021 57.8017 36.9253 57.807 36.9479C57.8122 36.9707 57.8186 36.9929 57.8267 37.0147C57.8344 37.0366 57.8437 37.0581 57.8542 37.0788C57.8644 37.0996 57.8764 37.1196 57.8892 37.139C57.9342 37.2069 57.9914 37.2629 58.0602 37.3069C58.129 37.3509 58.204 37.3794 58.2848 37.3917L59.5473 37.5787C59.7113 37.603 59.8633 37.6594 60.0035 37.7476C60.1436 37.8361 60.2596 37.9487 60.3517 38.086C60.443 38.2223 60.5026 38.3711 60.5311 38.5328C60.5601 38.6939 60.5548 38.8545 60.5164 39.0139L60.2049 40.2733C60.186 40.351 60.1831 40.4292 60.1972 40.508C60.211 40.5869 60.2403 40.6594 60.2847 40.7259C60.2977 40.7456 60.3118 40.7643 60.3273 40.782C60.3425 40.7996 60.359 40.8165 60.3764 40.8323C60.3937 40.8479 60.412 40.8626 60.4311 40.876C60.4504 40.8896 60.4702 40.9021 60.4909 40.9129C60.5118 40.9242 60.5329 40.9337 60.5548 40.9421C60.577 40.9506 60.5992 40.958 60.6217 40.9636C60.6447 40.9692 60.668 40.9738 60.6912 40.9767C60.7145 40.9794 60.7378 40.9809 60.7615 40.9809C60.785 40.9811 60.8083 40.9798 60.8316 40.977C60.8552 40.9741 60.8782 40.9699 60.9011 40.9642C60.924 40.9587 60.9462 40.9517 60.9684 40.9432C60.9903 40.935 61.0119 40.9252 61.0326 40.9144C61.0534 40.9034 61.0735 40.8911 61.0926 40.8777C61.1119 40.8643 61.1303 40.8499 61.148 40.8341C61.1656 40.8185 61.1821 40.8016 61.1977 40.784C61.2128 40.7665 61.2273 40.7478 61.2407 40.7285Z" fill="white"/>
</g>
</g>
</g>
</g>
<mask id="mask4_2080_2" style="mask-type:luminance" maskUnits="userSpaceOnUse" x="4" y="35" width="3" height="3">
<path d="M4.69458 35.4309H6.68068V37.2333H4.69458V35.4309Z" fill="white"/>
</mask>
<g mask="url(#mask4_2080_2)">
<mask id="mask5_2080_2" style="mask-type:luminance" maskUnits="userSpaceOnUse" x="4" y="14" width="62" height="47">
<path d="M65.1477 39.2132L14.9688 60.3412L4.55444 35.6924L54.7338 14.5641L65.1477 39.2132Z" fill="white"/>
</mask>
<g mask="url(#mask5_2080_2)">
<mask id="mask6_2080_2" style="mask-type:luminance" maskUnits="userSpaceOnUse" x="4" y="14" width="62" height="47">
<path d="M65.1477 39.2132L14.9688 60.3412L4.55444 35.6924L54.7338 14.5641L65.1477 39.2132Z" fill="white"/>
</mask>
<g mask="url(#mask6_2080_2)">
<mask id="mask7_2080_2" style="mask-type:luminance" maskUnits="userSpaceOnUse" x="4" y="14" width="62" height="47">
<path d="M65.1477 39.2132L14.9688 60.3412L4.55444 35.6924L54.7338 14.5641L65.1477 39.2132Z" fill="white"/>
</mask>
<g mask="url(#mask7_2080_2)">
<path d="M5.09011 35.4776C5.17121 35.453 5.25338 35.4498 5.3359 35.4682C5.41877 35.4861 5.49177 35.5235 5.5549 35.5797C5.5549 35.5797 5.87615 35.8638 6.47284 36.3289C6.49823 36.3482 6.5215 36.3704 6.5423 36.3947C6.56347 36.4191 6.58181 36.445 6.59732 36.4733C6.61319 36.501 6.62588 36.5303 6.63575 36.5606C6.64563 36.5911 6.65233 36.6225 6.65622 36.6541C6.65974 36.6859 6.66009 36.7179 6.65727 36.75C6.65479 36.7816 6.64881 36.8133 6.63999 36.8439C6.63083 36.8749 6.61883 36.9045 6.60401 36.9326C6.58921 36.9611 6.57158 36.9879 6.55112 37.0129C6.53138 37.0382 6.50915 37.0615 6.48482 37.0823C6.4605 37.1031 6.43404 37.1213 6.40618 37.1372C6.37798 37.153 6.3487 37.1657 6.31803 37.1756C6.28734 37.1854 6.25595 37.1925 6.22422 37.196C6.19213 37.1999 6.16004 37.2002 6.12794 37.1977C6.09585 37.1949 6.06447 37.1893 6.03344 37.1804C6.00275 37.1714 5.97278 37.1597 5.94457 37.1449C5.916 37.1301 5.8892 37.1126 5.86416 37.0924C5.23821 36.6084 4.91095 36.3155 4.89826 36.3028C4.87393 36.2817 4.85243 36.2585 4.83302 36.2332C4.81363 36.2078 4.7967 36.1807 4.78294 36.1518C4.76885 36.123 4.7579 36.0934 4.74979 36.0624C4.74168 36.0313 4.73675 35.9997 4.73499 35.9681C4.73322 35.936 4.73464 35.9043 4.73922 35.8726C4.74381 35.841 4.75157 35.8099 4.76214 35.7796C4.77307 35.7498 4.78648 35.721 4.80305 35.6934C4.81928 35.6659 4.83832 35.6403 4.85982 35.6163C4.9233 35.5481 5.00018 35.502 5.09011 35.4776Z" fill="white"/>
</g>
</g>
</g>
</g>
<mask id="mask8_2080_2" style="mask-type:luminance" maskUnits="userSpaceOnUse" x="7" y="37" width="50" height="11">
<path d="M7.58276 37.5939H56.5133V47.0568H7.58276V37.5939Z" fill="white"/>
</mask>
<g mask="url(#mask8_2080_2)">
<mask id="mask9_2080_2" style="mask-type:luminance" maskUnits="userSpaceOnUse" x="4" y="14" width="62" height="47">
<path d="M65.1477 39.2132L14.9688 60.3412L4.55444 35.6924L54.7338 14.5641L65.1477 39.2132Z" fill="white"/>
</mask>
<g mask="url(#mask9_2080_2)">
<mask id="mask10_2080_2" style="mask-type:luminance" maskUnits="userSpaceOnUse" x="4" y="14" width="62" height="47">
<path d="M65.1477 39.2132L14.9688 60.3412L4.55444 35.6924L54.7338 14.5641L65.1477 39.2132Z" fill="white"/>
</mask>
<g mask="url(#mask10_2080_2)">
<mask id="mask11_2080_2" style="mask-type:luminance" maskUnits="userSpaceOnUse" x="4" y="14" width="62" height="47">
<path d="M65.1477 39.2132L14.9688 60.3412L4.55444 35.6924L54.7338 14.5641L65.1477 39.2132Z" fill="white"/>
</mask>
<g mask="url(#mask11_2080_2)">
<path d="M7.97404 37.6594C8.04421 37.639 8.1151 37.6348 8.18704 37.6464C8.25898 37.658 8.32457 37.6844 8.38453 37.7256C9.02739 38.1646 9.70201 38.5986 10.383 39.018C10.4101 39.0345 10.4355 39.0535 10.4592 39.0749C10.4828 39.0964 10.5039 39.1203 10.5226 39.146C10.5413 39.1718 10.5575 39.1993 10.5709 39.2281C10.5843 39.257 10.5946 39.2869 10.602 39.3178C10.6094 39.3488 10.6136 39.3802 10.615 39.4122C10.6161 39.444 10.614 39.4756 10.609 39.507C10.6037 39.5386 10.5956 39.5693 10.5843 39.5992C10.5734 39.629 10.5593 39.6576 10.5424 39.6847C10.5258 39.7118 10.5064 39.7372 10.4845 39.7607C10.463 39.7844 10.439 39.805 10.4133 39.8241C10.3872 39.8428 10.3597 39.859 10.3308 39.8724C10.3015 39.8857 10.2715 39.8959 10.2402 39.9033C10.2091 39.9108 10.1774 39.9149 10.1456 39.9163C10.1136 39.9174 10.0818 39.9156 10.0501 39.9104C10.0187 39.9055 9.98766 39.8974 9.95768 39.886C9.92771 39.8752 9.89914 39.861 9.87199 39.8441C9.17445 39.4175 8.4882 38.9735 7.83192 38.5254C7.80547 38.5074 7.78114 38.487 7.75858 38.4641C7.736 38.4413 7.71591 38.4167 7.69862 38.3899C7.68098 38.3632 7.66618 38.3349 7.65454 38.305C7.64255 38.2754 7.63374 38.2449 7.62774 38.2135C7.62209 38.1819 7.61928 38.1501 7.61998 38.1185C7.62068 38.0864 7.62422 38.0548 7.63091 38.0234C7.63796 37.9921 7.64783 37.9618 7.66054 37.9326C7.67359 37.903 7.6891 37.8751 7.70744 37.8492C7.77373 37.7541 7.86261 37.6907 7.97404 37.6594ZM12.075 40.1695C12.137 40.1519 12.2002 40.1465 12.264 40.1537C12.3282 40.161 12.3885 40.18 12.4445 40.211C13.1326 40.5922 13.8491 40.9587 14.56 41.3041C14.589 41.3182 14.6161 41.3348 14.6418 41.3541C14.6673 41.3731 14.6909 41.395 14.7121 41.4189C14.7332 41.4428 14.7519 41.4685 14.7682 41.4963C14.7844 41.5238 14.7974 41.5527 14.808 41.5829C14.8183 41.6131 14.8253 41.6442 14.8295 41.6763C14.8337 41.7079 14.8348 41.7395 14.8326 41.7716C14.8302 41.8036 14.8249 41.835 14.8165 41.8659C14.808 41.8966 14.7968 41.9265 14.7823 41.955C14.7682 41.984 14.7515 42.011 14.7322 42.0364C14.7128 42.0621 14.6909 42.0853 14.6669 42.1064C14.6429 42.1275 14.6169 42.1462 14.5893 42.1624C14.5615 42.1786 14.5323 42.1916 14.5019 42.2021C14.4716 42.2124 14.4406 42.2197 14.4088 42.224C14.3771 42.2282 14.345 42.2293 14.3129 42.2272C14.2811 42.225 14.2494 42.2197 14.2187 42.2113C14.1876 42.2032 14.1577 42.192 14.1291 42.1775C13.4048 41.8251 12.6794 41.4502 11.972 41.0633C11.9438 41.0482 11.9177 41.0302 11.893 41.0098C11.8683 40.9894 11.8461 40.9668 11.826 40.9418C11.8059 40.9168 11.7886 40.8904 11.7738 40.8619C11.759 40.8338 11.747 40.8042 11.7382 40.7735C11.7294 40.743 11.7234 40.7116 11.7209 40.6796C11.7181 40.6479 11.7188 40.6162 11.7223 40.5845C11.7259 40.5525 11.7329 40.5215 11.7424 40.4912C11.7523 40.4606 11.7654 40.4314 11.7809 40.4036C11.8122 40.3466 11.8532 40.2977 11.9043 40.2571C11.9554 40.2167 12.0122 40.1875 12.075 40.1695ZM16.3981 42.275C16.5092 42.2436 16.6174 42.2508 16.7232 42.2965C17.4532 42.6099 18.1973 42.907 18.9343 43.1816C18.9643 43.1925 18.9932 43.2066 19.0204 43.2231C19.0479 43.2397 19.0732 43.259 19.0969 43.2808C19.1202 43.3023 19.1413 43.3262 19.16 43.3523C19.1791 43.378 19.1949 43.4054 19.2084 43.4346C19.2214 43.464 19.2316 43.4938 19.239 43.5252C19.246 43.5562 19.2503 43.5878 19.2514 43.6196C19.2524 43.6516 19.2499 43.6832 19.2446 43.7149C19.2394 43.7466 19.231 43.7772 19.2196 43.8072C19.2084 43.8371 19.1945 43.8656 19.1776 43.893C19.1607 43.9202 19.1417 43.9455 19.1198 43.9692C19.098 43.9927 19.074 44.0138 19.0479 44.0324C19.0218 44.0511 18.9939 44.0673 18.965 44.0803C18.9358 44.0937 18.9054 44.1039 18.874 44.1114C18.8426 44.1187 18.8113 44.123 18.7792 44.1239C18.7471 44.125 18.715 44.123 18.6832 44.1176C18.6518 44.1123 18.6208 44.1039 18.5909 44.0927C17.8401 43.8121 17.0793 43.5086 16.3356 43.1897C16.3061 43.177 16.2782 43.1618 16.2514 43.1438C16.225 43.126 16.2006 43.1055 16.1784 43.0826C16.1558 43.0598 16.136 43.0347 16.1184 43.008C16.1012 42.9812 16.0863 42.9531 16.0747 42.9235C16.0628 42.8936 16.054 42.8629 16.0483 42.8316C16.0426 42.8003 16.0401 42.7686 16.0406 42.7365C16.0412 42.7045 16.045 42.6729 16.0518 42.6419C16.0588 42.6105 16.0687 42.5803 16.0814 42.5511C16.1107 42.4835 16.1529 42.4257 16.2083 42.3771C16.2641 42.3289 16.3272 42.2947 16.3981 42.275ZM20.9066 43.9512C21.0009 43.9244 21.0947 43.9258 21.1877 43.9558C21.9442 44.1948 22.7143 44.4158 23.4757 44.6144C23.5063 44.6221 23.536 44.633 23.5646 44.6471C23.5931 44.6609 23.6204 44.6774 23.6457 44.6964C23.6707 44.7154 23.694 44.7369 23.7152 44.7605C23.7363 44.7845 23.7547 44.8097 23.7709 44.8372C23.7868 44.8643 23.8002 44.8929 23.8104 44.9227C23.8209 44.9528 23.828 44.9833 23.8326 45.0147C23.8369 45.0463 23.8383 45.0777 23.8361 45.1093C23.8343 45.1411 23.8294 45.172 23.8213 45.2027C23.8132 45.2333 23.8022 45.2629 23.7881 45.2914C23.7741 45.3199 23.7575 45.3467 23.7384 45.372C23.7191 45.3974 23.6976 45.4206 23.6739 45.4413C23.6499 45.4624 23.6242 45.4811 23.5971 45.497C23.5696 45.5131 23.5406 45.5265 23.5107 45.5368C23.4806 45.5473 23.4496 45.5547 23.4182 45.5589C23.3869 45.5635 23.3551 45.5646 23.3234 45.5628C23.2916 45.5611 23.2603 45.5561 23.2296 45.5484C22.4509 45.3467 21.6648 45.12 20.8925 44.8756C20.8619 44.8661 20.8327 44.8538 20.8044 44.8383C20.7762 44.8231 20.7498 44.8051 20.7254 44.7847C20.7008 44.764 20.6786 44.7415 20.6584 44.7165C20.6384 44.6914 20.621 44.6647 20.6065 44.6366C20.5918 44.608 20.5801 44.5784 20.5713 44.5479C20.5625 44.5172 20.5568 44.4858 20.554 44.4538C20.5516 44.4222 20.5522 44.3901 20.5562 44.3585C20.5597 44.3267 20.5667 44.2958 20.5766 44.2652C20.6019 44.1888 20.6439 44.123 20.7025 44.0673C20.7606 44.0117 20.8288 43.9729 20.9066 43.9512ZM25.562 45.1618C25.6385 45.1396 25.7161 45.1365 25.7943 45.153C26.5712 45.3114 27.3595 45.4505 28.1384 45.566C28.1702 45.5706 28.2012 45.578 28.2316 45.5888C28.2619 45.5993 28.2905 45.6127 28.318 45.6294C28.3455 45.6456 28.3712 45.6645 28.3947 45.686C28.4187 45.7075 28.44 45.731 28.4589 45.7567C28.478 45.7825 28.4943 45.8096 28.508 45.8385C28.5218 45.8673 28.5323 45.8973 28.5398 45.9285C28.5475 45.9595 28.5521 45.9908 28.5532 46.0229C28.5545 46.0547 28.5528 46.0867 28.5479 46.1179C28.5433 46.1497 28.5355 46.1806 28.5249 46.2109C28.5141 46.2412 28.5002 46.27 28.484 46.2974C28.4675 46.325 28.4484 46.3507 28.4266 46.3742C28.405 46.3979 28.3813 46.4194 28.3553 46.4383C28.3296 46.4574 28.302 46.4739 28.2727 46.4872C28.2439 46.501 28.2136 46.5116 28.1821 46.5193C28.1511 46.527 28.1194 46.5313 28.0874 46.5327C28.0553 46.534 28.0232 46.5323 27.9913 46.5274C27.1955 46.4095 26.3896 46.2676 25.5993 46.1036C25.5677 46.0972 25.5373 46.088 25.5077 46.0757C25.478 46.0634 25.4498 46.0483 25.423 46.0303C25.3966 46.0127 25.3718 45.9923 25.3494 45.9693C25.3268 45.9469 25.3067 45.9222 25.289 45.8955C25.2714 45.8688 25.2566 45.8405 25.2446 45.8106C25.2326 45.781 25.2238 45.7505 25.2177 45.7191C25.2122 45.6878 25.2093 45.6557 25.2098 45.6241C25.21 45.592 25.2139 45.5603 25.2206 45.5291C25.2294 45.4857 25.2443 45.4446 25.2643 45.4055C25.2848 45.3663 25.3098 45.3305 25.3402 45.298C25.3701 45.266 25.4039 45.2383 25.4417 45.215C25.4795 45.1918 25.5193 45.1742 25.562 45.1618ZM30.3217 45.8662C30.3802 45.8493 30.4402 45.8438 30.5008 45.8493C31.2893 45.9222 32.0877 45.9729 32.876 46.0029C32.9081 46.0036 32.9397 46.0077 32.9708 46.0148C33.0022 46.0222 33.0325 46.0325 33.0618 46.0455C33.0906 46.0588 33.1185 46.0747 33.1446 46.0933C33.1704 46.112 33.1943 46.1328 33.2163 46.1563C33.2381 46.1796 33.2574 46.205 33.2741 46.232C33.291 46.2595 33.3051 46.288 33.3161 46.318C33.3269 46.3479 33.335 46.3788 33.34 46.4102C33.3449 46.4418 33.3467 46.4736 33.3453 46.5056C33.3445 46.5377 33.3403 46.5689 33.333 46.6003C33.3255 46.6312 33.3153 46.6615 33.3018 46.6904C33.2888 46.7196 33.2726 46.7471 33.2539 46.7732C33.2352 46.7991 33.2141 46.823 33.1904 46.8449C33.1668 46.8667 33.1414 46.8862 33.1143 46.9027C33.0868 46.9196 33.0582 46.9336 33.0279 46.9446C32.998 46.9558 32.9668 46.9639 32.9351 46.9689C32.9034 46.9738 32.8716 46.9755 32.8395 46.9745C32.0338 46.9457 31.216 46.8935 30.4095 46.8199C30.3774 46.8171 30.3464 46.8107 30.3156 46.8017C30.285 46.7925 30.2558 46.7802 30.2275 46.7653C30.1993 46.7502 30.1729 46.7326 30.1481 46.7126C30.1235 46.6922 30.1009 46.6696 30.0808 46.645C30.0604 46.6203 30.0428 46.5939 30.0279 46.5658C30.0131 46.5377 30.0008 46.5083 29.9916 46.4778C29.9828 46.4471 29.9768 46.4161 29.9736 46.3845C29.9707 46.3525 29.9711 46.3207 29.9743 46.2891C29.9786 46.2408 29.9898 46.194 30.0081 46.1493C30.0265 46.1043 30.0512 46.0626 30.0819 46.025C30.1125 45.9873 30.1481 45.9553 30.1888 45.9283C30.2292 45.9011 30.273 45.8807 30.32 45.867L30.3217 45.8662ZM35.135 46.0342C35.1752 46.0222 35.2168 46.0159 35.2588 46.0156C36.048 45.9976 36.8477 45.9577 37.6321 45.8958C37.6642 45.893 37.6958 45.8936 37.7279 45.8973C37.7598 45.9008 37.791 45.9074 37.8214 45.9173C37.8521 45.9272 37.8814 45.9399 37.9093 45.9553C37.9374 45.9711 37.9636 45.9891 37.9879 46.0099C38.0122 46.0307 38.0341 46.0536 38.0542 46.0789C38.0739 46.1039 38.0909 46.1306 38.1053 46.1591C38.1197 46.1877 38.1311 46.2173 38.1395 46.2482C38.1483 46.2788 38.1536 46.3101 38.1557 46.3422C38.1586 46.3742 38.1582 46.406 38.1544 46.4376C38.1508 46.4697 38.1441 46.5006 38.1342 46.5313C38.1243 46.5616 38.1113 46.5908 38.0957 46.6185C38.0803 46.6468 38.0619 46.6729 38.0408 46.6971C38.02 46.7214 37.997 46.7436 37.9717 46.7633C37.9462 46.7833 37.9194 46.8002 37.8908 46.8147C37.862 46.8294 37.8323 46.8408 37.8013 46.8495C37.7703 46.8579 37.7389 46.8636 37.7068 46.8658C36.902 46.929 36.084 46.9703 35.2746 46.9882C35.2425 46.9889 35.2108 46.9868 35.179 46.9812C35.1473 46.9759 35.1166 46.9674 35.0866 46.9558C35.057 46.9442 35.0284 46.9301 35.0013 46.9129C34.9745 46.8956 34.9495 46.8759 34.9262 46.8541C34.9029 46.832 34.8824 46.8076 34.8641 46.7815C34.8457 46.7552 34.8303 46.7277 34.8176 46.6981C34.8048 46.6689 34.7949 46.6386 34.7883 46.6077C34.7815 46.5763 34.778 46.5447 34.7773 46.5127C34.7763 46.4587 34.7837 46.4063 34.8002 46.3549C34.8165 46.3038 34.8409 46.2563 34.8729 46.213C34.9054 46.1697 34.9435 46.1331 34.9882 46.1025C35.0327 46.0718 35.0809 46.0494 35.1332 46.0349L35.135 46.0342ZM55.8201 40.3075C55.8738 40.292 55.9281 40.286 55.9835 40.2891C56.0384 40.292 56.0918 40.3043 56.1428 40.3258C56.194 40.3469 56.2402 40.3761 56.2811 40.4131C56.322 40.4504 56.3558 40.493 56.382 40.5415C56.3974 40.5698 56.4102 40.599 56.4196 40.6293C56.4295 40.6598 56.4363 40.6909 56.4398 40.7228C56.4429 40.7546 56.4433 40.7862 56.4405 40.8183C56.4376 40.85 56.4317 40.8812 56.4225 40.9119C56.4137 40.9425 56.4018 40.9721 56.3866 41.0006C56.3717 41.0289 56.3541 41.0555 56.3336 41.0802C56.3136 41.1053 56.291 41.1277 56.2663 41.1481C56.2416 41.1685 56.2147 41.1865 56.1866 41.2016C55.4721 41.5907 54.7456 41.9645 54.0228 42.3162C53.9942 42.3303 53.9643 42.3415 53.9331 42.35C53.9021 42.3584 53.8704 42.3638 53.8383 42.3659C53.8062 42.368 53.7745 42.3665 53.7424 42.3623C53.7106 42.3584 53.6796 42.3511 53.6493 42.3406C53.6189 42.3303 53.5897 42.3169 53.5622 42.3007C53.5343 42.2846 53.5086 42.266 53.4846 42.2447C53.4606 42.2236 53.4391 42.2001 53.4197 42.1747C53.4004 42.149 53.3837 42.1218 53.3701 42.093C53.3558 42.0645 53.3446 42.0346 53.3365 42.0036C53.3281 41.973 53.3231 41.9416 53.321 41.9096C53.3193 41.8776 53.3202 41.8459 53.3246 41.8142C53.3292 41.7825 53.3365 41.7516 53.347 41.7213C53.3573 41.6914 53.3707 41.6625 53.3872 41.6346C53.4035 41.6072 53.4222 41.5815 53.4437 41.5576C53.4648 41.5337 53.4885 41.5122 53.5143 41.4928C53.5396 41.4735 53.5671 41.4569 53.5961 41.4432C54.3013 41.1 55.0155 40.7324 55.7161 40.3501C55.748 40.3332 55.781 40.3194 55.8159 40.3093L55.8201 40.3075ZM39.9317 45.6544C39.9542 45.6476 39.9772 45.6427 40.0004 45.6399C40.7816 45.5326 41.5701 45.3983 42.3473 45.2506C42.3791 45.2438 42.4112 45.2407 42.4433 45.2407C42.4756 45.2407 42.5077 45.2438 42.5394 45.2502C42.5713 45.2561 42.6019 45.2657 42.6315 45.278C42.6616 45.2907 42.6897 45.3059 42.7166 45.3237C42.743 45.3417 42.7676 45.3625 42.7902 45.3854C42.8128 45.4082 42.8329 45.4332 42.8505 45.4604C42.8682 45.4871 42.883 45.5157 42.8946 45.5455C42.9065 45.5754 42.9155 45.6064 42.921 45.6381C42.9274 45.6695 42.9306 45.7015 42.9306 45.7336C42.9306 45.7659 42.9274 45.7977 42.921 45.8293C42.9147 45.8609 42.9052 45.8916 42.8925 45.9212C42.8801 45.9507 42.8647 45.9792 42.8467 46.0057C42.8283 46.0325 42.8078 46.0571 42.7845 46.0797C42.7614 46.1021 42.7363 46.1222 42.7091 46.1398C42.682 46.1574 42.6534 46.1721 42.6234 46.1838C42.5935 46.1958 42.5624 46.2046 42.5306 46.2102C41.7359 46.3648 40.9276 46.4995 40.1285 46.6084C40.0966 46.613 40.0646 46.6143 40.0325 46.6126C40.0004 46.6108 39.9687 46.6059 39.9377 46.5981C39.9067 46.5901 39.8766 46.5792 39.8478 46.5651C39.8188 46.5513 39.7917 46.5348 39.766 46.5154C39.7405 46.496 39.7169 46.4743 39.6957 46.4503C39.6746 46.4264 39.6559 46.4006 39.6396 46.3729C39.6238 46.345 39.6104 46.3161 39.6002 46.286C39.5899 46.2557 39.5829 46.2246 39.5787 46.1929C39.5701 46.1348 39.5719 46.0771 39.5846 46.0198C39.597 45.9623 39.6192 45.9092 39.6513 45.8596C39.6834 45.8102 39.7229 45.7681 39.7702 45.7332C39.8178 45.6983 39.8696 45.6726 39.9264 45.6564L39.9317 45.6544ZM51.4897 42.412C51.5472 42.3951 51.6057 42.3891 51.6649 42.394C51.7246 42.399 51.7813 42.4141 51.8352 42.4398C51.8889 42.4655 51.9365 42.5 51.9774 42.5433C52.0186 42.5862 52.0504 42.6355 52.0733 42.6904C52.086 42.7196 52.0959 42.7499 52.1026 42.7813C52.1093 42.8126 52.1128 42.844 52.1135 42.876C52.1139 42.9081 52.1111 42.9397 52.1054 42.9713C52.0994 43.0027 52.0906 43.0334 52.0786 43.0629C52.0667 43.0925 52.0518 43.121 52.0342 43.1478C52.0166 43.1745 51.9964 43.1995 51.9742 43.2224C51.9517 43.245 51.9269 43.2654 51.9005 43.2834C51.8737 43.3016 51.8458 43.3167 51.8163 43.3291C51.0693 43.649 50.309 43.9522 49.5562 44.2306C49.5258 44.242 49.4951 44.2501 49.4634 44.2553C49.432 44.2606 49.3999 44.2626 49.3678 44.2617C49.3357 44.2606 49.3043 44.2564 49.2729 44.249C49.2419 44.2416 49.2115 44.2314 49.1827 44.218C49.1534 44.2046 49.126 44.1888 49.1001 44.17C49.0741 44.1514 49.0501 44.1303 49.0286 44.1068C49.0067 44.0835 48.9877 44.0581 48.971 44.0307C48.9541 44.0036 48.9404 43.9751 48.9295 43.9448C48.9182 43.9148 48.9097 43.8843 48.9044 43.8526C48.8995 43.8213 48.8974 43.7892 48.8985 43.7572C48.8995 43.7254 48.9037 43.6938 48.9112 43.6624C48.9185 43.6315 48.9291 43.6012 48.9425 43.572C48.9559 43.543 48.9721 43.5153 48.9912 43.4896C49.0099 43.4636 49.0314 43.4396 49.055 43.4181C49.0787 43.3964 49.104 43.3769 49.1315 43.3604C49.159 43.3439 49.188 43.3297 49.2183 43.3189C49.9557 43.0464 50.7009 42.7492 51.4325 42.4359C51.4494 42.4275 51.4672 42.4201 51.485 42.4137L51.4897 42.412ZM44.6557 44.7348L44.6698 44.7288C45.4315 44.5358 46.2084 44.3168 46.9596 44.0793C46.9903 44.0695 47.0213 44.0627 47.0534 44.0592C47.0851 44.0557 47.1172 44.0554 47.1493 44.0581C47.1811 44.0607 47.2124 44.0666 47.2431 44.0754C47.2741 44.0846 47.3038 44.0965 47.332 44.1114C47.3605 44.1261 47.3869 44.1434 47.412 44.1634C47.437 44.1834 47.4597 44.206 47.4801 44.2306C47.5006 44.2553 47.5186 44.2813 47.5337 44.3095C47.5489 44.3377 47.5612 44.3669 47.5704 44.3976C47.5802 44.4281 47.5869 44.4592 47.5901 44.4908C47.5936 44.5229 47.594 44.5545 47.5911 44.5863C47.5883 44.6183 47.5823 44.6495 47.5735 44.6802C47.5643 44.7108 47.5524 44.7404 47.5375 44.7686C47.5224 44.7972 47.5048 44.8235 47.4847 44.8485C47.4645 44.8735 47.4421 44.896 47.4173 44.9164C47.3926 44.9368 47.3662 44.9548 47.3376 44.9699C47.3093 44.9851 47.2801 44.9974 47.2491 45.007C46.4792 45.2471 45.6872 45.4705 44.9068 45.668C44.8755 45.6761 44.8441 45.6811 44.812 45.6829C44.7799 45.6847 44.7481 45.6832 44.7164 45.6786C44.6847 45.6744 44.6536 45.6667 44.6234 45.6561C44.593 45.6456 44.564 45.6322 44.5366 45.6156C44.5091 45.5993 44.4833 45.5804 44.4596 45.5589C44.4361 45.5374 44.4145 45.5139 44.3955 45.4885C44.3765 45.4628 44.3598 45.4354 44.3464 45.4064C44.3328 45.3776 44.3222 45.3476 44.3143 45.3167C44.307 45.2868 44.3027 45.2561 44.3009 45.2252C44.2996 45.1946 44.3009 45.1639 44.3055 45.1332C44.3097 45.1027 44.3172 45.0728 44.3275 45.0435C44.3374 45.0143 44.3504 44.9861 44.3658 44.9594C44.3814 44.9326 44.3994 44.9076 44.4198 44.8844C44.4399 44.8608 44.4625 44.8397 44.4869 44.8207C44.5115 44.8013 44.5372 44.7847 44.5651 44.7707C44.5926 44.7566 44.6212 44.7454 44.6511 44.7366L44.6557 44.7348Z" fill="white"/>
</g>
</g>
</g>
</g>
<mask id="mask12_2080_2" style="mask-type:luminance" maskUnits="userSpaceOnUse" x="57" y="38" width="3" height="3">
<path d="M57.5071 38.405H59.5835V40.1173H57.5071V38.405Z" fill="white"/>
</mask>
<g mask="url(#mask12_2080_2)">
<mask id="mask13_2080_2" style="mask-type:luminance" maskUnits="userSpaceOnUse" x="4" y="14" width="62" height="47">
<path d="M65.1477 39.2133L14.9688 60.3413L4.55444 35.6926L54.7338 14.5642L65.1477 39.2133Z" fill="white"/>
</mask>
<g mask="url(#mask13_2080_2)">
<mask id="mask14_2080_2" style="mask-type:luminance" maskUnits="userSpaceOnUse" x="4" y="14" width="62" height="47">
<path d="M65.1477 39.2133L14.9688 60.3413L4.55444 35.6926L54.7338 14.5642L65.1477 39.2133Z" fill="white"/>
</mask>
<g mask="url(#mask14_2080_2)">
<mask id="mask15_2080_2" style="mask-type:luminance" maskUnits="userSpaceOnUse" x="4" y="14" width="62" height="47">
<path d="M65.1477 39.2133L14.9688 60.3413L4.55444 35.6926L54.7338 14.5642L65.1477 39.2133Z" fill="white"/>
</mask>
<g mask="url(#mask15_2080_2)">
<path d="M58.9428 38.4713C58.9933 38.4564 59.0452 38.45 59.0978 38.4522C59.1503 38.4544 59.2013 38.4649 59.2504 38.4832C59.2998 38.5018 59.3449 38.5279 59.3855 38.561C59.426 38.5944 59.4605 38.6332 59.4884 38.6775C59.5058 38.7046 59.5201 38.7328 59.5318 38.7627C59.5438 38.7923 59.5522 38.8229 59.5579 38.8542C59.5632 38.8859 59.5656 38.9176 59.5649 38.9497C59.5643 38.9813 59.5603 39.0131 59.5533 39.0443C59.5462 39.0753 59.5361 39.1055 59.523 39.1349C59.51 39.1641 59.4941 39.1918 59.4754 39.2179C59.457 39.244 59.4359 39.2683 59.4126 39.2901C59.3893 39.3122 59.364 39.3316 59.3368 39.3485C58.9881 39.5686 58.6364 39.7861 58.2908 39.9987C58.2633 40.0153 58.2347 40.0294 58.2044 40.0404C58.1745 40.0512 58.1435 40.0593 58.1116 40.0643C58.08 40.0691 58.0479 40.0709 58.0158 40.0695C57.9837 40.0681 57.952 40.0635 57.921 40.0562C57.8898 40.0483 57.8595 40.0378 57.8307 40.0241C57.8014 40.0103 57.7742 39.9941 57.7485 39.9752C57.7227 39.9561 57.6992 39.9346 57.6776 39.9111C57.6561 39.8872 57.637 39.8618 57.6208 39.8339C57.6038 39.8069 57.5902 39.7784 57.5792 39.7485C57.568 39.7182 57.5601 39.6875 57.5552 39.6559C57.5503 39.6245 57.5486 39.5925 57.5499 39.5608C57.5513 39.5288 57.5559 39.4974 57.5637 39.4661C57.5715 39.4351 57.582 39.4052 57.5957 39.3763C57.6095 39.3475 57.626 39.3199 57.6451 39.2943C57.6642 39.2686 57.6858 39.2451 57.7093 39.2236C57.7333 39.2021 57.759 39.183 57.7865 39.1665C58.1276 38.9613 58.475 38.748 58.8166 38.5318C58.8558 38.5053 58.8977 38.4853 58.9428 38.4713Z" fill="white"/>
</g>
</g>
</g>
</g>
<path d="M8.67587 18.9838C9.5173 18.9838 10.2727 19.1859 10.9413 19.5893C11.6106 19.9931 12.1392 20.5329 12.5268 21.2088C12.915 21.8847 13.1094 22.6348 13.1094 23.4589C13.1094 24.2834 12.915 25.0256 12.5268 25.6853C12.1392 26.3443 11.6106 26.8636 10.9413 27.2428C10.2727 27.6222 9.5173 27.8116 8.67587 27.8116H5.629V33.8203H2.35925V18.9838H8.67587ZM8.15537 25.1164C8.68363 25.1164 9.12162 24.9681 9.46863 24.6714C9.81563 24.3749 9.98913 23.9793 9.98913 23.4843C9.98913 23.0066 9.81563 22.6151 9.46863 22.3099C9.12162 22.005 8.68363 21.8523 8.15537 21.8523H5.629V25.1164H8.15537Z" fill="white"/>
<path d="M20.6126 23.7322C20.7611 23.7322 20.9054 23.7406 21.0456 23.7575C21.1868 23.7737 21.3151 23.798 21.4308 23.8307V26.6246C21.3151 26.5918 21.1786 26.5676 21.0217 26.5513C20.8645 26.5344 20.6952 26.5259 20.5139 26.5259C19.7381 26.5259 19.098 26.7484 18.5941 27.1935C18.0909 27.6385 17.8394 28.2732 17.8394 29.0973V33.8204H14.6683V23.9293H17.8394V25.2896C18.1694 24.8119 18.5694 24.4331 19.0399 24.1531C19.511 23.8726 20.035 23.7322 20.6126 23.7322Z" fill="white"/>
<path d="M24.4766 22.2718C24.0141 22.2718 23.6092 22.0993 23.2622 21.7535C22.9158 21.4072 22.743 21.003 22.743 20.5412C22.743 20.0635 22.9158 19.6553 23.2622 19.3174C23.6092 18.9794 24.0141 18.8104 24.4766 18.8104C24.9552 18.8104 25.3639 18.9794 25.7024 19.3174C26.041 19.6553 26.2103 20.0635 26.2103 20.5412C26.2103 21.003 26.041 21.4072 25.7024 21.7535C25.3639 22.0993 24.9552 22.2718 24.4766 22.2718ZM22.8912 33.8203V23.9292H26.0368V33.8203H22.8912Z" fill="white"/>
<path d="M40.8478 23.7322C41.9374 23.7322 42.7753 24.0824 43.3614 24.7827C43.9482 25.4832 44.2416 26.4102 44.2416 27.5637V33.8204H41.096V28.0834C41.096 27.6554 40.9595 27.2889 40.6869 26.9837C40.4139 26.6788 40.0635 26.5259 39.6346 26.5259C39.1551 26.5259 38.7996 26.6949 38.5682 27.0329C38.3376 27.3708 38.2226 27.7211 38.2226 28.0834V33.8204H35.0516V28.0834C35.0516 27.6554 34.9194 27.2889 34.6552 26.9837C34.3907 26.6788 34.0445 26.5259 33.6156 26.5259C33.1361 26.5259 32.7806 26.6949 32.5492 27.0329C32.3186 27.3708 32.2036 27.7211 32.2036 28.0834V33.8204H29.0327V23.9293H32.2036V25.1403C32.5338 24.7123 32.9259 24.3708 33.3801 24.1152C33.8343 23.8599 34.3421 23.7322 34.9036 23.7322C35.5305 23.7322 36.0876 23.8891 36.575 24.2025C37.0621 24.515 37.4462 24.9355 37.7275 25.4628C38.0406 24.9186 38.4614 24.4939 38.99 24.1898C39.5183 23.8849 40.1376 23.7322 40.8478 23.7322Z" fill="white"/>
<path d="M58.0136 31.249H58.4592V33.8204C58.3436 33.87 58.2152 33.915 58.0741 33.9556C57.9338 33.9967 57.7815 34.0175 57.6171 34.0175C56.956 34.0175 56.3609 33.8654 55.8327 33.5612C55.3052 33.2564 54.8841 32.848 54.5702 32.3362C54.1742 32.848 53.6915 33.2564 53.1216 33.5612C52.5517 33.8654 51.9032 34.0175 51.1764 34.0175C50.268 34.0175 49.4421 33.7873 48.6993 33.326C47.9563 32.8642 47.3656 32.246 46.9277 31.4715C46.4904 30.6962 46.2717 29.8307 46.2717 28.8748C46.2717 27.9194 46.4904 27.0541 46.9277 26.2795C47.3656 25.5043 47.9563 24.8861 48.6993 24.425C49.4421 23.9631 50.268 23.7322 51.1764 23.7322C51.7548 23.7322 52.2788 23.8272 52.7493 24.0166C53.2204 24.2053 53.6372 24.4652 54.0004 24.7953V23.9293H57.146V30.2843C57.146 30.6967 57.2367 30.9603 57.4183 31.0758C57.6006 31.1913 57.7991 31.249 58.0136 31.249ZM51.7956 31.2236C52.4396 31.2236 52.9925 30.9969 53.4545 30.5435C53.9172 30.0901 54.1485 29.5338 54.1485 28.8748C54.1485 28.2157 53.9172 27.6596 53.4545 27.2062C52.9925 26.7526 52.4396 26.5259 51.7956 26.5259C51.1355 26.5259 50.5783 26.7526 50.1241 27.2062C49.6699 27.6596 49.4428 28.2157 49.4428 28.8748C49.4428 29.5338 49.6699 30.0901 50.1241 30.5435C50.5783 30.9969 51.1355 31.2236 51.7956 31.2236Z" fill="white"/>
<path d="M66.2604 23.9292H69.6543L65.6411 33.8203H62.669L58.7053 23.9292H62.0738L64.1798 30.4323L66.2604 23.9292Z" fill="white"/>
<path d="M81.0731 28.8495V29.3944H73.494C73.5597 30.1035 73.7824 30.6596 74.1627 31.0632C74.5424 31.467 75.0873 31.6687 75.7976 31.6687C76.8872 31.6687 77.5809 31.2486 77.8781 30.4083H80.925C80.6767 31.4795 80.1104 32.3488 79.2267 33.0163C78.3437 33.6837 77.2169 34.0175 75.8468 34.0175C74.7399 34.0175 73.7694 33.8034 72.9354 33.3754C72.1022 32.9466 71.4543 32.3446 70.9916 31.5701C70.5289 30.7955 70.2976 29.8972 70.2976 28.8748C70.2976 27.8366 70.5289 26.9301 70.9916 26.1557C71.4543 25.3804 72.0982 24.7784 72.9241 24.3503C73.7496 23.9215 74.6909 23.7068 75.7481 23.7068C76.8209 23.7068 77.7541 23.9215 78.5468 24.3503C79.3395 24.7784 79.9588 25.3762 80.4046 26.143C80.8502 26.9089 81.0731 27.8113 81.0731 28.8495ZM75.7976 26.1303C75.2361 26.1303 74.7861 26.2499 74.4476 26.4893C74.109 26.728 73.8569 27.0618 73.6916 27.4906H77.8033C77.6376 27.0618 77.3942 26.728 77.0726 26.4893C76.751 26.2499 76.3258 26.1303 75.7976 26.1303Z" fill="white"/>
<path d="M89.2202 23.7322C89.3687 23.7322 89.5129 23.7406 89.6533 23.7575C89.7943 23.7737 89.9227 23.798 90.0383 23.8307V26.6246C89.9227 26.5918 89.7862 26.5676 89.6293 26.5513C89.472 26.5344 89.3027 26.5259 89.1215 26.5259C88.3456 26.5259 87.7056 26.7484 87.2017 27.1935C86.6984 27.6385 86.447 28.2732 86.447 29.0973V33.8204H83.276V23.9293H86.447V25.2896C86.7771 24.8119 87.1769 24.4331 87.6474 24.1531C88.1185 23.8726 88.6426 23.7322 89.2202 23.7322Z" fill="white"/>
<path d="M102.497 31.249H102.943V33.8204C102.827 33.87 102.699 33.915 102.558 33.9556C102.418 33.9967 102.265 34.0175 102.101 34.0175C101.44 34.0175 100.845 33.8654 100.317 33.5612C99.7891 33.2564 99.3679 32.848 99.0542 32.3362C98.6581 32.848 98.1753 33.2564 97.6055 33.5612C97.0355 33.8654 96.387 34.0175 95.6602 34.0175C94.7518 34.0175 93.9259 33.7873 93.1832 33.326C92.4401 32.8642 91.8494 32.246 91.4115 31.4715C90.9742 30.6962 90.7556 29.8307 90.7556 28.8748C90.7556 27.9194 90.9742 27.0541 91.4115 26.2795C91.8494 25.5043 92.4401 24.8861 93.1832 24.425C93.9259 23.9631 94.7518 23.7322 95.6602 23.7322C96.2386 23.7322 96.7626 23.8272 97.2331 24.0166C97.7042 24.2053 98.121 24.4652 98.4842 24.7953V23.9293H101.63V30.2843C101.63 30.6967 101.721 30.9603 101.902 31.0758C102.084 31.1913 102.283 31.249 102.497 31.249ZM96.2795 31.2236C96.9234 31.2236 97.4764 30.9969 97.9383 30.5435C98.401 30.0901 98.6323 29.5338 98.6323 28.8748C98.6323 28.2157 98.401 27.6596 97.9383 27.2062C97.4764 26.7526 96.9234 26.5259 96.2795 26.5259C95.6193 26.5259 95.0621 26.7526 94.6079 27.2062C94.1537 27.6596 93.9266 28.2157 93.9266 28.8748C93.9266 29.5338 94.1537 30.0901 94.6079 30.5435C95.0621 30.9969 95.6193 31.2236 96.2795 31.2236Z" fill="white"/>
<path d="M119.811 33.8203L118.894 31.0266H113.344L112.429 33.8203H108.936L114.287 18.9838H117.953L123.303 33.8203H119.811ZM114.212 28.306H118.026L116.119 22.4211L114.212 28.306Z" fill="white"/>
<path d="M124.565 33.8203V18.9838H127.835V33.8203H124.565Z" fill="white"/>
<mask id="mask16_2080_2" style="mask-type:luminance" maskUnits="userSpaceOnUse" x="120" y="9" width="7" height="7">
<path d="M120.431 9.56543H126.48V15.0629H120.431V9.56543Z" fill="white"/>
</mask>
<g mask="url(#mask16_2080_2)">
<mask id="mask17_2080_2" style="mask-type:luminance" maskUnits="userSpaceOnUse" x="68" y="-6" width="60" height="43">
<path d="M76.5298 -5.34973L127.56 11.0027L119.458 36.2007L68.4277 19.8478L76.5298 -5.34973Z" fill="white"/>
</mask>
<g mask="url(#mask17_2080_2)">
<mask id="mask18_2080_2" style="mask-type:luminance" maskUnits="userSpaceOnUse" x="68" y="-6" width="60" height="43">
<path d="M127.452 10.9682L76.4213 -5.38428L68.3193 19.8137L119.35 36.1661L127.452 10.9682Z" fill="white"/>
</mask>
<g mask="url(#mask18_2080_2)">
<mask id="mask19_2080_2" style="mask-type:luminance" maskUnits="userSpaceOnUse" x="68" y="-6" width="60" height="43">
<path d="M127.452 10.9682L76.4213 -5.38428L68.3193 19.8137L119.35 36.1661L127.452 10.9682Z" fill="white"/>
</mask>
<g mask="url(#mask19_2080_2)">
<path d="M123.491 9.82296L126.126 12.9921C126.165 13.0393 126.2 13.0885 126.232 13.1409C126.263 13.1931 126.291 13.2473 126.314 13.3036C126.338 13.3599 126.357 13.4177 126.372 13.4769C126.387 13.536 126.397 13.5961 126.403 13.6567C126.408 13.7176 126.41 13.7785 126.407 13.8395C126.403 13.9003 126.396 13.9606 126.383 14.0203C126.371 14.0802 126.355 14.139 126.334 14.1961C126.313 14.2534 126.287 14.3091 126.258 14.3626C126.229 14.416 126.196 14.4675 126.159 14.5161C126.122 14.5646 126.081 14.6104 126.038 14.653C125.994 14.6956 125.947 14.7346 125.898 14.7702C125.848 14.8062 125.796 14.8378 125.742 14.8656C125.687 14.8938 125.631 14.9174 125.573 14.9372C125.515 14.9565 125.457 14.9716 125.396 14.9822C125.336 14.9931 125.276 14.9995 125.214 15.0008C125.153 15.0026 125.093 14.9997 125.032 14.9924L120.938 14.4886C120.916 14.4858 120.893 14.4819 120.871 14.4763C120.848 14.4706 120.826 14.4636 120.805 14.4555C120.783 14.4474 120.762 14.4379 120.742 14.427C120.722 14.416 120.702 14.4041 120.683 14.3911C120.664 14.3778 120.646 14.3636 120.63 14.3482C120.612 14.333 120.596 14.3165 120.581 14.2992C120.566 14.2819 120.552 14.2637 120.539 14.2446C120.526 14.2257 120.514 14.2059 120.504 14.1851C120.493 14.1647 120.484 14.1439 120.476 14.1221C120.468 14.1006 120.462 14.0785 120.456 14.0563C120.451 14.0337 120.447 14.0113 120.445 13.9883C120.442 13.9654 120.441 13.9426 120.442 13.9193C120.442 13.8965 120.444 13.8735 120.446 13.8507C120.45 13.8278 120.454 13.8052 120.46 13.7831C120.466 13.7609 120.473 13.7391 120.482 13.7176C120.49 13.6962 120.5 13.6753 120.511 13.6553C120.549 13.5842 120.6 13.5241 120.664 13.4743C120.728 13.4251 120.799 13.3906 120.877 13.3712L122.1 13.0751C122.258 13.0367 122.403 12.9678 122.533 12.8681C122.663 12.7689 122.767 12.6474 122.845 12.5041C122.923 12.3616 122.969 12.2098 122.983 12.0482C122.997 11.887 122.979 11.7292 122.927 11.5758L122.514 10.3633C122.488 10.2884 122.479 10.2112 122.486 10.1328C122.493 10.0539 122.515 9.97964 122.553 9.91029C122.564 9.88988 122.576 9.87014 122.59 9.85149C122.604 9.83243 122.618 9.81445 122.634 9.79755C122.649 9.78038 122.666 9.76456 122.684 9.74942C122.702 9.73428 122.72 9.72049 122.739 9.70779C122.759 9.69522 122.779 9.68359 122.8 9.67331C122.82 9.66318 122.842 9.65398 122.864 9.64628C122.885 9.63844 122.908 9.63249 122.93 9.62722C122.953 9.62235 122.976 9.61884 122.999 9.61667C123.022 9.61451 123.045 9.61383 123.068 9.61451C123.091 9.61519 123.114 9.61735 123.137 9.62086C123.16 9.62438 123.183 9.62938 123.205 9.63573C123.227 9.64168 123.249 9.64939 123.27 9.65858C123.292 9.66737 123.312 9.6775 123.333 9.68913C123.353 9.70049 123.372 9.71306 123.391 9.72725C123.409 9.74091 123.427 9.75605 123.444 9.77186C123.46 9.78809 123.476 9.80498 123.491 9.82296Z" fill="white"/>
</g>
</g>
</g>
</g>
<mask id="mask20_2080_2" style="mask-type:luminance" maskUnits="userSpaceOnUse" x="68" y="18" width="3" height="3">
<path d="M68.4304 18.1272H70.3262V20.0198H68.4304V18.1272Z" fill="white"/>
</mask>
<g mask="url(#mask20_2080_2)">
<mask id="mask21_2080_2" style="mask-type:luminance" maskUnits="userSpaceOnUse" x="68" y="-6" width="60" height="43">
<path d="M76.5298 -5.34973L127.56 11.0027L119.458 36.2007L68.4277 19.8478L76.5298 -5.34973Z" fill="white"/>
</mask>
<g mask="url(#mask21_2080_2)">
<mask id="mask22_2080_2" style="mask-type:luminance" maskUnits="userSpaceOnUse" x="68" y="-6" width="60" height="43">
<path d="M127.452 10.9682L76.4213 -5.38428L68.3193 19.8137L119.35 36.1661L127.452 10.9682Z" fill="white"/>
</mask>
<g mask="url(#mask22_2080_2)">
<mask id="mask23_2080_2" style="mask-type:luminance" maskUnits="userSpaceOnUse" x="68" y="-6" width="60" height="43">
<path d="M127.452 10.9682L76.4213 -5.38428L68.3193 19.8137L119.35 36.1661L127.452 10.9682Z" fill="white"/>
</mask>
<g mask="url(#mask23_2080_2)">
<path d="M68.8603 19.9774C68.9421 19.9943 69.0229 19.9904 69.1026 19.9651C69.1823 19.9397 69.2503 19.8968 69.3075 19.8356C69.3075 19.8356 69.5985 19.5271 70.1439 19.0166C70.1672 18.9949 70.1881 18.9712 70.2063 18.9455C70.2248 18.9194 70.2406 18.8924 70.2536 18.8635C70.2667 18.8343 70.2765 18.8044 70.2837 18.7737C70.291 18.7428 70.2949 18.7114 70.2956 18.6798C70.2967 18.6481 70.2942 18.6168 70.289 18.5854C70.2833 18.554 70.2747 18.5238 70.2635 18.4943C70.2518 18.4647 70.2378 18.4368 70.2208 18.4101C70.2035 18.3833 70.1841 18.3587 70.1623 18.3358C70.1404 18.3126 70.1168 18.2918 70.0911 18.2735C70.0654 18.2551 70.0378 18.2393 70.0089 18.2263C69.9799 18.2134 69.9504 18.2035 69.9193 18.1965C69.8883 18.1893 69.8572 18.1855 69.8256 18.1844C69.7937 18.1838 69.7624 18.1862 69.731 18.1915C69.7 18.1971 69.6697 18.2055 69.64 18.2169C69.6104 18.2284 69.5822 18.2426 69.5554 18.2597C69.529 18.2766 69.5039 18.2964 69.4813 18.3183C68.9086 18.8505 68.6128 19.1685 68.6015 19.1818C68.5796 19.2047 68.5602 19.2297 68.5437 19.2565C68.5268 19.2832 68.5126 19.3113 68.5013 19.3409C68.4901 19.3704 68.482 19.4007 68.4767 19.4318C68.4714 19.463 68.4692 19.4944 68.4703 19.526C68.4714 19.5578 68.4752 19.5887 68.4826 19.6197C68.4897 19.6504 68.5 19.6803 68.513 19.7088C68.526 19.7377 68.5419 19.7648 68.5602 19.7904C68.5789 19.8161 68.5998 19.8398 68.6231 19.8613C68.6908 19.9228 68.77 19.9616 68.8603 19.9774Z" fill="white"/>
</g>
</g>
</g>
</g>
<mask id="mask24_2080_2" style="mask-type:luminance" maskUnits="userSpaceOnUse" x="71" y="5" width="48" height="13">
<path d="M71.0488 5.78015H118.806V17.5864H71.0488V5.78015Z" fill="white"/>
</mask>
<g mask="url(#mask24_2080_2)">
<mask id="mask25_2080_2" style="mask-type:luminance" maskUnits="userSpaceOnUse" x="68" y="-6" width="60" height="43">
<path d="M76.5298 -5.34961L127.56 11.0029L119.458 36.2009L68.4277 19.8479L76.5298 -5.34961Z" fill="white"/>
</mask>
<g mask="url(#mask25_2080_2)">
<mask id="mask26_2080_2" style="mask-type:luminance" maskUnits="userSpaceOnUse" x="68" y="-6" width="60" height="43">
<path d="M127.452 10.9684L76.4213 -5.38416L68.3193 19.8138L119.35 36.1662L127.452 10.9684Z" fill="white"/>
</mask>
<g mask="url(#mask26_2080_2)">
<mask id="mask27_2080_2" style="mask-type:luminance" maskUnits="userSpaceOnUse" x="68" y="-6" width="60" height="43">
<path d="M127.452 10.9684L76.4213 -5.38416L68.3193 19.8138L119.35 36.1662L127.452 10.9684Z" fill="white"/>
</mask>
<g mask="url(#mask27_2080_2)">
<path d="M71.5042 17.5733C71.5747 17.5866 71.6445 17.5849 71.7139 17.567C71.7834 17.5491 71.8458 17.5173 71.9012 17.4716C72.4941 16.9818 73.1186 16.4946 73.7505 16.0215C73.7759 16.0028 73.7992 15.9817 73.8204 15.9585C73.8415 15.9349 73.8602 15.9099 73.8764 15.8828C73.8927 15.8557 73.9061 15.8275 73.917 15.798C73.9276 15.768 73.9349 15.7377 73.9395 15.7065C73.9445 15.6754 73.9459 15.6442 73.9441 15.6124C73.9428 15.581 73.9382 15.5501 73.9304 15.5195C73.9226 15.4888 73.912 15.4596 73.8984 15.4311C73.8849 15.4026 73.8687 15.3758 73.8496 15.3505C73.8309 15.3251 73.8098 15.3019 73.7865 15.2808C73.7632 15.2597 73.7382 15.241 73.7111 15.2248C73.6839 15.2086 73.6557 15.1952 73.626 15.1847C73.5964 15.1741 73.5658 15.1667 73.5348 15.1622C73.5033 15.1576 73.4719 15.1561 73.4405 15.1576C73.4092 15.1594 73.3781 15.1643 73.3475 15.172C73.3171 15.1798 73.2875 15.1903 73.2589 15.204C73.2307 15.2178 73.2039 15.234 73.1786 15.2529C72.5308 15.735 71.8959 16.233 71.2905 16.7327C71.2661 16.7527 71.2439 16.7748 71.2239 16.7996C71.2037 16.8238 71.1861 16.8503 71.1713 16.878C71.1564 16.9058 71.1441 16.935 71.1353 16.9653C71.1261 16.9956 71.1201 17.0266 71.117 17.0579C71.1142 17.0896 71.1142 17.1209 71.1173 17.1526C71.1208 17.1839 71.1272 17.2149 71.1364 17.2449C71.1459 17.2752 71.1582 17.304 71.1734 17.3318C71.1885 17.3597 71.2061 17.3856 71.2263 17.4099C71.2993 17.4977 71.3921 17.5519 71.5042 17.5733ZM75.3117 14.7369C75.3737 14.7492 75.4361 14.7488 75.4983 14.7359C75.5607 14.7231 75.6179 14.6988 75.6704 14.6633C76.3128 14.2267 76.984 13.8025 77.6518 13.3991C77.6791 13.3829 77.7044 13.3643 77.7277 13.3428C77.7514 13.3217 77.7721 13.2984 77.7912 13.2727C77.8099 13.2473 77.8261 13.2203 77.8395 13.1918C77.8529 13.1628 77.8635 13.1334 77.8709 13.1027C77.8787 13.0717 77.8829 13.0408 77.8843 13.009C77.8857 12.9774 77.8839 12.946 77.8789 12.9148C77.8741 12.8834 77.8663 12.8531 77.8554 12.8231C77.8444 12.7936 77.8307 12.7654 77.8141 12.7384C77.7979 12.7112 77.7791 12.6862 77.7577 12.6627C77.7365 12.6394 77.7133 12.6183 77.6879 12.5997C77.6625 12.581 77.6353 12.5648 77.6067 12.5514C77.5782 12.538 77.5485 12.5279 77.5179 12.52C77.4872 12.5127 77.4562 12.5081 77.4245 12.5071C77.393 12.5056 77.3616 12.5075 77.3302 12.5123C77.2992 12.5172 77.2689 12.525 77.2394 12.5358C77.2097 12.5468 77.1811 12.5606 77.1543 12.5771C76.474 12.9886 75.7945 13.4224 75.134 13.8659C75.1075 13.8835 75.0832 13.9037 75.061 13.9258C75.0384 13.948 75.0187 13.9722 75.001 13.9987C74.9834 14.025 74.9686 14.0529 74.9566 14.0817C74.9446 14.1109 74.9354 14.1412 74.9294 14.1723C74.9231 14.2032 74.9203 14.2346 74.9203 14.2662C74.9206 14.2976 74.9239 14.3288 74.9301 14.3599C74.9365 14.3909 74.9457 14.4207 74.958 14.4499C74.9703 14.4791 74.9852 14.5067 75.0028 14.5327C75.0384 14.5862 75.0832 14.6305 75.1367 14.6661C75.1901 14.7014 75.2486 14.7253 75.3117 14.7369ZM79.3718 12.2799C79.4832 12.301 79.589 12.2841 79.6888 12.2299C80.3779 11.8564 81.0825 11.498 81.7814 11.1622C81.8103 11.1484 81.8372 11.1324 81.8625 11.1137C81.8879 11.0946 81.9112 11.0735 81.9324 11.0499C81.9535 11.0266 81.9722 11.0014 81.9884 10.9742C82.0047 10.9467 82.0181 10.9182 82.0286 10.8888C82.0392 10.8587 82.0466 10.8282 82.0508 10.7968C82.0554 10.7655 82.0568 10.7341 82.055 10.7025C82.0533 10.6711 82.0484 10.6401 82.0403 10.6095C82.0324 10.5789 82.0216 10.5493 82.0078 10.5208C81.9944 10.4923 81.9781 10.4652 81.9594 10.4398C81.9405 10.4145 81.9192 10.3913 81.8961 10.3702C81.8724 10.349 81.847 10.3303 81.8198 10.3142C81.7927 10.298 81.7644 10.2846 81.7345 10.2743C81.7044 10.2638 81.6742 10.2564 81.6428 10.2519C81.6114 10.2476 81.58 10.2462 81.5486 10.248C81.5169 10.2497 81.4859 10.2546 81.4551 10.2627C81.4245 10.2705 81.3953 10.2814 81.3667 10.2956C80.6543 10.6384 79.9343 11.0049 79.2317 11.385C79.2038 11.3999 79.1778 11.4175 79.1535 11.4375C79.1288 11.4576 79.1066 11.4798 79.0868 11.5044C79.0667 11.5287 79.0491 11.5551 79.0343 11.5829C79.0194 11.6108 79.0078 11.64 78.9987 11.6703C78.9895 11.7005 78.9835 11.7315 78.9807 11.7629C78.9778 11.7945 78.9778 11.8259 78.9814 11.8572C78.9846 11.8884 78.9908 11.9195 79.0004 11.9494C79.0099 11.9797 79.0222 12.0085 79.0374 12.0363C79.0717 12.1 79.1183 12.1535 79.1768 12.1961C79.2353 12.2388 79.3001 12.267 79.3718 12.2799ZM83.6501 10.2293C83.7449 10.2473 83.8366 10.2374 83.9256 10.2001C84.6473 9.8973 85.3837 9.61112 86.1133 9.34818C86.143 9.33764 86.1712 9.32425 86.198 9.30803C86.2248 9.29181 86.2498 9.27315 86.273 9.25233C86.2963 9.23125 86.3171 9.20799 86.3358 9.18272C86.3545 9.15771 86.3704 9.13094 86.3838 9.10282C86.3972 9.0743 86.4077 9.0451 86.4152 9.01482C86.4229 8.98413 86.4275 8.95344 86.4289 8.92221C86.4308 8.89085 86.4293 8.85989 86.4247 8.82893C86.4201 8.79784 86.4123 8.76756 86.4022 8.73809C86.3912 8.70848 86.3781 8.68037 86.362 8.6536C86.3457 8.62683 86.327 8.60182 86.3062 8.57857C86.2851 8.55573 86.2618 8.5345 86.2367 8.51585C86.2117 8.49719 86.1848 8.48137 86.1567 8.46799C86.1281 8.45461 86.0989 8.44406 86.0685 8.43676C86.0382 8.42892 86.0076 8.42433 85.9762 8.42297C85.9448 8.42162 85.9137 8.42297 85.8827 8.42757C85.8516 8.43217 85.8214 8.43987 85.792 8.45042C85.0454 8.71795 84.2936 9.0113 83.5569 9.31993C83.5281 9.33236 83.5002 9.3471 83.4738 9.36467C83.4477 9.38198 83.4233 9.40199 83.4011 9.42456C83.3785 9.447 83.3588 9.47134 83.3411 9.4977C83.3239 9.52379 83.309 9.55163 83.2971 9.58083C83.285 9.61044 83.2762 9.64032 83.2699 9.67127C83.2639 9.70264 83.2611 9.73359 83.2615 9.76536C83.2617 9.797 83.265 9.82836 83.2714 9.85932C83.2777 9.89027 83.2872 9.92015 83.2995 9.94908C83.3312 10.0224 83.3778 10.0832 83.4399 10.1328C83.502 10.1825 83.5721 10.2146 83.6501 10.2293ZM88.1128 8.62359C88.1901 8.63914 88.2662 8.63494 88.3414 8.61169C89.0903 8.38701 89.8514 8.18005 90.6057 7.99741C90.6364 7.98998 90.6661 7.9797 90.6949 7.96672C90.7235 7.95334 90.7507 7.93752 90.7764 7.91887C90.8017 7.90048 90.8254 7.87939 90.847 7.85614C90.8684 7.83289 90.887 7.80788 90.9037 7.78084C90.9202 7.75408 90.9336 7.72555 90.9446 7.69595C90.9556 7.66648 90.9633 7.63579 90.9682 7.60443C90.9732 7.57347 90.9745 7.54211 90.9732 7.51047C90.9717 7.47884 90.9675 7.44775 90.9598 7.4172C90.9527 7.38624 90.9424 7.35663 90.929 7.3277C90.916 7.29891 90.9002 7.27174 90.8815 7.24605C90.8631 7.22077 90.8424 7.19711 90.8191 7.17562C90.7958 7.15426 90.7703 7.1352 90.7435 7.11871C90.7164 7.10249 90.6883 7.0887 90.6582 7.07775C90.6287 7.06693 90.5983 7.05909 90.5669 7.05463C90.5355 7.04963 90.5041 7.04828 90.4724 7.04963C90.441 7.05112 90.4096 7.05558 90.379 7.06342C89.6084 7.24997 88.8298 7.46113 88.0688 7.69324C88.0384 7.7023 88.0092 7.71393 87.9813 7.7288C87.9531 7.74353 87.927 7.76084 87.9023 7.78084C87.8775 7.80058 87.8553 7.82302 87.8353 7.84735C87.8149 7.87169 87.7975 7.89778 87.7824 7.92549C87.7672 7.95375 87.7553 7.98254 87.7461 8.01282C87.7368 8.0431 87.7309 8.07406 87.7278 8.10583C87.7245 8.13706 87.7245 8.16883 87.7278 8.20019C87.7309 8.23142 87.7373 8.26237 87.7465 8.29265C87.7591 8.33429 87.7771 8.37363 87.8004 8.41027C87.8232 8.44731 87.8511 8.48002 87.8836 8.50922C87.9157 8.53842 87.9514 8.56275 87.9905 8.58209C88.0292 8.60182 88.0701 8.61548 88.1128 8.62359ZM92.7213 7.50763C92.7802 7.51886 92.8394 7.51926 92.8987 7.50831C93.6657 7.36677 94.4443 7.24605 95.2151 7.14642C95.2465 7.14291 95.2773 7.13588 95.3072 7.12601C95.3371 7.11614 95.3661 7.10357 95.3936 7.08802C95.4211 7.07247 95.4468 7.05422 95.4708 7.03381C95.4945 7.01299 95.5163 6.99015 95.5358 6.96514C95.5551 6.94013 95.5721 6.91377 95.5861 6.88524C95.6002 6.85712 95.6115 6.82779 95.6196 6.79724C95.6281 6.76655 95.633 6.73559 95.6354 6.70423C95.6376 6.6726 95.6365 6.64123 95.6323 6.61001C95.6288 6.57864 95.6222 6.54769 95.6123 6.51767C95.6024 6.4878 95.5897 6.45887 95.5741 6.43143C95.5587 6.40398 95.5402 6.3783 95.5198 6.35437C95.4991 6.33044 95.4765 6.30854 95.4514 6.28921C95.4264 6.26988 95.3999 6.25325 95.3718 6.23919C95.3432 6.22513 95.3138 6.21391 95.2836 6.2054C95.2529 6.19729 95.2219 6.19201 95.1905 6.18998C95.1588 6.18782 95.1274 6.1889 95.0959 6.19309C94.3081 6.29273 93.5105 6.41669 92.7255 6.56066C92.6947 6.56661 92.6644 6.5754 92.6351 6.58702C92.6059 6.59906 92.578 6.61352 92.5516 6.63069C92.5255 6.64799 92.5008 6.66773 92.4786 6.6899C92.456 6.71207 92.4359 6.736 92.4183 6.76209C92.4003 6.78804 92.3854 6.81589 92.3731 6.84469C92.3608 6.87402 92.3516 6.9039 92.3453 6.93486C92.339 6.96554 92.3357 6.99677 92.3355 7.02854C92.3355 7.0599 92.3383 7.09113 92.3443 7.12222C92.3527 7.1694 92.3676 7.21442 92.3894 7.257C92.4113 7.29958 92.4391 7.33798 92.4726 7.37245C92.5058 7.40692 92.5435 7.43545 92.5859 7.45843C92.6278 7.48127 92.6723 7.49777 92.7195 7.50737L92.7213 7.50763ZM97.4279 6.91512C97.469 6.92323 97.5099 6.92566 97.551 6.92255C98.3268 6.8701 99.1151 6.83847 99.8896 6.82968C99.9212 6.82968 99.9523 6.82603 99.9833 6.81981C100.014 6.81346 100.044 6.80427 100.074 6.79156C100.102 6.77926 100.13 6.76412 100.156 6.74654C100.183 6.72856 100.207 6.70856 100.229 6.68598C100.251 6.66313 100.27 6.6388 100.288 6.61203C100.305 6.58567 100.319 6.55782 100.331 6.52822C100.343 6.49902 100.351 6.46874 100.357 6.43778C100.363 6.40642 100.366 6.37519 100.365 6.34383C100.365 6.31206 100.362 6.28083 100.355 6.24974C100.349 6.21878 100.34 6.1889 100.327 6.1597C100.315 6.1305 100.3 6.10306 100.282 6.07657C100.265 6.05047 100.244 6.02655 100.222 6.00438C100.199 5.98221 100.175 5.96247 100.148 5.9453C100.122 5.928 100.094 5.91353 100.064 5.90164C100.035 5.89001 100.005 5.88122 99.9738 5.87554C99.9428 5.87 99.9114 5.86743 99.8797 5.86784C99.0848 5.8773 98.2786 5.90907 97.4833 5.96328C97.4521 5.96531 97.4209 5.97031 97.3903 5.97842C97.3596 5.9868 97.3303 5.99775 97.3021 6.01181C97.2736 6.02587 97.2468 6.0425 97.2217 6.06183C97.1967 6.08076 97.1738 6.10265 97.1533 6.12618C97.1325 6.1501 97.1142 6.17593 97.0983 6.20337C97.0828 6.23081 97.07 6.25934 97.0599 6.28921C97.05 6.31909 97.043 6.35018 97.039 6.38141C97.0351 6.41277 97.0342 6.44413 97.0366 6.4755C97.0401 6.52862 97.0518 6.57972 97.0722 6.62893C97.0927 6.67787 97.1205 6.72221 97.1558 6.76209C97.1914 6.80183 97.232 6.83495 97.2785 6.86091C97.3246 6.887 97.3741 6.90498 97.4262 6.91485L97.4279 6.91512ZM118.21 10.7187C118.263 10.7292 118.317 10.7306 118.371 10.7225C118.425 10.7144 118.476 10.6979 118.525 10.6722C118.573 10.6465 118.615 10.6138 118.652 10.5736C118.689 10.5335 118.719 10.4885 118.74 10.438C118.753 10.4092 118.763 10.3792 118.77 10.3487C118.777 10.3177 118.78 10.2864 118.781 10.255C118.782 10.2234 118.779 10.192 118.774 10.1606C118.769 10.1297 118.76 10.0994 118.748 10.0698C118.737 10.0406 118.723 10.0125 118.705 9.98599C118.688 9.95935 118.669 9.93461 118.647 9.91217C118.625 9.88919 118.601 9.86919 118.574 9.85121C118.549 9.83323 118.521 9.81809 118.492 9.80551C117.758 9.48621 117.013 9.18231 116.274 8.90004C116.245 8.88869 116.214 8.88031 116.183 8.87463C116.152 8.86936 116.12 8.86692 116.089 8.8676C116.057 8.86868 116.026 8.87246 115.995 8.87963C115.964 8.88625 115.934 8.89653 115.905 8.9091C115.876 8.92221 115.849 8.93762 115.823 8.95628C115.798 8.97466 115.774 8.99508 115.752 9.01833C115.73 9.04118 115.711 9.06619 115.694 9.09322C115.678 9.11999 115.664 9.14824 115.653 9.17771C115.641 9.20732 115.633 9.2376 115.627 9.26856C115.622 9.29992 115.62 9.33128 115.62 9.36292C115.621 9.39428 115.625 9.42564 115.632 9.45619C115.639 9.48715 115.649 9.51716 115.662 9.54569C115.675 9.57448 115.691 9.60192 115.709 9.62761C115.727 9.65343 115.748 9.67695 115.771 9.69872C115.794 9.72021 115.819 9.73927 115.846 9.75617C115.873 9.77266 115.901 9.78686 115.93 9.79767C116.652 10.073 117.384 10.3719 118.104 10.686C118.136 10.7 118.17 10.7106 118.205 10.7172L118.21 10.7187ZM102.166 6.86375C102.189 6.86794 102.212 6.87078 102.235 6.87145C103.01 6.90809 103.795 6.97014 104.57 7.04679C104.602 7.0503 104.633 7.05071 104.665 7.04787C104.697 7.04503 104.728 7.03908 104.758 7.0303C104.789 7.0211 104.818 7.00921 104.847 6.99434C104.875 6.9796 104.901 6.96203 104.926 6.94188C104.95 6.92147 104.973 6.8993 104.993 6.8747C105.013 6.85009 105.031 6.8236 105.046 6.79548C105.061 6.76736 105.073 6.73803 105.082 6.70747C105.091 6.67719 105.097 6.64583 105.1 6.6142C105.103 6.58243 105.103 6.55079 105.101 6.51916C105.098 6.48739 105.092 6.45644 105.083 6.42588C105.074 6.3952 105.062 6.366 105.047 6.33774C105.033 6.30962 105.015 6.28326 104.995 6.25866C104.975 6.23392 104.953 6.21175 104.928 6.19174C104.903 6.17133 104.877 6.15376 104.849 6.13889C104.821 6.12415 104.791 6.11212 104.761 6.10306C104.73 6.09414 104.699 6.08819 104.667 6.08535C103.875 6.0037 103.07 5.94287 102.277 5.9065C102.246 5.90474 102.214 5.90623 102.183 5.91083C102.151 5.91529 102.121 5.92313 102.091 5.93367C102.061 5.94422 102.033 5.9576 102.005 5.97382C101.978 5.99032 101.953 6.00897 101.93 6.03047C101.906 6.05156 101.885 6.07521 101.866 6.10049C101.847 6.12591 101.832 6.15294 101.818 6.18187C101.805 6.2104 101.794 6.24027 101.787 6.27096C101.779 6.30151 101.775 6.33288 101.773 6.36451C101.77 6.42223 101.777 6.47901 101.794 6.5343C101.811 6.58986 101.838 6.64015 101.873 6.68598C101.909 6.73181 101.951 6.76979 102.001 6.80008C102.05 6.83036 102.103 6.85104 102.16 6.86199L102.166 6.86375ZM113.781 9.03063C113.839 9.04226 113.897 9.04293 113.955 9.03266C114.013 9.02252 114.067 9.00238 114.117 8.9725C114.168 8.94263 114.212 8.90423 114.248 8.85814C114.285 8.81204 114.312 8.76094 114.33 8.70456C114.34 8.67469 114.347 8.644 114.351 8.61277C114.354 8.58141 114.355 8.54964 114.353 8.51842C114.351 8.48665 114.345 8.45569 114.337 8.42541C114.328 8.39485 114.317 8.36552 114.303 8.3374C114.288 8.30928 114.271 8.28252 114.252 8.25791C114.233 8.2329 114.211 8.21033 114.187 8.18951C114.163 8.1691 114.137 8.15125 114.109 8.13611C114.082 8.12056 114.053 8.10786 114.023 8.09839C113.263 7.84979 112.491 7.61849 111.728 7.41152C111.698 7.40314 111.667 7.39746 111.635 7.3953C111.604 7.39286 111.573 7.39354 111.541 7.39746C111.51 7.40138 111.479 7.40841 111.449 7.41828C111.419 7.42842 111.391 7.44112 111.363 7.45694C111.336 7.47249 111.31 7.49074 111.286 7.51156C111.262 7.53224 111.241 7.55522 111.221 7.58023C111.202 7.6051 111.185 7.63187 111.172 7.66012C111.158 7.68824 111.146 7.71785 111.138 7.74813C111.13 7.77868 111.124 7.80977 111.122 7.84141C111.12 7.87277 111.12 7.9044 111.124 7.93577C111.128 7.96713 111.135 7.99809 111.145 8.02796C111.154 8.05784 111.167 8.08677 111.183 8.11421C111.199 8.14165 111.217 8.16734 111.238 8.19127C111.258 8.21533 111.281 8.23669 111.306 8.25616C111.331 8.27549 111.358 8.29198 111.387 8.30604C111.415 8.31983 111.445 8.33105 111.475 8.33916C112.222 8.54234 112.978 8.76837 113.723 9.01198C113.74 9.01901 113.758 9.02455 113.776 9.02914L113.781 9.03063ZM106.878 7.34987L106.893 7.35447C107.657 7.47668 108.437 7.62349 109.194 7.79098C109.225 7.79774 109.256 7.80166 109.288 7.80234C109.32 7.80301 109.351 7.80058 109.382 7.7949C109.413 7.78923 109.444 7.78084 109.473 7.76922C109.503 7.75759 109.531 7.74353 109.557 7.72623C109.584 7.70906 109.608 7.68959 109.631 7.66742C109.654 7.64566 109.674 7.62173 109.692 7.59564C109.71 7.56955 109.726 7.54211 109.738 7.51291C109.751 7.48411 109.76 7.4541 109.766 7.42314C109.773 7.39219 109.777 7.36123 109.778 7.32946C109.779 7.29783 109.776 7.26646 109.771 7.23551C109.765 7.20414 109.757 7.17386 109.745 7.14466C109.734 7.11506 109.719 7.08734 109.702 7.06058C109.685 7.03422 109.666 7.00948 109.644 6.98663C109.622 6.96406 109.598 6.94364 109.572 6.92566C109.546 6.90782 109.518 6.89268 109.489 6.88038C109.46 6.86767 109.43 6.85807 109.399 6.85185C108.623 6.68355 107.827 6.5339 107.045 6.40817C107.013 6.40331 106.982 6.40114 106.951 6.40223C106.919 6.40331 106.888 6.4075 106.857 6.41493C106.826 6.42196 106.796 6.4321 106.767 6.44548C106.739 6.4586 106.712 6.47441 106.686 6.49266C106.661 6.51132 106.637 6.53214 106.616 6.55539C106.594 6.57864 106.575 6.60392 106.558 6.63069C106.542 6.65786 106.528 6.68598 106.518 6.71559C106.507 6.74546 106.499 6.77574 106.494 6.80711C106.489 6.83739 106.488 6.86767 106.489 6.89822C106.49 6.9285 106.494 6.95878 106.501 6.98839C106.508 7.01826 106.518 7.04719 106.53 7.07504C106.542 7.10276 106.557 7.12925 106.575 7.15426C106.593 7.17913 106.612 7.20239 106.634 7.22361C106.656 7.2447 106.68 7.26363 106.705 7.28025C106.731 7.29675 106.758 7.3108 106.787 7.32243C106.815 7.33379 106.844 7.34257 106.874 7.34852L106.878 7.34987Z" fill="white"/>
</g>
</g>
</g>
</g>
<mask id="mask28_2080_2" style="mask-type:luminance" maskUnits="userSpaceOnUse" x="119" y="10" width="4" height="3">
<path d="M119.889 10.7371H122.055V12.2691H119.889V10.7371Z" fill="white"/>
</mask>
<g mask="url(#mask28_2080_2)">
<mask id="mask29_2080_2" style="mask-type:luminance" maskUnits="userSpaceOnUse" x="68" y="-6" width="60" height="43">
<path d="M76.5298 -5.34973L127.56 11.0027L119.458 36.2007L68.4277 19.8478L76.5298 -5.34973Z" fill="white"/>
</mask>
<g mask="url(#mask29_2080_2)">
<mask id="mask30_2080_2" style="mask-type:luminance" maskUnits="userSpaceOnUse" x="68" y="-6" width="60" height="43">
<path d="M127.452 10.9682L76.4213 -5.38428L68.3193 19.8137L119.35 36.1661L127.452 10.9682Z" fill="white"/>
</mask>
<g mask="url(#mask30_2080_2)">
<mask id="mask31_2080_2" style="mask-type:luminance" maskUnits="userSpaceOnUse" x="68" y="-6" width="60" height="43">
<path d="M127.452 10.9682L76.4213 -5.38428L68.3193 19.8137L119.35 36.1661L127.452 10.9682Z" fill="white"/>
</mask>
<g mask="url(#mask31_2080_2)">
<path d="M121.432 12.25C121.483 12.2599 121.534 12.2612 121.585 12.2546C121.637 12.2479 121.686 12.2331 121.732 12.2105C121.779 12.1877 121.821 12.1581 121.858 12.1219C121.895 12.0856 121.926 12.0444 121.949 11.9983C121.964 11.9702 121.976 11.941 121.985 11.9107C121.993 11.8804 121.999 11.8493 122.002 11.8177C122.005 11.7863 122.004 11.7551 122.001 11.7233C121.997 11.692 121.991 11.6614 121.981 11.6311C121.972 11.6011 121.959 11.5723 121.944 11.5445C121.928 11.517 121.911 11.4914 121.89 11.467C121.87 11.4431 121.847 11.4213 121.822 11.4016C121.798 11.3823 121.771 11.3654 121.743 11.3509C121.382 11.165 121.018 10.9822 120.661 10.8034C120.633 10.7893 120.604 10.7785 120.573 10.77C120.542 10.7619 120.511 10.757 120.48 10.7549C120.448 10.7527 120.417 10.7538 120.385 10.7581C120.354 10.7623 120.323 10.7696 120.294 10.7799C120.264 10.79 120.235 10.8034 120.208 10.8193C120.18 10.8352 120.155 10.8538 120.131 10.8749C120.107 10.8957 120.086 10.919 120.067 10.9443C120.048 10.9697 120.032 10.9964 120.018 11.0248C120.004 11.0534 119.993 11.0827 119.984 11.1132C119.976 11.1435 119.971 11.1749 119.969 11.2062C119.967 11.2379 119.968 11.2692 119.972 11.3006C119.976 11.3318 119.983 11.3625 119.994 11.3924C120.004 11.422 120.017 11.4509 120.033 11.478C120.049 11.5054 120.067 11.5308 120.088 11.5544C120.109 11.578 120.132 11.5994 120.158 11.6184C120.183 11.6375 120.209 11.654 120.238 11.6678C120.59 11.8396 120.949 12.0187 121.303 12.2015C121.343 12.2239 121.387 12.2401 121.432 12.25Z" fill="white"/>
</g>
</g>
</g>
</g>
</svg>
