<svg width="144" height="66" viewBox="0 0 144 66" fill="none" xmlns="http://www.w3.org/2000/svg">
<path d="M58.7867 61.488H56.9427V65.1011H55.0718V55.5021H58.7867C60.7663 55.5021 61.9509 56.8656 61.9509 58.4938C61.9509 60.1286 60.7663 61.488 58.7867 61.488ZM58.692 57.1744H56.9427V59.8042H58.692C59.5427 59.8042 60.0781 59.2787 60.0781 58.4938C60.0781 57.7149 59.5418 57.1744 58.692 57.1744Z" fill="#00427A"/>
<path d="M72.3415 65.1011L71.7768 63.4051H68.3695L67.7916 65.1011H65.8389L69.3261 55.5031H70.7921L74.2949 65.1011H72.3415ZM70.1074 58.3344L68.8953 61.8234H71.2779L70.1074 58.3344Z" fill="#00427A"/>
<path d="M84.6046 65.1011L82.7331 61.273H81.386V65.1011H79.5151V55.5021H83.27C85.2228 55.5021 86.3818 56.8403 86.3818 58.4422C86.3818 59.7888 85.5599 60.6256 84.6308 60.9626L86.7703 65.1002H84.6046V65.1011ZM83.1507 57.1744H81.386V59.7094H83.1507C83.9714 59.7094 84.5093 59.1837 84.5093 58.4422C84.5093 57.7018 83.9714 57.1744 83.1507 57.1744Z" fill="#00427A"/>
<path d="M92.3586 55.5021H94.2305V65.1011H92.3586V55.5021Z" fill="#00427A"/>
<path d="M103.143 65.1827C101.686 65.1827 100.581 64.8723 99.6401 63.9152L100.851 62.7027C101.456 63.3101 102.277 63.5104 103.168 63.5104C104.273 63.5104 104.863 63.0944 104.863 62.3245C104.863 61.9859 104.769 61.7056 104.568 61.5142C104.38 61.3392 104.162 61.2461 103.72 61.1798L102.56 61.0173C101.738 60.8954 101.134 60.6397 100.703 60.2227C100.247 59.7632 100.016 59.1462 100.016 58.3344C100.016 56.6205 101.283 55.4227 103.356 55.4227C104.676 55.4227 105.632 55.7482 106.45 56.5434L105.267 57.7158C104.663 57.1379 103.935 57.0544 103.304 57.0544C102.305 57.0544 101.821 57.6086 101.821 58.2666C101.821 58.512 101.902 58.7635 102.104 58.9549C102.293 59.1331 102.601 59.2787 102.992 59.3319L104.122 59.4944C105 59.6147 105.552 59.855 105.955 60.2349C106.467 60.7197 106.695 61.4218 106.695 62.2694C106.694 64.1293 105.148 65.1827 103.143 65.1827Z" fill="#00427A"/>
<path d="M69.8118 1.43018C70.721 2.10538 71.2036 3.08301 71.2036 4.29117V44.5852C71.2036 46.0844 70.5326 46.9027 69.7292 47.4448C71.1969 47.4448 95.8484 47.4448 96.188 47.4448C96.2443 47.1676 97.0777 42.984 97.3758 41.4579C94.9986 44.8329 92.255 44.8675 85.7738 44.9245H85.3148C81.8954 44.9245 78.5087 44.6198 77.382 44.5257L77.1904 44.4979V23.0681H88.5187C89.3179 23.0681 90.1695 23.7321 90.686 24.4252C90.686 23.3888 90.686 20.3692 90.686 19.3219C90.1695 20.0259 89.3172 20.6838 88.5187 20.6838H77.1904V3.80806H77.4018C77.5128 3.80806 87.8493 3.94701 89.1254 3.94701C91.9506 3.94701 93.406 4.72032 94.6344 5.99875C94.6174 5.13882 94.5285 1.77104 94.5177 1.43018C94.1243 1.43018 71.1789 1.43018 69.8118 1.43018Z" fill="#00427A"/>
<path d="M107.72 8.37747C103.572 12.6861 101.208 18.584 101.208 24.5747C101.208 31.232 103.895 37.2873 108.762 41.6204C113.427 45.7705 119.683 48.0569 126.367 48.0569C129.868 48.0569 136.724 47.4669 143.345 43.494C143.568 40.7065 143.843 36.8387 143.941 35.1187C138.582 45.4656 130.349 45.4796 127.593 45.4796C113.885 45.4796 107.744 34.5334 107.744 23.6985C107.744 18.0108 109.531 12.8954 112.768 9.29625C116.314 5.3432 121.46 3.26528 127.654 3.26528C131.011 3.26528 139.106 4.32467 143.599 13.6564C143.51 11.8286 143.221 7.6663 143.008 4.64265C136.928 1.9991 132.012 0.816284 127.109 0.816284C119.183 0.817084 112.47 3.43366 107.72 8.37747Z" fill="#00427A"/>
<path d="M47.0925 4.29117V18.1923C49.2205 18.4211 51.258 18.7049 53.2172 19.0464V4.29117C53.2172 2.99882 53.6304 2.06285 54.4638 1.43018H45.8264C46.6624 2.08166 47.0925 3.04294 47.0925 4.29117ZM62.8086 28.0569L62.8652 23.0249C55.8451 20.6937 46.4411 19.2819 36.0626 19.2656C31.4638 19.2656 27.0517 19.5459 22.945 20.0601V4.29117C22.945 3.08301 23.3931 2.09965 24.2419 1.43018H15.5517C16.3845 2.08166 16.8194 3.04294 16.8194 4.29117V21.0336C9.78616 22.416 4.06222 24.5363 0.47876 27.104L1.0413 27.9312C4.69736 25.7894 10.1978 24.175 16.8184 23.2752V44.5852C16.8184 45.792 16.3704 46.7465 15.5076 47.4448H24.2681C23.3937 46.728 22.9441 45.7609 22.9441 44.5852V22.6595C27.1038 22.4019 31.5668 22.3929 36.2066 22.6752C39.9893 22.9113 43.6421 23.3347 47.0919 23.9004V44.5852C47.0919 45.792 46.6509 46.7465 45.7858 47.4448H54.5006C53.6525 46.7718 53.2166 45.8368 53.2166 44.5852V25.1225C56.7527 25.952 59.9908 26.9331 62.8086 28.0569Z" fill="#00427A"/>
</svg>
